SplineFontDB: 3.2
FontName: IRAmir
FullName: IRAmir
FamilyName: IRAmir
Weight: Book
Copyright: Copyright (c) 2022, Information Technology Organization of Iran (ito.gov.ir)
Version: 1.001
ItalicAngle: 0
UnderlinePosition: -100
UnderlineWidth: 60
Ascent: 1638
Descent: 410
InvalidEm: 0
sfntRevision: 0x00010042
LayerCount: 2
Layer: 0 1 "Back" 1
Layer: 1 1 "Fore" 0
XUID: [1021 420 722297922 509925]
StyleMap: 0x0040
FSType: 0
OS2Version: 3
OS2_WeightWidthSlopeOnly: 0
OS2_UseTypoMetrics: 0
CreationTime: 1356313081
ModificationTime: 1662560042
PfmFamily: 17
TTFWeight: 400
TTFWidth: 5
LineGap: 100
VLineGap: 0
Panose: 2 0 5 3 0 0 0 2 0 2
OS2TypoAscent: 2616
OS2TypoAOffset: 0
OS2TypoDescent: -1334
OS2TypoDOffset: 0
OS2TypoLinegap: 1500
OS2WinAscent: 2616
OS2WinAOffset: 0
OS2WinDescent: 1334
OS2WinDOffset: 0
HheadAscent: 2616
HheadAOffset: 0
HheadDescent: -1334
HheadDOffset: 0
OS2SubXSize: 1434
OS2SubYSize: 1331
OS2SubXOff: 0
OS2SubYOff: 293
OS2SupXSize: 1434
OS2SupYSize: 1331
OS2SupXOff: 0
OS2SupYOff: 930
OS2StrikeYSize: 50
OS2StrikeYPos: 250
OS2CapHeight: 2625
OS2XHeight: 436
OS2FamilyClass: 2048
OS2Vendor: 'PARS'
OS2CodePages: 20000041.00000000
OS2UnicodeRanges: 00002003.00000000.00000000.00000000
Lookup: 1 1 0 "'isol' Isolated Forms in Arabic lookup 0" { "'isol' Isolated Forms in Arabic lookup 0 subtable"  } ['isol' ('arab' <'dflt' > ) ]
Lookup: 1 1 0 "'init' Initial Forms in Arabic lookup 1" { "'init' Initial Forms in Arabic lookup 1 subtable"  } ['init' ('arab' <'dflt' > ) ]
Lookup: 1 1 0 "'fina' Terminal Forms in Arabic lookup 2" { "'fina' Terminal Forms in Arabic lookup 2 subtable"  } ['fina' ('arab' <'dflt' > ) ]
Lookup: 1 1 0 "'medi' Medial Forms in Arabic lookup 3" { "'medi' Medial Forms in Arabic lookup 3 subtable"  } ['medi' ('arab' <'dflt' > ) ]
Lookup: 4 1 0 "'ccmp' Glyph Composition/Decomposition in Arabic lookup 4" { "'ccmp' Glyph Composition/Decomposition in Arabic lookup 4 subtable"  } ['ccmp' ('arab' <'dflt' > ) ]

StartChar: quotedbl
Encoding: 34 34 4
Width: 721
Flags: W
LayerCount: 2
Fore
SplineSet
414 1393 m 0,0,1
 414 1474 414 1474 498 1474 c 0,2,3
 540 1472 540 1472 560.5 1448 c 128,-1,4
 581 1424 581 1424 581 1393 c 0,5,6
 581 1313 581 1313 560 1165.5 c 128,-1,7
 539 1018 539 1018 539 945 c 1,8,-1
 453 945 l 1,9,10
 453 1018 453 1018 433.5 1165.5 c 128,-1,11
 414 1313 414 1313 414 1393 c 0,0,1
144 1393 m 0,12,13
 144 1474 144 1474 228 1474 c 0,14,15
 270 1472 270 1472 290.5 1448 c 128,-1,16
 311 1424 311 1424 311 1393 c 0,17,18
 311 1313 311 1313 290 1165.5 c 128,-1,19
 269 1018 269 1018 269 945 c 1,20,-1
 183 945 l 1,21,22
 183 1018 183 1018 163.5 1165.5 c 128,-1,23
 144 1313 144 1313 144 1393 c 0,12,13
EndSplineSet
EndChar

StartChar: quotesingle
Encoding: 39 39 5
Width: 586
Flags: W
LayerCount: 2
Fore
SplineSet
231 1393 m 0,0,1
 231 1474 231 1474 315 1474 c 0,2,3
 357 1472 357 1472 377.5 1448 c 128,-1,4
 398 1424 398 1424 398 1393 c 0,5,6
 398 1313 398 1313 377 1165.5 c 128,-1,7
 356 1018 356 1018 356 945 c 1,8,-1
 270 945 l 1,9,10
 270 1018 270 1018 250.5 1165.5 c 128,-1,11
 231 1313 231 1313 231 1393 c 0,0,1
EndSplineSet
EndChar

StartChar: asterisk
Encoding: 42 42 6
Width: 1126
Flags: W
LayerCount: 2
Fore
SplineSet
568 347 m 1,0,-1
 574 687 l 1,1,-1
 355 467 l 1,2,-1
 250 467 l 1,3,-1
 527 746 l 1,4,-1
 203 746 l 1,5,-1
 223 839 l 1,6,-1
 547 839 l 1,7,-1
 277 1104 l 1,8,-1
 370 1104 l 1,9,-1
 579 899 l 1,10,-1
 585 1199 l 1,11,-1
 704 1239 l 1,12,-1
 699 912 l 1,13,-1
 905 1104 l 1,14,-1
 1013 1104 l 1,15,-1
 730 839 l 1,16,-1
 1065 839 l 1,17,-1
 1043 746 l 1,18,-1
 729 746 l 1,19,-1
 1002 467 l 1,20,-1
 910 467 l 1,21,-1
 696 687 l 1,22,-1
 688 386 l 1,23,-1
 568 347 l 1,0,-1
EndSplineSet
EndChar

StartChar: plus
Encoding: 43 43 7
Width: 1253
GlyphClass: 2
Flags: W
LayerCount: 2
Fore
SplineSet
1149 578 m 1,0,-1
 707 578 l 1,1,-1
 707 141 l 1,2,-1
 547 141 l 1,3,-1
 547 578 l 1,4,-1
 109 578 l 1,5,-1
 109 745 l 1,6,-1
 547 745 l 1,7,-1
 547 1186 l 1,8,-1
 707 1186 l 1,9,-1
 707 745 l 1,10,-1
 1149 745 l 1,11,-1
 1149 578 l 1,0,-1
EndSplineSet
EndChar

StartChar: hyphen
Encoding: 45 45 8
Width: 1360
Flags: W
LayerCount: 2
Fore
SplineSet
182 721 m 1,0,-1
 1167 721 l 1,1,-1
 1167 573 l 1,2,-1
 182 573 l 1,3,-1
 182 721 l 1,0,-1
EndSplineSet
EndChar

StartChar: period
Encoding: 46 46 9
Width: 809
GlyphClass: 2
Flags: W
LayerCount: 2
Fore
SplineSet
460 471 m 1,0,1
 470 471 470 471 570.5 350 c 128,-1,2
 671 229 671 229 675 221 c 1,3,4
 671 217 671 217 614.5 165 c 128,-1,5
 558 113 558 113 427 0 c 1,6,7
 261 176 261 176 206 240 c 1,8,-1
 460 471 l 1,0,1
EndSplineSet
EndChar

StartChar: slash
Encoding: 47 47 10
Width: 838
Flags: W
LayerCount: 2
Fore
SplineSet
738 1160 m 1,0,-1
 256 -46 l 1,1,-1
 86 -46 l 1,2,-1
 574 1160 l 1,3,-1
 738 1160 l 1,0,-1
EndSplineSet
EndChar

StartChar: less
Encoding: 60 60 11
Width: 1117
Flags: W
LayerCount: 2
Fore
SplineSet
955 58 m 1,0,-1
 150 444 l 1,1,-1
 150 534 l 1,2,-1
 955 918 l 1,3,-1
 955 784 l 1,4,-1
 331 489 l 1,5,-1
 955 192 l 1,6,-1
 955 58 l 1,0,-1
EndSplineSet
EndChar

StartChar: equal
Encoding: 61 61 12
Width: 1157
Flags: W
LayerCount: 2
Fore
SplineSet
82 846 m 1,0,-1
 1067 846 l 1,1,-1
 1067 698 l 1,2,-1
 82 698 l 1,3,-1
 82 846 l 1,0,-1
82 530 m 1,4,-1
 1067 530 l 1,5,-1
 1067 382 l 1,6,-1
 82 382 l 1,7,-1
 82 530 l 1,4,-1
EndSplineSet
EndChar

StartChar: greater
Encoding: 62 62 13
Width: 1117
Flags: W
LayerCount: 2
Fore
SplineSet
966 444 m 1,0,-1
 160 58 l 1,1,-1
 160 192 l 1,2,-1
 786 489 l 1,3,-1
 160 784 l 1,4,-1
 160 918 l 1,5,-1
 966 534 l 1,6,-1
 966 444 l 1,0,-1
EndSplineSet
EndChar

StartChar: bracketleft
Encoding: 91 91 14
Width: 503
GlyphClass: 2
Flags: W
LayerCount: 2
Fore
SplineSet
157 1000 m 1,0,-1
 454 1000 l 1,1,-1
 454 970 l 1,2,-1
 421 970 l 2,3,4
 397 970 397 970 381.5 967.5 c 128,-1,5
 366 965 366 965 356.5 959.5 c 128,-1,6
 347 954 347 954 341 946.5 c 128,-1,7
 335 939 335 939 331 930 c 0,8,9
 321 910 321 910 321 836 c 2,10,-1
 321 -116 l 2,11,12
 321 -151 321 -151 322 -171.5 c 128,-1,13
 323 -192 323 -192 325 -198 c 0,14,15
 329 -211 329 -211 334.5 -220.5 c 128,-1,16
 340 -230 340 -230 350.5 -236.5 c 128,-1,17
 361 -243 361 -243 377.5 -246 c 128,-1,18
 394 -249 394 -249 421 -249 c 2,19,-1
 454 -249 l 1,20,-1
 454 -277 l 1,21,-1
 157 -277 l 1,22,-1
 157 1000 l 1,0,-1
EndSplineSet
EndChar

StartChar: bracketright
Encoding: 93 93 15
Width: 503
GlyphClass: 2
Flags: W
LayerCount: 2
Fore
SplineSet
346 -277 m 1,0,-1
 50 -277 l 1,1,-1
 50 -248 l 1,2,-1
 84 -248 l 2,3,4
 108 -248 108 -248 123.5 -245.5 c 128,-1,5
 139 -243 139 -243 148.5 -238 c 128,-1,6
 158 -233 158 -233 163 -225.5 c 128,-1,7
 168 -218 168 -218 172 -209 c 0,8,9
 177 -198 177 -198 179 -175.5 c 128,-1,10
 181 -153 181 -153 181 -115 c 2,11,-1
 181 839 l 2,12,13
 181 908 181 908 179 918 c 0,14,15
 176 931 176 931 170.5 941.5 c 128,-1,16
 165 952 165 952 154.5 958.5 c 128,-1,17
 144 965 144 965 127 968.5 c 128,-1,18
 110 972 110 972 84 972 c 2,19,-1
 50 972 l 1,20,-1
 50 1000 l 1,21,-1
 346 1000 l 1,22,-1
 346 -277 l 1,0,-1
EndSplineSet
EndChar

StartChar: grave
Encoding: 96 96 16
Width: 174
Flags: W
LayerCount: 2
Fore
SplineSet
98 822 m 1,0,1
 127 756 127 756 144 698 c 1,2,3
 150 655 150 655 141 660 c 1,4,5
 123 686 123 686 84 760 c 128,-1,6
 45 834 45 834 38 860 c 1,7,8
 35 891 35 891 98 822 c 1,0,1
EndSplineSet
EndChar

StartChar: braceleft
Encoding: 123 123 17
Width: 595
GlyphClass: 2
Flags: W
LayerCount: 2
Fore
SplineSet
532 990 m 1,0,1
 458 976 458 976 422.5 939 c 128,-1,2
 387 902 387 902 387 851 c 0,3,4
 387 803 387 803 405 728 c 0,5,6
 423 657 423 657 423 600 c 0,7,8
 423 550 423 550 392.5 498 c 128,-1,9
 362 446 362 446 307 409 c 0,10,11
 287 397 287 397 256 384.5 c 128,-1,12
 225 372 225 372 183 361 c 1,13,14
 273 333 273 333 314 304 c 0,15,16
 370 266 370 266 397 215.5 c 128,-1,17
 424 165 424 165 424 120 c 0,18,19
 424 97 424 97 419.5 67.5 c 128,-1,20
 415 38 415 38 407 0 c 0,21,22
 397 -36 397 -36 392.5 -68 c 128,-1,23
 388 -100 388 -100 388 -127 c 0,24,25
 388 -181 388 -181 421.5 -218.5 c 128,-1,26
 455 -256 455 -256 532 -271 c 1,27,-1
 532 -306 l 1,28,-1
 505 -306 l 2,29,30
 448 -309 448 -309 396 -287 c 128,-1,31
 344 -265 344 -265 305 -230 c 128,-1,32
 266 -195 266 -195 244.5 -152.5 c 128,-1,33
 223 -110 223 -110 226 -71 c 0,34,35
 226 -22 226 -22 249 68 c 0,36,37
 266 136 266 136 266 186 c 0,38,39
 266 243 266 243 229 284 c 128,-1,40
 192 325 192 325 122 337 c 1,41,-1
 122 382 l 1,42,43
 192 395 192 395 229 436.5 c 128,-1,44
 266 478 266 478 266 541 c 0,45,46
 266 566 266 566 262.5 594 c 128,-1,47
 259 622 259 622 251 654 c 0,48,49
 226 741 226 741 226 787 c 0,50,51
 226 824 226 824 242.5 860.5 c 128,-1,52
 259 897 259 897 287 927.5 c 128,-1,53
 315 958 315 958 350 979.5 c 128,-1,54
 385 1001 385 1001 423 1009 c 0,55,56
 465 1022 465 1022 532 1023 c 1,57,-1
 532 990 l 1,0,1
EndSplineSet
EndChar

StartChar: bar
Encoding: 124 124 18
Width: 333
Flags: W
LayerCount: 2
Fore
SplineSet
118 1023 m 1,0,-1
 213 1023 l 1,1,-1
 213 -326 l 1,2,-1
 118 -326 l 1,3,-1
 118 1023 l 1,0,-1
EndSplineSet
EndChar

StartChar: asciitilde
Encoding: 126 126 19
Width: 688
Flags: W
LayerCount: 2
Fore
SplineSet
103 232 m 1,0,1
 148 413 148 413 276 413 c 0,2,3
 315 413 315 413 403 362 c 2,4,-1
 462 328 l 2,5,6
 535 287 535 287 572 287 c 0,7,8
 633 287 633 287 677 390 c 1,9,-1
 711 390 l 1,10,11
 658 216 658 216 535 216 c 0,12,13
 485 216 485 216 409 260 c 2,14,-1
 351 294 l 2,15,16
 269 342 269 342 240 342 c 0,17,18
 179 342 179 342 135 232 c 1,19,-1
 103 232 l 1,0,1
EndSplineSet
EndChar

StartChar: agrave
Encoding: 224 224 20
Width: 1075
Flags: W
LayerCount: 2
Fore
SplineSet
741 331 m 1,0,1
 720 266 720 266 690.5 213 c 128,-1,2
 661 160 661 160 626 114 c 0,3,4
 519 -19 519 -19 400 -19 c 0,5,6
 208 -19 208 -19 159 214 c 0,7,8
 133 334 133 334 157 451 c 128,-1,9
 181 568 181 568 252 683 c 0,10,11
 325 801 325 801 433 860 c 128,-1,12
 541 919 541 919 684 919 c 0,13,14
 712 919 712 919 746 918.5 c 128,-1,15
 780 918 780 918 815.5 916 c 128,-1,16
 851 914 851 914 886 912 c 128,-1,17
 921 910 921 910 952 908 c 1,18,-1
 946 646 l 1,19,-1
 946 647 l 1,20,-1
 950 254 l 2,21,22
 952 209 952 209 954.5 179.5 c 128,-1,23
 957 150 957 150 958 139 c 0,24,25
 961 114 961 114 985 114 c 0,26,27
 1053 114 1053 114 1214 346 c 1,28,-1
 1218 179 l 1,29,30
 1073 -19 1073 -19 925 -19 c 0,31,32
 785 -19 785 -19 753 126 c 0,33,34
 749 146 749 146 747 182 c 128,-1,35
 745 218 745 218 745 264 c 2,36,-1
 741 331 l 1,0,1
737 758 m 1,37,38
 688 775 688 775 647 783.5 c 128,-1,39
 606 792 606 792 561 792 c 0,40,41
 497 792 497 792 453.5 749.5 c 128,-1,42
 410 707 410 707 387 625 c 0,43,44
 362 522 362 522 357 425 c 128,-1,45
 352 328 352 328 368 248 c 0,46,47
 388 146 388 146 437 146 c 0,48,49
 493 146 493 146 589 280 c 0,50,51
 637 352 637 352 674 430 c 128,-1,52
 711 508 711 508 739 599 c 1,53,-1
 737 758 l 1,37,38
387 477 m 1,54,55
 324 546 324 546 327 515 c 1,56,57
 334 489 334 489 373 415 c 128,-1,58
 412 341 412 341 430 315 c 1,59,60
 439 310 439 310 433 353 c 1,61,62
 416 411 416 411 387 477 c 1,54,55
EndSplineSet
EndChar

StartChar: ocircumflex.001
Encoding: 65539 -1 26
Width: 1112
Flags: W
LayerCount: 2
Fore
SplineSet
416 -19 m 0,0,1
 301 -19 301 -19 205 70 c 0,2,3
 110 160 110 160 85 288 c 0,4,5
 32 528 32 528 170 726 c 0,6,7
 307 928 307 928 522 928 c 0,8,9
 643 928 643 928 742 842 c 1,10,11
 837 753 837 753 864 626 c 0,12,13
 890 499 890 499 869 388.5 c 128,-1,14
 848 278 848 278 781 179 c 0,15,16
 711 79 711 79 619.5 30 c 128,-1,17
 528 -19 528 -19 416 -19 c 0,0,1
483 98 m 0,18,19
 536 98 536 98 573.5 133 c 128,-1,20
 611 168 611 168 637 236 c 0,21,22
 665 310 665 310 668.5 393.5 c 128,-1,23
 672 477 672 477 652 574 c 0,24,25
 602 813 602 813 466 813 c 0,26,27
 365 813 365 813 313 670 c 0,28,29
 284 595 284 595 281 510.5 c 128,-1,30
 278 426 278 426 298 332 c 0,31,32
 324 213 324 213 370 155.5 c 128,-1,33
 416 98 416 98 483 98 c 0,18,19
EndSplineSet
EndChar

StartChar: dagger
Encoding: 8224 8224 30
Width: 932
Flags: W
LayerCount: 2
Fore
SplineSet
347 -231 m 1,0,-1
 567 622 l 1,1,-1
 248 592 l 1,2,-1
 297 700 l 1,3,-1
 576 668 l 1,4,-1
 607 1066 l 1,5,-1
 755 1093 l 1,6,-1
 621 668 l 1,7,-1
 941 700 l 1,8,-1
 895 592 l 1,9,-1
 612 622 l 1,10,-1
 496 -213 l 1,11,-1
 347 -231 l 1,0,-1
EndSplineSet
EndChar

StartChar: degree
Encoding: 176 176 31
Width: 409
Flags: W
LayerCount: 2
Fore
SplineSet
395 844 m 0,0,1
 344 844 344 844 307.5 880 c 128,-1,2
 271 916 271 916 271 968 c 0,3,4
 271 1021 271 1021 307.5 1057 c 128,-1,5
 344 1093 344 1093 395 1093 c 0,6,7
 447 1093 447 1093 483 1057 c 128,-1,8
 519 1021 519 1021 519 968 c 0,9,10
 519 916 519 916 483 880 c 128,-1,11
 447 844 447 844 395 844 c 0,0,1
395 888 m 256,12,13
 427 888 427 888 450.5 912 c 128,-1,14
 474 936 474 936 474 968 c 256,15,16
 474 1000 474 1000 450.5 1024 c 128,-1,17
 427 1048 427 1048 395 1048 c 256,18,19
 363 1048 363 1048 339 1024 c 128,-1,20
 315 1000 315 1000 315 968 c 256,21,22
 315 936 315 936 339 912 c 128,-1,23
 363 888 363 888 395 888 c 256,12,13
EndSplineSet
EndChar

StartChar: bullet
Encoding: 8226 8226 32
Width: 931
Flags: W
LayerCount: 2
Fore
SplineSet
817 662 m 256,0,1
 817 517 817 517 713.5 414 c 128,-1,2
 610 311 610 311 465 311 c 256,3,4
 320 311 320 311 217 414 c 128,-1,5
 114 517 114 517 114 662 c 256,6,7
 114 807 114 807 217 910 c 128,-1,8
 320 1013 320 1013 465 1013 c 256,9,10
 610 1013 610 1013 713.5 910 c 128,-1,11
 817 807 817 807 817 662 c 256,0,1
EndSplineSet
EndChar

StartChar: registered
Encoding: 174 174 33
Width: 897
Flags: W
LayerCount: 2
Fore
SplineSet
580 445 m 0,0,1
 448 445 448 445 354.5 538.5 c 128,-1,2
 261 632 261 632 261 764 c 256,3,4
 261 896 261 896 354.5 990 c 128,-1,5
 448 1084 448 1084 580 1084 c 0,6,7
 714 1084 714 1084 807 990 c 128,-1,8
 900 896 900 896 900 764 c 256,9,10
 900 632 900 632 806.5 538.5 c 128,-1,11
 713 445 713 445 580 445 c 0,0,1
580 484 m 0,12,13
 695 484 695 484 777.5 567 c 128,-1,14
 860 650 860 650 860 764 c 256,15,16
 860 878 860 878 777.5 961 c 128,-1,17
 695 1044 695 1044 580 1044 c 0,18,19
 466 1044 466 1044 383.5 961 c 128,-1,20
 301 878 301 878 301 764 c 256,21,22
 301 650 301 650 383.5 567 c 128,-1,23
 466 484 466 484 580 484 c 0,12,13
529 737 m 1,24,-1
 501 596 l 1,25,-1
 394 596 l 1,26,-1
 403 639 l 1,27,-1
 456 639 l 1,28,-1
 511 915 l 1,29,-1
 458 915 l 1,30,-1
 466 959 l 1,31,-1
 598 959 l 2,32,33
 751 959 751 959 751 875 c 0,34,35
 751 800 751 800 650 750 c 1,36,-1
 685 639 l 1,37,-1
 747 639 l 1,38,-1
 738 596 l 1,39,-1
 641 596 l 1,40,-1
 591 737 l 1,41,-1
 529 737 l 1,24,-1
538 782 m 1,42,-1
 574 782 l 2,43,44
 697 782 697 782 697 866 c 0,45,46
 697 915 697 915 607 915 c 2,47,-1
 564 915 l 1,48,-1
 538 782 l 1,42,-1
EndSplineSet
EndChar

StartChar: copyright
Encoding: 169 169 34
Width: 1244
Flags: W
LayerCount: 2
Fore
SplineSet
725 -27 m 0,0,1
 495 -27 495 -27 330.5 137 c 128,-1,2
 166 301 166 301 166 533 c 256,3,4
 166 765 166 765 330.5 929 c 128,-1,5
 495 1093 495 1093 725 1093 c 0,6,7
 958 1093 958 1093 1122 929 c 128,-1,8
 1286 765 1286 765 1286 533 c 256,9,10
 1286 301 1286 301 1122 137 c 128,-1,11
 958 -27 958 -27 725 -27 c 0,0,1
725 18 m 0,12,13
 939 18 939 18 1090 169 c 128,-1,14
 1241 320 1241 320 1241 533 c 256,15,16
 1241 746 1241 746 1090 897 c 128,-1,17
 939 1048 939 1048 725 1048 c 0,18,19
 513 1048 513 1048 362 897 c 128,-1,20
 211 746 211 746 211 533 c 256,21,22
 211 320 211 320 362 169 c 128,-1,23
 513 18 513 18 725 18 c 0,12,13
890 246 m 1,24,25
 785 213 785 213 704 213 c 0,26,27
 580 213 580 213 508 279.5 c 128,-1,28
 436 346 436 346 436 462 c 0,29,30
 436 625 436 625 541 734.5 c 128,-1,31
 646 844 646 844 805 844 c 0,32,33
 896 844 896 844 1003 814 c 1,34,-1
 967 675 l 1,35,-1
 915 684 l 1,36,-1
 923 766 l 1,37,38
 854 798 854 798 792 798 c 0,39,40
 688 798 688 798 616 700 c 128,-1,41
 544 602 544 602 544 462 c 0,42,43
 544 271 544 271 722 271 c 0,44,45
 823 271 823 271 902 307 c 1,46,-1
 890 246 l 1,24,25
EndSplineSet
EndChar

StartChar: trademark
Encoding: 8482 8482 35
Width: 1333
Flags: W
LayerCount: 2
Fore
SplineSet
440 1021 m 1,0,-1
 307 1021 l 1,1,-1
 288 923 l 1,2,-1
 225 923 l 1,3,-1
 254 1066 l 1,4,-1
 751 1066 l 1,5,-1
 723 923 l 1,6,-1
 661 923 l 1,7,-1
 679 1021 l 1,8,-1
 546 1021 l 1,9,-1
 456 569 l 1,10,-1
 554 569 l 1,11,-1
 545 524 l 1,12,-1
 243 524 l 1,13,-1
 253 569 l 1,14,-1
 350 569 l 1,15,-1
 440 1021 l 1,0,-1
1011 569 m 1,16,-1
 942 956 l 1,17,-1
 857 524 l 1,18,-1
 688 524 l 1,19,-1
 697 569 l 1,20,-1
 794 569 l 1,21,-1
 884 1021 l 1,22,-1
 787 1021 l 1,23,-1
 796 1066 l 1,24,-1
 1036 1066 l 1,25,-1
 1092 747 l 1,26,-1
 1265 1066 l 1,27,-1
 1481 1066 l 1,28,-1
 1473 1021 l 1,29,-1
 1375 1021 l 1,30,-1
 1285 569 l 1,31,-1
 1383 569 l 1,32,-1
 1373 524 l 1,33,-1
 1178 524 l 1,34,-1
 1270 985 l 1,35,-1
 1041 569 l 1,36,-1
 1011 569 l 1,16,-1
EndSplineSet
EndChar

StartChar: logicalnot
Encoding: 172 172 39
Width: 932
Flags: W
LayerCount: 2
Fore
SplineSet
177 510 m 1,0,-1
 193 590 l 1,1,-1
 975 590 l 1,2,-1
 906 248 l 1,3,-1
 814 248 l 1,4,-1
 866 510 l 1,5,-1
 177 510 l 1,0,-1
EndSplineSet
EndChar

StartChar: florin
Encoding: 402 402 40
Width: 679
Flags: W
LayerCount: 2
Fore
SplineSet
158 -231 m 1,0,-1
 210 -18 l 1,1,-1
 286 364 l 1,2,-1
 108 364 l 1,3,-1
 117 409 l 1,4,-1
 294 409 l 1,5,-1
 298 427 l 2,6,7
 330 586 330 586 463 692.5 c 128,-1,8
 596 799 596 799 761 799 c 0,9,10
 818 799 818 799 860 784 c 1,11,-1
 764 678 l 1,12,13
 712 729 712 729 643 729 c 0,14,15
 500 729 500 729 457 512 c 2,16,-1
 436 409 l 1,17,-1
 623 409 l 1,18,-1
 614 364 l 1,19,-1
 427 364 l 1,20,-1
 313 -213 l 1,21,-1
 158 -231 l 1,0,-1
EndSplineSet
EndChar

StartChar: ellipsis
Encoding: 8230 8230 41
Width: 1827
Flags: W
LayerCount: 2
Fore
SplineSet
758 113 m 0,0,1
 758 144 758 144 809.5 245.5 c 128,-1,2
 861 347 861 347 876 355 c 0,3,4
 907 369 907 369 964.5 307.5 c 128,-1,5
 1022 246 1022 246 1026 211 c 1,6,7
 1026 166 1026 166 977.5 79.5 c 128,-1,8
 929 -7 929 -7 908 -7 c 0,9,10
 899 -7 899 -7 851 26.5 c 128,-1,11
 803 60 803 60 778 79 c 0,12,13
 758 96 758 96 758 113 c 0,0,1
1308 113 m 0,14,15
 1308 144 1308 144 1359 245.5 c 128,-1,16
 1410 347 1410 347 1426 355 c 0,17,18
 1457 369 1457 369 1514.5 307.5 c 128,-1,19
 1572 246 1572 246 1575 211 c 0,20,21
 1575 166 1575 166 1527 79.5 c 128,-1,22
 1479 -7 1479 -7 1458 -7 c 0,23,24
 1449 -7 1449 -7 1401 26.5 c 128,-1,25
 1353 60 1353 60 1328 79 c 0,26,27
 1308 96 1308 96 1308 113 c 0,14,15
211 113 m 0,28,29
 211 144 211 144 262 245.5 c 128,-1,30
 313 347 313 347 329 355 c 0,31,32
 360 369 360 369 417.5 307.5 c 128,-1,33
 475 246 475 246 478 211 c 0,34,35
 478 166 478 166 430 79.5 c 128,-1,36
 382 -7 382 -7 361 -7 c 0,37,38
 352 -7 352 -7 304 26.5 c 128,-1,39
 256 60 256 60 231 79 c 0,40,41
 211 96 211 96 211 113 c 0,28,29
EndSplineSet
EndChar

StartChar: endash
Encoding: 8211 8211 42
Width: 434
Flags: W
LayerCount: 2
Fore
SplineSet
434 154 m 1,0,-1
 0 154 l 1,1,-1
 0 234 l 1,2,-1
 434 234 l 1,3,-1
 434 154 l 1,0,-1
EndSplineSet
EndChar

StartChar: emdash
Encoding: 8212 8212 43
Width: 1862
Flags: W
LayerCount: 2
Fore
SplineSet
1866 572 m 1,0,-1
 -4 572 l 1,1,-1
 -4 732 l 1,2,-1
 1866 732 l 1,3,-1
 1866 572 l 1,0,-1
EndSplineSet
EndChar

StartChar: quotedblleft
Encoding: 8220 8220 44
Width: 797
Flags: W
LayerCount: 2
Fore
SplineSet
418 1204 m 0,0,1
 422 1296 422 1296 483.5 1385.5 c 128,-1,2
 545 1475 545 1475 621 1511 c 1,3,-1
 664 1427 l 1,4,5
 643 1415 643 1415 612.5 1381.5 c 128,-1,6
 582 1348 582 1348 565 1296 c 1,7,8
 657 1255 657 1255 655 1180 c 0,9,10
 655 1157 655 1157 646 1136 c 128,-1,11
 637 1115 637 1115 621 1099 c 128,-1,12
 605 1083 605 1083 584.5 1074 c 128,-1,13
 564 1065 564 1065 541 1065 c 0,14,15
 512 1065 512 1065 489.5 1077.5 c 128,-1,16
 467 1090 467 1090 451 1109.5 c 128,-1,17
 435 1129 435 1129 426.5 1154 c 128,-1,18
 418 1179 418 1179 418 1204 c 0,0,1
111 1204 m 0,19,20
 115 1296 115 1296 176.5 1385.5 c 128,-1,21
 238 1475 238 1475 313 1511 c 1,22,-1
 356 1427 l 1,23,24
 336 1415 336 1415 305 1381.5 c 128,-1,25
 274 1348 274 1348 258 1296 c 1,26,27
 350 1255 350 1255 348 1180 c 0,28,29
 348 1157 348 1157 338.5 1136 c 128,-1,30
 329 1115 329 1115 313.5 1099 c 128,-1,31
 298 1083 298 1083 277 1074 c 128,-1,32
 256 1065 256 1065 233 1065 c 0,33,34
 205 1065 205 1065 182.5 1077.5 c 128,-1,35
 160 1090 160 1090 144 1109.5 c 128,-1,36
 128 1129 128 1129 119.5 1154 c 128,-1,37
 111 1179 111 1179 111 1204 c 0,19,20
EndSplineSet
EndChar

StartChar: quotedblright
Encoding: 8221 8221 45
Width: 750
Flags: W
LayerCount: 2
Fore
SplineSet
356 1376 m 0,0,1
 354 1284 354 1284 292.5 1195 c 128,-1,2
 231 1106 231 1106 154 1069 c 1,3,-1
 111 1151 l 1,4,5
 133 1163 133 1163 164 1197 c 128,-1,6
 195 1231 195 1231 209 1284 c 1,7,8
 117 1323 117 1323 121 1401 c 0,9,10
 121 1424 121 1424 130 1444.5 c 128,-1,11
 139 1465 139 1465 154 1480 c 128,-1,12
 169 1495 169 1495 189.5 1504 c 128,-1,13
 210 1513 210 1513 233 1513 c 0,14,15
 262 1513 262 1513 285 1501 c 128,-1,16
 308 1489 308 1489 323.5 1470 c 128,-1,17
 339 1451 339 1451 347.5 1426 c 128,-1,18
 356 1401 356 1401 356 1376 c 0,0,1
664 1376 m 0,19,20
 662 1284 662 1284 600.5 1195 c 128,-1,21
 539 1106 539 1106 461 1069 c 1,22,-1
 418 1151 l 1,23,24
 440 1163 440 1163 471 1197 c 128,-1,25
 502 1231 502 1231 516 1284 c 1,26,27
 424 1323 424 1323 428 1401 c 0,28,29
 428 1424 428 1424 437 1444.5 c 128,-1,30
 446 1465 446 1465 461.5 1480 c 128,-1,31
 477 1495 477 1495 497.5 1504 c 128,-1,32
 518 1513 518 1513 541 1513 c 0,33,34
 570 1513 570 1513 593 1501 c 128,-1,35
 616 1489 616 1489 631.5 1470 c 128,-1,36
 647 1451 647 1451 655.5 1426 c 128,-1,37
 664 1401 664 1401 664 1376 c 0,19,20
EndSplineSet
EndChar

StartChar: divide
Encoding: 247 247 46
Width: 1093
Flags: W
LayerCount: 2
Fore
SplineSet
933 512 m 1,0,-1
 157 512 l 1,1,-1
 157 668 l 1,2,-1
 933 668 l 1,3,-1
 933 512 l 1,0,-1
423 903 m 256,4,5
 423 930 423 930 433 954 c 128,-1,6
 443 978 443 978 461 995.5 c 128,-1,7
 479 1013 479 1013 502.5 1023.5 c 128,-1,8
 526 1034 526 1034 553 1034 c 256,9,10
 580 1034 580 1034 604 1023.5 c 128,-1,11
 628 1013 628 1013 645.5 995.5 c 128,-1,12
 663 978 663 978 673.5 954 c 128,-1,13
 684 930 684 930 684 903 c 256,14,15
 684 876 684 876 673.5 852.5 c 128,-1,16
 663 829 663 829 645.5 811 c 128,-1,17
 628 793 628 793 604 783 c 128,-1,18
 580 773 580 773 553 773 c 256,19,20
 526 773 526 773 502.5 783 c 128,-1,21
 479 793 479 793 461 811 c 128,-1,22
 443 829 443 829 433 852.5 c 128,-1,23
 423 876 423 876 423 903 c 256,4,5
423 273 m 256,24,25
 423 300 423 300 433 324 c 128,-1,26
 443 348 443 348 461 365.5 c 128,-1,27
 479 383 479 383 502.5 393.5 c 128,-1,28
 526 404 526 404 553 404 c 256,29,30
 580 404 580 404 604 393.5 c 128,-1,31
 628 383 628 383 645.5 365.5 c 128,-1,32
 663 348 663 348 673.5 324 c 128,-1,33
 684 300 684 300 684 273 c 256,34,35
 684 246 684 246 673.5 222.5 c 128,-1,36
 663 199 663 199 645.5 181 c 128,-1,37
 628 163 628 163 604 153 c 128,-1,38
 580 143 580 143 553 143 c 256,39,40
 526 143 526 143 502.5 153 c 128,-1,41
 479 163 479 163 461 181 c 128,-1,42
 443 199 443 199 433 222.5 c 128,-1,43
 423 246 423 246 423 273 c 256,24,25
EndSplineSet
EndChar

StartChar: lozenge
Encoding: 9674 9674 47
Width: 1118
Flags: W
LayerCount: 2
Fore
SplineSet
1003 699 m 1,0,-1
 560 197 l 1,1,-1
 117 699 l 1,2,-1
 560 1202 l 1,3,-1
 1003 699 l 1,0,-1
848 699 m 1,4,-1
 560 1036 l 1,5,-1
 271 699 l 1,6,-1
 560 364 l 1,7,-1
 848 699 l 1,4,-1
EndSplineSet
EndChar

StartChar: fraction
Encoding: 8260 8260 48
Width: 742
Flags: W
LayerCount: 2
Fore
SplineSet
740 1101 m 1,0,-1
 101 -82 l 1,1,-1
 -9 -82 l 1,2,-1
 629 1101 l 1,3,-1
 740 1101 l 1,0,-1
EndSplineSet
EndChar

StartChar: guilsinglleft
Encoding: 8249 8249 49
Width: 1117
Flags: W
LayerCount: 2
Fore
SplineSet
955 58 m 1,0,-1
 150 444 l 1,1,-1
 150 534 l 1,2,-1
 955 918 l 1,3,-1
 955 784 l 1,4,-1
 331 489 l 1,5,-1
 955 192 l 1,6,-1
 955 58 l 1,0,-1
EndSplineSet
EndChar

StartChar: daggerdbl
Encoding: 8225 8225 52
Width: 932
Flags: W
LayerCount: 2
Fore
SplineSet
349 -231 m 1,0,-1
 481 185 l 1,1,-1
 161 154 l 1,2,-1
 211 261 l 1,3,-1
 490 229 l 1,4,-1
 567 616 l 1,5,-1
 247 586 l 1,6,-1
 297 693 l 1,7,-1
 575 661 l 1,8,-1
 608 1066 l 1,9,-1
 758 1093 l 1,10,-1
 620 661 l 1,11,-1
 940 693 l 1,12,-1
 889 586 l 1,13,-1
 611 616 l 1,14,-1
 535 229 l 1,15,-1
 855 261 l 1,16,-1
 804 154 l 1,17,-1
 525 185 l 1,18,-1
 499 -213 l 1,19,-1
 349 -231 l 1,0,-1
EndSplineSet
EndChar

StartChar: middot.001
Encoding: 8729 8729 53
Width: 620
Flags: W
LayerCount: 2
Fore
SplineSet
429 516 m 1,0,-1
 190 516 l 1,1,-1
 190 789 l 1,2,-1
 429 789 l 1,3,-1
 429 516 l 1,0,-1
EndSplineSet
EndChar

StartChar: quotesinglbase
Encoding: 8218 8218 54
Width: 418
Flags: W
LayerCount: 2
Fore
SplineSet
103 128 m 1,0,-1
 247 231 l 1,1,-1
 353 90 l 1,2,3
 345 -56 345 -56 262.5 -134.5 c 128,-1,4
 180 -213 180 -213 36 -213 c 1,5,-1
 76 -168 l 1,6,7
 189 -158 189 -158 211 -18 c 1,8,-1
 103 128 l 1,0,-1
EndSplineSet
EndChar

StartChar: quotedblbase
Encoding: 8222 8222 55
Width: 684
Flags: W
LayerCount: 2
Fore
SplineSet
91 92 m 1,0,-1
 204 178 l 1,1,-1
 292 64 l 1,2,3
 270 -213 270 -213 31 -213 c 1,4,-1
 60 -168 l 1,5,6
 166 -148 166 -148 179 -16 c 1,7,-1
 91 92 l 1,0,-1
401 92 m 1,8,-1
 516 178 l 1,9,-1
 602 64 l 1,10,11
 581 -213 581 -213 341 -213 c 1,12,-1
 372 -168 l 1,13,14
 476 -148 476 -148 490 -16 c 1,15,-1
 401 92 l 1,8,-1
EndSplineSet
EndChar

StartChar: perthousand
Encoding: 8240 8240 56
Width: 1571
Flags: W
LayerCount: 2
Fore
SplineSet
385 533 m 0,0,1
 304 533 304 533 254.5 584.5 c 128,-1,2
 205 636 205 636 205 722 c 0,3,4
 205 865 205 865 286.5 965.5 c 128,-1,5
 368 1066 368 1066 483 1066 c 0,6,7
 567 1066 567 1066 617.5 1014.5 c 128,-1,8
 668 963 668 963 668 877 c 0,9,10
 668 733 668 733 585.5 633 c 128,-1,11
 503 533 503 533 385 533 c 0,0,1
311 715 m 0,12,13
 311 578 311 578 398 578 c 0,14,15
 463 578 463 578 517 671.5 c 128,-1,16
 571 765 571 765 571 881 c 0,17,18
 571 1022 571 1022 483 1022 c 0,19,20
 416 1022 416 1022 363.5 928 c 128,-1,21
 311 834 311 834 311 715 c 0,12,13
850 0 m 0,22,23
 769 0 769 0 719.5 51.5 c 128,-1,24
 670 103 670 103 670 189 c 0,25,26
 670 331 670 331 751 432 c 128,-1,27
 832 533 832 533 947 533 c 0,28,29
 1031 533 1031 533 1081.5 481.5 c 128,-1,30
 1132 430 1132 430 1132 344 c 0,31,32
 1132 200 1132 200 1049.5 100 c 128,-1,33
 967 0 967 0 850 0 c 0,22,23
776 182 m 0,34,35
 776 44 776 44 862 44 c 0,36,37
 929 44 929 44 982 138 c 128,-1,38
 1035 232 1035 232 1035 348 c 0,39,40
 1035 490 1035 490 948 490 c 0,41,42
 880 490 880 490 828 395.5 c 128,-1,43
 776 301 776 301 776 182 c 0,34,35
131 -27 m 1,44,-1
 1111 1093 l 1,45,-1
 1206 1093 l 1,46,-1
 225 -27 l 1,47,-1
 131 -27 l 1,44,-1
1376 0 m 0,48,49
 1294 0 1294 0 1244.5 51.5 c 128,-1,50
 1195 103 1195 103 1195 189 c 0,51,52
 1195 331 1195 331 1276.5 432 c 128,-1,53
 1358 533 1358 533 1473 533 c 0,54,55
 1557 533 1557 533 1607.5 481.5 c 128,-1,56
 1658 430 1658 430 1658 344 c 0,57,58
 1658 200 1658 200 1575.5 100 c 128,-1,59
 1493 0 1493 0 1376 0 c 0,48,49
1301 183 m 0,60,61
 1301 44 1301 44 1389 44 c 0,62,63
 1453 44 1453 44 1507 138 c 128,-1,64
 1561 232 1561 232 1561 347 c 0,65,66
 1561 490 1561 490 1473 490 c 0,67,68
 1406 490 1406 490 1353.5 395.5 c 128,-1,69
 1301 301 1301 301 1301 183 c 0,60,61
EndSplineSet
EndChar

StartChar: multiply
Encoding: 215 215 60
Width: 1159
Flags: W
LayerCount: 2
Fore
SplineSet
978 281 m 1,0,-1
 870 170 l 1,1,-1
 627 414 l 1,2,-1
 367 151 l 1,3,-1
 259 260 l 1,4,-1
 521 520 l 1,5,-1
 269 772 l 1,6,-1
 377 883 l 1,7,-1
 627 629 l 1,8,-1
 870 871 l 1,9,-1
 978 762 l 1,10,-1
 734 522 l 1,11,-1
 978 281 l 1,0,-1
EndSplineSet
EndChar

StartChar: macron
Encoding: 175 175 61
Width: 1118
Flags: W
LayerCount: 2
Fore
SplineSet
1134 1259 m 1,0,-1
 -16 1259 l 1,1,-1
 -16 1389 l 1,2,-1
 1134 1389 l 1,3,-1
 1134 1259 l 1,0,-1
EndSplineSet
EndChar

StartChar: periodcentered
Encoding: 183 183 62
Width: 724
Flags: W
LayerCount: 2
Fore
SplineSet
482 832 m 1,0,-1
 243 832 l 1,1,-1
 243 1117 l 1,2,-1
 482 1117 l 1,3,-1
 482 832 l 1,0,-1
EndSplineSet
EndChar

StartChar: H22073
Encoding: 9633 9633 63
Width: 1237
Flags: W
LayerCount: 2
Fore
SplineSet
146 944 m 1,0,-1
 1090 944 l 1,1,-1
 1090 0 l 1,2,-1
 146 0 l 1,3,-1
 146 944 l 1,0,-1
222 868 m 1,4,-1
 222 76 l 1,5,-1
 1014 76 l 1,6,-1
 1014 868 l 1,7,-1
 222 868 l 1,4,-1
EndSplineSet
EndChar

StartChar: H18543
Encoding: 9642 9642 64
Width: 1089
Flags: W
LayerCount: 2
Fore
SplineSet
886 894 m 1,0,-1
 886 200 l 1,1,-1
 192 200 l 1,2,-1
 192 894 l 1,3,-1
 886 894 l 1,0,-1
EndSplineSet
EndChar

StartChar: H18551
Encoding: 9643 9643 65
Width: 1089
Flags: W
LayerCount: 2
Fore
SplineSet
888 930 m 1,0,-1
 888 235 l 1,1,-1
 193 235 l 1,2,-1
 193 930 l 1,3,-1
 888 930 l 1,0,-1
774 816 m 1,4,-1
 307 816 l 1,5,-1
 307 349 l 1,6,-1
 774 349 l 1,7,-1
 774 816 l 1,4,-1
EndSplineSet
EndChar

StartChar: H18533
Encoding: 9679 9679 66
Width: 1339
Flags: W
LayerCount: 2
Fore
SplineSet
204 775 m 0,0,1
 204 976 204 976 345 1117 c 128,-1,2
 486 1258 486 1258 685 1258 c 0,3,4
 885 1258 885 1258 1026 1117 c 128,-1,5
 1167 976 1167 976 1167 775 c 0,6,7
 1167 577 1167 577 1026 436 c 128,-1,8
 885 295 885 295 685 295 c 0,9,10
 486 295 486 295 345 436 c 128,-1,11
 204 577 204 577 204 775 c 0,0,1
EndSplineSet
EndChar

StartChar: openbullet
Encoding: 9702 9702 67
Width: 1089
Flags: W
LayerCount: 2
Fore
SplineSet
544 1392 m 0,0,1
 700 1392 700 1392 810.5 1281.5 c 128,-1,2
 921 1171 921 1171 921 1015 c 256,3,4
 921 859 921 859 810.5 749 c 128,-1,5
 700 639 700 639 544 639 c 256,6,7
 388 639 388 639 278 749 c 128,-1,8
 168 859 168 859 168 1015 c 256,9,10
 168 1171 168 1171 277.5 1281.5 c 128,-1,11
 387 1392 387 1392 544 1392 c 0,0,1
544 1278 m 0,12,13
 435 1278 435 1278 358.5 1200.5 c 128,-1,14
 282 1123 282 1123 282 1015 c 0,15,16
 282 906 282 906 359 829.5 c 128,-1,17
 436 753 436 753 544 753 c 256,18,19
 652 753 652 753 729.5 829.5 c 128,-1,20
 807 906 807 906 807 1015 c 0,21,22
 807 1123 807 1123 730.5 1200.5 c 128,-1,23
 654 1278 654 1278 544 1278 c 0,12,13
EndSplineSet
EndChar

StartChar: uniFFFC
Encoding: 65532 65532 68
Width: 2048
Flags: W
LayerCount: 2
Fore
SplineSet
2048 1150 m 1,0,-1
 1948 1150 l 1,1,-1
 1948 1373 l 1,2,-1
 1725 1373 l 1,3,-1
 1725 1473 l 1,4,-1
 2048 1473 l 1,5,-1
 2048 1150 l 1,0,-1
1473 1373 m 1,6,-1
 1150 1373 l 1,7,-1
 1150 1473 l 1,8,-1
 1473 1473 l 1,9,-1
 1473 1373 l 1,6,-1
2048 575 m 1,10,-1
 1948 575 l 1,11,-1
 1948 898 l 1,12,-1
 2048 898 l 1,13,-1
 2048 575 l 1,10,-1
1782 611 m 2,14,15
 1782 370 1782 370 1571 370 c 0,16,17
 1485 370 1485 370 1433 415 c 1,18,-1
 1506 494 l 1,19,20
 1531 468 1531 468 1571 468 c 0,21,22
 1666 468 1666 468 1666 606 c 2,23,-1
 1666 1090 l 1,24,-1
 1782 1090 l 1,25,-1
 1782 611 l 2,14,15
898 1373 m 1,26,-1
 575 1373 l 1,27,-1
 575 1473 l 1,28,-1
 898 1473 l 1,29,-1
 898 1373 l 1,26,-1
2048 0 m 1,30,-1
 1725 0 l 1,31,-1
 1725 100 l 1,32,-1
 1948 100 l 1,33,-1
 1948 323 l 1,34,-1
 2048 323 l 1,35,-1
 2048 0 l 1,30,-1
1423 591 m 0,36,37
 1423 382 1423 382 1149 382 c 2,38,-1
 909 382 l 1,39,-1
 909 1090 l 1,40,-1
 1144 1090 l 2,41,42
 1393 1090 1393 1090 1393 904 c 0,43,44
 1393 813 1393 813 1304 759 c 1,45,46
 1423 713 1423 713 1423 591 c 0,36,37
323 1373 m 1,47,-1
 100 1373 l 1,48,-1
 100 1150 l 1,49,-1
 0 1150 l 1,50,-1
 0 1473 l 1,51,-1
 323 1473 l 1,52,-1
 323 1373 l 1,47,-1
1473 0 m 1,53,-1
 1150 0 l 1,54,-1
 1150 100 l 1,55,-1
 1473 100 l 1,56,-1
 1473 0 l 1,53,-1
854 735 m 0,57,58
 854 562 854 562 772 466 c 128,-1,59
 690 370 690 370 537 370 c 256,60,61
 384 370 384 370 303.5 466 c 128,-1,62
 223 562 223 562 223 735 c 0,63,64
 223 910 223 910 303.5 1006 c 128,-1,65
 384 1102 384 1102 537 1102 c 256,66,67
 690 1102 690 1102 772 1006 c 128,-1,68
 854 910 854 910 854 735 c 0,57,58
100 575 m 1,69,-1
 0 575 l 1,70,-1
 0 898 l 1,71,-1
 100 898 l 1,72,-1
 100 575 l 1,69,-1
898 0 m 1,73,-1
 575 0 l 1,74,-1
 575 100 l 1,75,-1
 898 100 l 1,76,-1
 898 0 l 1,73,-1
323 0 m 1,77,-1
 0 0 l 1,78,-1
 0 323 l 1,79,-1
 100 323 l 1,80,-1
 100 100 l 1,81,-1
 323 100 l 1,82,-1
 323 0 l 1,77,-1
1277 893 m 0,83,84
 1277 992 1277 992 1114 992 c 2,85,-1
 1025 992 l 1,86,-1
 1025 798 l 1,87,-1
 1126 798 l 2,88,89
 1277 798 1277 798 1277 893 c 0,83,84
1307 591 m 0,90,91
 1307 700 1307 700 1136 700 c 2,92,-1
 1025 700 l 1,93,-1
 1025 480 l 1,94,-1
 1149 480 l 2,95,96
 1307 480 1307 480 1307 591 c 0,90,91
738 735 m 0,97,98
 738 1004 738 1004 537 1004 c 0,99,100
 339 1004 339 1004 339 735 c 0,101,102
 339 468 339 468 537 468 c 0,103,104
 738 468 738 468 738 735 c 0,97,98
EndSplineSet
EndChar

StartChar: zerowidthnonjoiner
Encoding: 8204 8204 88
Width: 0
GlyphClass: 2
Flags: W
LayerCount: 2
Fore
SplineSet
36 1289 m 1,0,-1
 36 -275 l 1,1,-1
 -36 -275 l 1,2,-1
 -36 1289 l 1,3,-1
 36 1289 l 1,0,-1
EndSplineSet
EndChar

StartChar: zerowidthjoiner
Encoding: 8205 8205 89
Width: 0
GlyphClass: 2
Flags: W
LayerCount: 2
Fore
SplineSet
36 -275 m 1,0,-1
 -36 -275 l 1,1,-1
 -36 1114 l 1,2,-1
 -170 978 l 1,3,-1
 -219 1027 l 1,4,-1
 -48 1196 l 1,5,-1
 -219 1364 l 1,6,-1
 -170 1413 l 1,7,-1
 0 1242 l 1,8,-1
 170 1413 l 1,9,-1
 219 1364 l 1,10,-1
 48 1196 l 1,11,-1
 219 1027 l 1,12,-1
 170 978 l 1,13,-1
 36 1114 l 1,14,-1
 36 -275 l 1,0,-1
EndSplineSet
EndChar

StartChar: lefttorightmark
Encoding: 8206 8206 90
Width: 0
GlyphClass: 2
Flags: W
LayerCount: 2
Fore
SplineSet
430 1198 m 1,0,-1
 213 984 l 1,1,-1
 164 1033 l 1,2,-1
 301 1163 l 1,3,-1
 35 1163 l 1,4,-1
 35 -275 l 1,5,-1
 -36 -275 l 1,6,-1
 -36 1234 l 1,7,-1
 301 1234 l 1,8,-1
 164 1364 l 1,9,-1
 213 1413 l 1,10,-1
 430 1198 l 1,0,-1
EndSplineSet
EndChar

StartChar: righttoleftmark
Encoding: 8207 8207 91
Width: 0
GlyphClass: 2
Flags: W
LayerCount: 2
Fore
SplineSet
35 -275 m 1,0,-1
 -36 -275 l 1,1,-1
 -36 1163 l 1,2,-1
 -302 1163 l 1,3,-1
 -165 1033 l 1,4,-1
 -214 984 l 1,5,-1
 -431 1198 l 1,6,-1
 -214 1413 l 1,7,-1
 -165 1364 l 1,8,-1
 -302 1234 l 1,9,-1
 35 1234 l 1,10,-1
 35 -275 l 1,0,-1
EndSplineSet
EndChar

StartChar: afii57388.001
Encoding: 1644 1644 92
Width: 353
GlyphClass: 2
Flags: W
LayerCount: 2
Fore
SplineSet
210 654 m 0,0,1
 200 627 200 627 185 603 c 0,2,3
 180 597 180 597 173.5 593.5 c 128,-1,4
 167 590 167 590 162 590 c 128,-1,5
 157 590 157 590 154.5 593 c 128,-1,6
 152 596 152 596 155 603 c 0,7,8
 187 660 187 660 202.5 713.5 c 128,-1,9
 218 767 218 767 218 800 c 1,10,11
 194 806 194 806 179 816 c 128,-1,12
 164 826 164 826 155 837.5 c 128,-1,13
 146 849 146 849 143 859 c 128,-1,14
 140 869 140 869 140 874 c 0,15,16
 140 890 140 890 145.5 907 c 128,-1,17
 151 924 151 924 160.5 937.5 c 128,-1,18
 170 951 170 951 183.5 959.5 c 128,-1,19
 197 968 197 968 213 968 c 0,20,21
 272 968 272 968 272 874 c 0,22,23
 272 859 272 859 268 835 c 128,-1,24
 264 811 264 811 256 781.5 c 128,-1,25
 248 752 248 752 236.5 719.5 c 128,-1,26
 225 687 225 687 210 654 c 0,0,1
EndSplineSet
EndChar

StartChar: afii57409
Encoding: 1569 1569 93
Width: 889
GlyphClass: 2
Flags: W
AnchorPoint: "Anchor-1" 465 -345 basechar 0
AnchorPoint: "Anchor-0" 525 720 basechar 0
LayerCount: 2
Fore
SplineSet
341 140 m 0,0,1
 367 157 367 157 396 177 c 1,2,3
 339 234 339 234 306 272 c 128,-1,4
 273 310 273 310 273 327 c 0,5,6
 273 368 273 368 297.5 412 c 128,-1,7
 322 456 322 456 379 497 c 1,8,9
 482 585 482 585 574 585 c 0,10,11
 712 585 712 585 739 489 c 1,12,-1
 739 453 l 1,13,-1
 531 453 l 2,14,15
 410 453 410 453 410 410 c 0,16,17
 410 393 410 393 430.5 370 c 128,-1,18
 451 347 451 347 477 327 c 128,-1,19
 503 307 503 307 530.5 294 c 128,-1,20
 558 281 558 281 574 281 c 0,21,22
 589 281 589 281 636.5 297 c 128,-1,23
 684 313 684 313 791 341 c 0,24,25
 810 347 810 347 810 324 c 2,26,-1
 808 307 l 1,27,-1
 758 220 l 2,28,29
 758 215 758 215 745.5 203.5 c 128,-1,30
 733 192 733 192 718 187 c 0,31,32
 635 163 635 163 491 99.5 c 128,-1,33
 347 36 347 36 240 -24 c 1,34,35
 215 -24 215 -24 215 1 c 0,36,37
 215 34 215 34 261 77 c 0,38,39
 292 105 292 105 341 140 c 0,0,1
EndSplineSet
EndChar

StartChar: afii57440
Encoding: 1600 1600 94
Width: 344
GlyphClass: 2
Flags: W
LayerCount: 2
Fore
SplineSet
-45 0 m 1,0,-1
 -45 440 l 1,1,-1
 371 440 l 1,2,-1
 371 0 l 1,3,-1
 -45 0 l 1,0,-1
EndSplineSet
EndChar

StartChar: afii57453
Encoding: 1613 1613 95
Width: 0
GlyphClass: 4
Flags: W
AnchorPoint: "Anchor-3" 0 0 mark 0
AnchorPoint: "Anchor-1" 0 0 mark 0
LayerCount: 2
Fore
SplineSet
209 332 m 1,0,-1
 209 220 l 1,1,-1
 -215 3 l 1,2,-1
 -215 116 l 1,3,-1
 209 332 l 1,0,-1
209 126 m 1,4,-1
 209 14 l 1,5,-1
 -215 -203 l 1,6,-1
 -215 -89 l 1,7,-1
 209 126 l 1,4,-1
EndSplineSet
EndChar

StartChar: afii57381
Encoding: 1642 1642 96
Width: 1511
GlyphClass: 2
Flags: W
LayerCount: 2
Fore
SplineSet
395 6 m 1,0,-1
 158 6 l 1,1,-1
 1153 1475 l 1,2,-1
 1380 1475 l 1,3,-1
 395 6 l 1,0,-1
1389 207 m 0,4,5
 1389 201 1389 201 1286 92 c 1,6,7
 1192 0 1192 0 1178 0 c 0,8,9
 1169 0 1169 0 1067 100 c 0,10,11
 967 195 967 195 967 215 c 1,12,13
 971 219 971 219 973 224 c 128,-1,14
 975 229 975 229 977 229 c 2,15,-1
 1104 356 l 2,16,17
 1118 373 1118 373 1130.5 388 c 128,-1,18
 1143 403 1143 403 1159 416 c 2,19,-1
 1178 430 l 1,20,21
 1188 428 1188 428 1286 324 c 0,22,23
 1376 233 1376 233 1389 207 c 0,4,5
573 1231 m 0,24,25
 573 1225 573 1225 471 1116 c 1,26,27
 377 1024 377 1024 362 1024 c 0,28,29
 354 1024 354 1024 252 1124 c 0,30,31
 152 1219 152 1219 152 1239 c 1,32,33
 156 1243 156 1243 158 1248 c 128,-1,34
 160 1253 160 1253 162 1253 c 2,35,-1
 289 1380 l 2,36,37
 303 1397 303 1397 315.5 1412 c 128,-1,38
 328 1427 328 1427 344 1440 c 2,39,-1
 362 1454 l 1,40,41
 373 1452 373 1452 471 1348 c 0,42,43
 561 1257 561 1257 573 1231 c 0,24,25
EndSplineSet
EndChar

StartChar: afii57461
Encoding: 1643 1643 97
Width: 1178
GlyphClass: 2
Flags: W
LayerCount: 2
Fore
SplineSet
1123 722 m 1,0,-1
 301 -765 l 1,1,-1
 80 -765 l 1,2,-1
 891 722 l 1,3,-1
 1123 722 l 1,0,-1
EndSplineSet
EndChar

StartChar: afii63167
Encoding: 1645 1645 98
Width: 1118
GlyphClass: 2
Flags: W
LayerCount: 2
Fore
SplineSet
694 729 m 1,0,-1
 1057 733 l 1,1,-1
 1057 610 l 1,2,-1
 702 612 l 1,3,-1
 971 352 l 1,4,-1
 883 264 l 1,5,-1
 616 539 l 1,6,-1
 623 168 l 1,7,-1
 498 168 l 1,8,-1
 502 539 l 1,9,-1
 236 264 l 1,10,-1
 147 352 l 1,11,-1
 422 614 l 1,12,-1
 63 610 l 1,13,-1
 63 733 l 1,14,-1
 420 729 l 1,15,-1
 170 975 l 1,16,-1
 258 1065 l 1,17,-1
 502 817 l 1,18,-1
 498 1176 l 1,19,-1
 623 1176 l 1,20,-1
 616 813 l 1,21,-1
 860 1065 l 1,22,-1
 948 975 l 1,23,-1
 694 729 l 1,0,-1
EndSplineSet
EndChar

StartChar: afii57459
Encoding: 65543 -1 99
Width: 691
GlyphClass: 2
Flags: W
LayerCount: 2
Fore
SplineSet
653 606 m 0,0,1
 653 283 653 283 477 135 c 1,2,3
 387 70 387 70 263 35 c 128,-1,4
 139 0 139 0 -27 0 c 0,5,6
 -49 0 -49 0 -67.5 22.5 c 128,-1,7
 -86 45 -86 45 -98 98 c 0,8,9
 -104 123 -104 123 -109.5 152.5 c 128,-1,10
 -115 182 -115 182 -115 223 c 0,11,12
 -115 256 -115 256 -109.5 287.5 c 128,-1,13
 -104 319 -104 319 -98 354 c 0,14,15
 -88 395 -88 395 -74.5 418.5 c 128,-1,16
 -61 442 -61 442 -37 442 c 0,17,18
 -29 442 -29 442 -19.5 441 c 128,-1,19
 -10 440 -10 440 0 440 c 2,20,-1
 336 440 l 2,21,22
 532 440 532 440 532 494 c 0,23,24
 532 539 532 539 446 539 c 0,25,26
 362 539 362 539 300 547 c 128,-1,27
 238 555 238 555 201 573 c 0,28,29
 154 598 154 598 134.5 649 c 128,-1,30
 115 700 115 700 115 778 c 0,31,32
 115 797 115 797 117 821 c 0,33,34
 119 862 119 862 123 948 c 0,35,36
 135 1104 135 1104 191.5 1183 c 128,-1,37
 248 1262 248 1262 344 1262 c 0,38,39
 514 1262 514 1262 598 1008 c 0,40,41
 627 915 627 915 640 819 c 128,-1,42
 653 723 653 723 653 606 c 0,0,1
539 811 m 0,43,44
 539 866 539 866 446 948 c 1,45,46
 406 977 406 977 368 996.5 c 128,-1,47
 330 1016 330 1016 293 1016 c 0,48,49
 217 1016 217 1016 217 934 c 0,50,51
 217 862 217 862 344 825 c 1,52,53
 385 821 385 821 428 810 c 128,-1,54
 471 799 471 799 514 791 c 1,55,56
 539 791 539 791 539 811 c 0,43,44
EndSplineSet
EndChar

StartChar: afii57543
Encoding: 65544 -1 100
Width: 600
Flags: W
LayerCount: 2
Fore
SplineSet
674 223 m 0,0,1
 674 0 674 0 600 0 c 0,2,3
 387 0 387 0 303 244 c 1,4,5
 205 0 205 0 -27 0 c 0,6,7
 -68 0 -68 0 -88 88 c 0,8,9
 -106 152 -106 152 -106 211 c 0,10,11
 -106 375 -106 375 -63 418 c 1,12,13
 -49 420 -49 420 -33 424 c 0,14,15
 -18 428 -18 428 1 433 c 128,-1,16
 20 438 20 438 47 446 c 0,17,18
 92 461 92 461 129 494.5 c 128,-1,19
 166 528 166 528 199 592 c 0,20,21
 258 698 258 698 258 825 c 0,22,23
 258 864 258 864 303 864 c 0,24,25
 344 864 344 864 344 825 c 0,26,27
 344 756 344 756 356.5 693.5 c 128,-1,28
 369 631 369 631 397 580 c 1,29,30
 485 446 485 446 600 440 c 0,31,32
 635 438 635 438 654.5 382 c 128,-1,33
 674 326 674 326 674 223 c 0,0,1
EndSplineSet
EndChar

StartChar: afii57534
Encoding: 1749 1749 101
Width: 1047
GlyphClass: 2
Flags: W
LayerCount: 2
Fore
SplineSet
989 549 m 0,0,1
 989 432 989 432 966.5 338 c 128,-1,2
 944 244 944 244 895 170 c 0,3,4
 837 84 837 84 753 42 c 128,-1,5
 669 0 669 0 565 0 c 0,6,7
 385 0 385 0 282 82 c 0,8,9
 178 166 178 166 178 344 c 0,10,11
 178 393 178 393 186 449.5 c 128,-1,12
 194 506 194 506 221 565 c 0,13,14
 225 578 225 578 249.5 625 c 128,-1,15
 274 672 274 672 317 764 c 1,16,17
 258 784 258 784 258 821 c 0,18,19
 258 840 258 840 290 901 c 0,20,21
 307 940 307 940 366 1030 c 0,22,23
 378 1053 378 1053 391.5 1076.5 c 128,-1,24
 405 1100 405 1100 417 1118 c 0,25,26
 426 1135 426 1135 436 1141 c 128,-1,27
 446 1147 446 1147 456 1147 c 0,28,29
 473 1147 473 1147 491.5 1142 c 128,-1,30
 510 1137 510 1137 530 1120 c 1,31,32
 989 909 989 909 989 549 c 0,0,1
829 471 m 0,33,34
 829 586 829 586 413 733 c 1,35,36
 391 702 391 702 379.5 669.5 c 128,-1,37
 368 637 368 637 368 606 c 0,38,39
 368 551 368 551 393.5 510 c 128,-1,40
 419 469 419 469 467 440 c 0,41,42
 548 391 548 391 669 391 c 0,43,44
 753 391 753 391 791 410.5 c 128,-1,45
 829 430 829 430 829 471 c 0,33,34
EndSplineSet
EndChar

StartChar: afii64240
Encoding: 65546 -1 103
Width: 502
Flags: W
LayerCount: 2
Fore
SplineSet
77 168 m 2,0,1
 77 170 77 170 114 210 c 128,-1,2
 151 250 151 250 216 317 c 1,3,4
 222 317 222 317 226.5 318 c 128,-1,5
 231 319 231 319 241 319 c 0,6,7
 245 319 245 319 266.5 303.5 c 128,-1,8
 288 288 288 288 323 247 c 0,9,10
 357 207 357 207 376.5 188.5 c 128,-1,11
 396 170 396 170 398 168 c 0,12,13
 398 164 398 164 361.5 125 c 128,-1,14
 325 86 325 86 259 8 c 1,15,-1
 243 8 l 2,16,17
 231 8 231 8 196 41.5 c 128,-1,18
 161 75 161 75 77 153 c 1,19,-1
 77 168 l 2,0,1
EndSplineSet
EndChar

StartChar: afii64241
Encoding: 65547 -1 104
Width: 776
Flags: W
LayerCount: 2
Fore
SplineSet
696 144 m 2,0,1
 696 142 696 142 660 105 c 128,-1,2
 624 68 624 68 565 2 c 1,3,4
 558 2 558 2 554 1 c 128,-1,5
 550 0 550 0 538 0 c 0,6,7
 534 0 534 0 515.5 15.5 c 128,-1,8
 497 31 497 31 462 70 c 0,9,10
 431 103 431 103 415 119 c 1,11,12
 386 84 386 84 305 0 c 0,13,14
 300 0 300 0 299 -1 c 128,-1,15
 298 -2 298 -2 288 -2 c 1,16,17
 290 -2 290 -2 264.5 19.5 c 128,-1,18
 239 41 239 41 209.5 66.5 c 128,-1,19
 180 92 180 92 156 114.5 c 128,-1,20
 132 137 132 137 137 142 c 0,21,22
 137 146 137 146 171.5 182.5 c 128,-1,23
 206 219 206 219 272 293 c 1,24,-1
 284 293 l 2,25,26
 296 293 296 293 327 262 c 0,27,28
 354 234 354 234 413 174 c 1,29,30
 419 178 419 178 423 185 c 0,31,32
 458 221 458 221 522 295 c 1,33,-1
 538 295 l 2,34,35
 550 295 550 295 584 263.5 c 128,-1,36
 618 232 618 232 696 158 c 1,37,-1
 696 144 l 2,0,1
EndSplineSet
EndChar

StartChar: afii63954
Encoding: 65548 -1 105
Width: 754
Flags: W
LayerCount: 2
Fore
SplineSet
241 426 m 2,0,1
 241 428 241 428 277.5 468 c 128,-1,2
 314 508 314 508 380 575 c 1,3,4
 386 575 386 575 390 576 c 128,-1,5
 394 577 394 577 405 577 c 0,6,7
 409 577 409 577 430.5 561.5 c 128,-1,8
 452 546 452 546 487 506 c 0,9,10
 521 465 521 465 540.5 446.5 c 128,-1,11
 560 428 560 428 562 426 c 0,12,13
 562 422 562 422 525.5 383 c 128,-1,14
 489 344 489 344 423 266 c 1,15,-1
 407 266 l 2,16,17
 394 266 394 266 359.5 300 c 128,-1,18
 325 334 325 334 241 411 c 1,19,-1
 241 426 l 2,0,1
77 168 m 2,20,21
 77 170 77 170 114 210 c 128,-1,22
 151 250 151 250 216 317 c 1,23,24
 222 317 222 317 226.5 318 c 128,-1,25
 231 319 231 319 241 319 c 0,26,27
 245 319 245 319 266.5 303.5 c 128,-1,28
 288 288 288 288 323 247 c 0,29,30
 357 207 357 207 376.5 188.5 c 128,-1,31
 396 170 396 170 398 168 c 0,32,33
 398 164 398 164 361.5 125 c 128,-1,34
 325 86 325 86 259 8 c 1,35,-1
 243 8 l 2,36,37
 231 8 231 8 196 41.5 c 128,-1,38
 161 75 161 75 77 153 c 1,39,-1
 77 168 l 2,20,21
409 168 m 2,40,41
 409 170 409 170 443.5 210 c 128,-1,42
 478 250 478 250 546 317 c 0,43,44
 550 317 550 317 551 318 c 128,-1,45
 552 319 552 319 562 319 c 0,46,47
 566 319 566 319 587.5 303.5 c 128,-1,48
 609 288 609 288 648 247 c 0,49,50
 683 207 683 207 702 188 c 2,51,-1
 722 168 l 2,52,53
 722 164 722 164 686 125 c 128,-1,54
 650 86 650 86 581 8 c 1,55,-1
 566 8 l 2,56,57
 554 8 554 8 519 41 c 2,58,-1
 409 153 l 1,59,-1
 409 168 l 2,40,41
EndSplineSet
EndChar

StartChar: afii57382
Encoding: 65549 -1 106
Width: 794
Flags: W
LayerCount: 2
Fore
SplineSet
558 -422 m 2,0,1
 558 -424 558 -424 521.5 -464 c 128,-1,2
 485 -504 485 -504 419 -571 c 1,3,4
 413 -571 413 -571 409 -572 c 128,-1,5
 405 -573 405 -573 394 -573 c 0,6,7
 390 -573 390 -573 368.5 -557.5 c 128,-1,8
 347 -542 347 -542 312 -502 c 0,9,10
 278 -461 278 -461 258.5 -442.5 c 128,-1,11
 239 -424 239 -424 237 -422 c 0,12,13
 237 -418 237 -418 273.5 -379 c 128,-1,14
 310 -340 310 -340 376 -262 c 1,15,-1
 392 -262 l 2,16,17
 405 -262 405 -262 439.5 -296 c 128,-1,18
 474 -330 474 -330 558 -407 c 1,19,-1
 558 -422 l 2,0,1
722 -164 m 2,20,21
 722 -166 722 -166 685 -206 c 128,-1,22
 648 -246 648 -246 583 -313 c 1,23,24
 577 -313 577 -313 572.5 -314 c 128,-1,25
 568 -315 568 -315 558 -315 c 0,26,27
 554 -315 554 -315 532.5 -299.5 c 128,-1,28
 511 -284 511 -284 476 -243 c 0,29,30
 442 -203 442 -203 422.5 -184.5 c 128,-1,31
 403 -166 403 -166 401 -164 c 0,32,33
 401 -160 401 -160 437.5 -121 c 128,-1,34
 474 -82 474 -82 540 -4 c 1,35,-1
 556 -4 l 2,36,37
 568 -4 568 -4 603 -37.5 c 128,-1,38
 638 -71 638 -71 722 -149 c 1,39,-1
 722 -164 l 2,20,21
390 -164 m 2,40,41
 390 -166 390 -166 355.5 -206 c 128,-1,42
 321 -246 321 -246 253 -313 c 0,43,44
 249 -313 249 -313 248 -314 c 128,-1,45
 247 -315 247 -315 237 -315 c 0,46,47
 233 -315 233 -315 211.5 -299.5 c 128,-1,48
 190 -284 190 -284 151 -243 c 0,49,50
 116 -203 116 -203 97 -184 c 2,51,-1
 77 -164 l 2,52,53
 77 -160 77 -160 113 -121 c 128,-1,54
 149 -82 149 -82 218 -4 c 1,55,-1
 233 -4 l 2,56,57
 245 -4 245 -4 280 -37 c 2,58,-1
 390 -149 l 1,59,-1
 390 -164 l 2,40,41
EndSplineSet
EndChar

StartChar: afii64242
Encoding: 65550 -1 107
Width: 530
Flags: W
LayerCount: 2
Fore
SplineSet
504 580 m 0,0,1
 506 461 506 461 469 355.5 c 128,-1,2
 432 250 432 250 365.5 171 c 128,-1,3
 299 92 299 92 206 46 c 128,-1,4
 113 0 113 0 2 0 c 0,5,6
 -27 0 -27 0 -46.5 33 c 128,-1,7
 -66 66 -66 66 -74 115 c 128,-1,8
 -82 164 -82 164 -81 220 c 128,-1,9
 -80 276 -80 276 -70.5 325.5 c 128,-1,10
 -61 375 -61 375 -44 407.5 c 128,-1,11
 -27 440 -27 440 -2 440 c 2,12,-1
 172 440 l 2,13,14
 260 440 260 440 305 459.5 c 128,-1,15
 350 479 350 479 350 514 c 0,16,17
 350 551 350 551 302 608.5 c 128,-1,18
 254 666 254 666 143 762 c 0,19,20
 141 768 141 768 152.5 793.5 c 128,-1,21
 164 819 164 819 181.5 855 c 128,-1,22
 199 891 199 891 219.5 931 c 128,-1,23
 240 971 240 971 259.5 1004.5 c 128,-1,24
 279 1038 279 1038 294 1059.5 c 128,-1,25
 309 1081 309 1081 315 1081 c 0,26,27
 338 1081 338 1081 370.5 1026 c 128,-1,28
 403 971 403 971 434 892 c 128,-1,29
 465 813 465 813 485.5 727 c 128,-1,30
 506 641 506 641 504 580 c 0,0,1
EndSplineSet
EndChar

StartChar: afii57373
Encoding: 65551 -1 112
Width: 0
Flags: W
LayerCount: 2
Fore
SplineSet
88 1612 m 0,0,1
 106 1624 106 1624 127 1638 c 1,2,3
 86 1679 86 1679 62.5 1706 c 128,-1,4
 39 1733 39 1733 39 1745 c 0,5,6
 39 1774 39 1774 56.5 1805.5 c 128,-1,7
 74 1837 74 1837 115 1866 c 1,8,9
 188 1929 188 1929 254 1929 c 0,10,11
 352 1929 352 1929 371 1860 c 1,12,-1
 371 1835 l 1,13,-1
 223 1835 l 2,14,15
 137 1835 137 1835 137 1804 c 0,16,17
 137 1792 137 1792 151.5 1775.5 c 128,-1,18
 166 1759 166 1759 184.5 1745 c 128,-1,19
 203 1731 203 1731 222.5 1721.5 c 128,-1,20
 242 1712 242 1712 254 1712 c 0,21,22
 264 1712 264 1712 298 1723.5 c 128,-1,23
 332 1735 332 1735 408 1755 c 0,24,25
 422 1759 422 1759 422 1743 c 2,26,-1
 420 1731 l 1,27,-1
 385 1669 l 2,28,29
 385 1665 385 1665 376 1657 c 128,-1,30
 367 1649 367 1649 356 1645 c 0,31,32
 297 1628 297 1628 194.5 1583 c 128,-1,33
 92 1538 92 1538 16 1495 c 1,34,35
 -2 1495 -2 1495 -2 1513 c 0,36,37
 -2 1536 -2 1536 31 1567 c 0,38,39
 53 1587 53 1587 88 1612 c 0,0,1
EndSplineSet
EndChar

StartChar: afii57374
Encoding: 65552 -1 113
Width: 778
GlyphClass: 2
Flags: W
LayerCount: 2
Fore
SplineSet
874 221 m 0,0,1
 874 111 874 111 852.5 55.5 c 128,-1,2
 831 0 831 0 778 0 c 0,3,4
 631 0 631 0 530.5 49 c 128,-1,5
 430 98 430 98 379 188 c 1,6,7
 281 90 281 90 185.5 45 c 128,-1,8
 90 0 90 0 2 0 c 2,9,-1
 -20 0 l 2,10,11
 -45 0 -45 0 -62.5 22.5 c 128,-1,12
 -80 45 -80 45 -98 98 c 0,13,14
 -104 127 -104 127 -109.5 158.5 c 128,-1,15
 -115 190 -115 190 -115 225 c 0,16,17
 -115 299 -115 299 -107.5 343 c 128,-1,18
 -100 387 -100 387 -90 397 c 1,19,20
 -84 414 -84 414 -69.5 427 c 128,-1,21
 -55 440 -55 440 -27 440 c 2,22,-1
 2 440 l 2,23,24
 29 440 29 440 53.5 443 c 128,-1,25
 78 446 78 446 100 457 c 1,26,27
 90 469 90 469 88 481.5 c 128,-1,28
 86 494 86 494 86 506 c 0,29,30
 86 569 86 569 108.5 638 c 128,-1,31
 131 707 131 707 170 786 c 1,32,33
 281 971 281 971 391 971 c 0,34,35
 498 971 498 971 600 852 c 0,36,37
 692 741 692 741 692 631 c 0,38,39
 692 592 692 592 670.5 546 c 128,-1,40
 649 500 649 500 606 455 c 1,41,42
 610 440 610 440 778 440 c 0,43,44
 831 440 831 440 852.5 385 c 128,-1,45
 874 330 874 330 874 221 c 0,0,1
539 524 m 0,46,47
 539 547 539 547 514 573.5 c 128,-1,48
 489 600 489 600 442 625 c 0,49,50
 360 666 360 666 303 666 c 0,51,52
 209 666 209 666 209 598 c 0,53,54
 209 557 209 557 223.5 526.5 c 128,-1,55
 238 496 238 496 274.5 473.5 c 128,-1,56
 311 451 311 451 345 445.5 c 128,-1,57
 379 440 379 440 420 440 c 0,58,59
 475 440 475 440 507 456.5 c 128,-1,60
 539 473 539 473 539 524 c 0,46,47
EndSplineSet
EndChar

StartChar: afii57375
Encoding: 1619 1619 114
Width: 861
GlyphClass: 2
Flags: W
LayerCount: 2
Fore
SplineSet
841 1734 m 0,0,1
 841 1662 841 1662 726 1541 c 0,2,3
 593 1396 593 1396 468 1396 c 0,4,5
 440 1396 440 1396 402 1403 c 128,-1,6
 364 1410 364 1410 308 1427 c 0,7,8
 259 1441 259 1441 222.5 1451 c 128,-1,9
 186 1461 186 1461 161 1461 c 256,10,11
 136 1461 136 1461 97.5 1423.5 c 128,-1,12
 59 1386 59 1386 42 1369 c 1,13,14
 9 1369 9 1369 9 1406 c 0,15,16
 9 1468 9 1468 161 1687 c 0,17,18
 177 1713 177 1713 207 1725.5 c 128,-1,19
 237 1738 237 1738 270 1738 c 0,20,21
 288 1738 288 1738 317.5 1726.5 c 128,-1,22
 347 1715 347 1715 386 1689 c 1,23,24
 440 1660 440 1660 478.5 1648.5 c 128,-1,25
 517 1637 517 1637 550 1637 c 256,26,27
 583 1637 583 1637 619 1649.5 c 128,-1,28
 655 1662 655 1662 700 1701 c 0,29,30
 779 1773 779 1773 812 1773 c 0,31,32
 841 1773 841 1773 841 1734 c 0,0,1
EndSplineSet
EndChar

StartChar: afii57391
Encoding: 59450 59450 115
Width: 1024
GlyphClass: 2
Flags: W
LayerCount: 2
Fore
SplineSet
1024 0 m 1,0,-1
 -70 0 l 1,1,-1
 -70 188 l 1,2,-1
 1024 188 l 1,3,-1
 1024 0 l 1,0,-1
EndSplineSet
EndChar

StartChar: afii57471
Encoding: 65553 -1 116
Width: 1759
Flags: W
LayerCount: 2
Fore
SplineSet
1880 211 m 0,0,1
 1880 188 1880 188 1874 155.5 c 128,-1,2
 1868 123 1868 123 1860 88 c 1,3,4
 1829 0 1829 0 1796 0 c 2,5,-1
 1759 0 l 2,6,7
 1556 0 1556 0 1487 199 c 1,8,9
 1444 113 1444 113 1354 58.5 c 128,-1,10
 1264 4 1264 4 1114 -20 c 0,11,12
 1061 -27 1061 -27 949.5 -32 c 128,-1,13
 838 -37 838 -37 659 -37 c 2,14,-1
 596 -37 l 2,15,16
 586 -37 586 -37 567 -39 c 2,17,-1
 477 -39 l 2,18,19
 270 -39 270 -39 184 86 c 0,20,21
 119 178 119 178 119 397 c 2,22,-1
 119 592 l 1,23,24
 123 668 123 668 140.5 706.5 c 128,-1,25
 158 745 158 745 184 745 c 0,26,27
 231 745 231 745 231 680 c 0,28,29
 231 483 231 483 397 426 c 0,30,31
 483 395 483 395 801 395 c 0,32,33
 1018 395 1018 395 1148 404.5 c 128,-1,34
 1278 414 1278 414 1327 438 c 1,35,36
 1399 463 1399 463 1458.5 514 c 128,-1,37
 1518 565 1518 565 1571 643 c 0,38,39
 1579 655 1579 655 1586.5 668.5 c 128,-1,40
 1594 682 1594 682 1606 709 c 0,41,42
 1616 729 1616 729 1634 730 c 0,43,44
 1651 727 1651 727 1651 692 c 0,45,46
 1651 670 1651 670 1648 638 c 128,-1,47
 1645 606 1645 606 1645 592 c 0,48,49
 1645 506 1645 506 1675.5 473 c 128,-1,50
 1706 440 1706 440 1784 440 c 0,51,52
 1808 440 1808 440 1825.5 415.5 c 128,-1,53
 1843 391 1843 391 1860 346 c 0,54,55
 1868 317 1868 317 1874 281.5 c 128,-1,56
 1880 246 1880 246 1880 211 c 0,0,1
EndSplineSet
EndChar

StartChar: afii52258
Encoding: 65554 -1 117
Width: 1784
GlyphClass: 2
Flags: W
LayerCount: 2
Fore
SplineSet
1880 250 m 0,0,1
 1880 6 1880 6 1804 2 c 0,2,3
 1784 0 1784 0 1762.5 -1 c 128,-1,4
 1741 -2 1741 -2 1716 -2 c 0,5,6
 1608 -2 1608 -2 1526 53 c 0,7,8
 1495 76 1495 76 1458 111.5 c 128,-1,9
 1421 147 1421 147 1386 199 c 1,10,11
 1331 121 1331 121 1157 57 c 1,12,13
 1018 0 1018 0 895 0 c 2,14,-1
 446 0 l 2,15,16
 369 0 369 0 305.5 28.5 c 128,-1,17
 242 57 242 57 195 119 c 0,18,19
 150 176 150 176 132.5 243.5 c 128,-1,20
 115 311 115 311 115 395 c 0,21,22
 115 600 115 600 131 705.5 c 128,-1,23
 147 811 147 811 188 811 c 0,24,25
 205 811 205 811 214 797.5 c 128,-1,26
 223 784 223 784 223 764 c 0,27,28
 223 750 223 750 222 719 c 128,-1,29
 221 688 221 688 221 674 c 0,30,31
 221 594 221 594 266 540.5 c 128,-1,32
 311 487 311 487 397 465 c 0,33,34
 440 451 440 451 553 446.5 c 128,-1,35
 666 442 666 442 850 442 c 0,36,37
 1083 442 1083 442 1106 457 c 1,38,39
 1094 485 1094 485 1087.5 500.5 c 128,-1,40
 1081 516 1081 516 1081 528 c 0,41,42
 1081 582 1081 582 1107 650.5 c 128,-1,43
 1133 719 1133 719 1190 801 c 0,44,45
 1249 891 1249 891 1300.5 938 c 128,-1,46
 1352 985 1352 985 1393 985 c 0,47,48
 1454 985 1454 985 1505 956.5 c 128,-1,49
 1556 928 1556 928 1608 864 c 0,50,51
 1649 809 1649 809 1672.5 751.5 c 128,-1,52
 1696 694 1696 694 1696 635 c 0,53,54
 1696 551 1696 551 1612 465 c 1,55,56
 1612 449 1612 449 1661 444.5 c 128,-1,57
 1710 440 1710 440 1804 440 c 0,58,59
 1841 440 1841 440 1860.5 391 c 128,-1,60
 1880 342 1880 342 1880 250 c 0,0,1
1538 528 m 0,61,62
 1538 563 1538 563 1513.5 588.5 c 128,-1,63
 1489 614 1489 614 1442 637 c 0,64,65
 1362 680 1362 680 1292 680 c 0,66,67
 1264 680 1264 680 1235 661.5 c 128,-1,68
 1206 643 1206 643 1206 610 c 0,69,70
 1206 526 1206 526 1286 481 c 0,71,72
 1317 461 1317 461 1349.5 451.5 c 128,-1,73
 1382 442 1382 442 1425 442 c 0,74,75
 1538 442 1538 442 1538 528 c 0,61,62
EndSplineSet
EndChar

StartChar: afii62889
Encoding: 65555 -1 123
Width: 1368
Flags: W
LayerCount: 2
Fore
SplineSet
1475 211 m 0,0,1
 1475 164 1475 164 1467.5 127 c 128,-1,2
 1460 90 1460 90 1454 61 c 1,3,4
 1423 0 1423 0 1393 0 c 2,5,-1
 1217 0 l 1,6,7
 1210 -59 1210 -59 1182.5 -126 c 128,-1,8
 1155 -193 1155 -193 1115 -256 c 128,-1,9
 1075 -319 1075 -319 1026 -372.5 c 128,-1,10
 977 -426 977 -426 930 -457 c 0,11,12
 786 -567 786 -567 598 -567 c 0,13,14
 489 -567 489 -567 400 -533.5 c 128,-1,15
 311 -500 311 -500 248.5 -437.5 c 128,-1,16
 186 -375 186 -375 152.5 -286 c 128,-1,17
 119 -197 119 -197 119 -86 c 0,18,19
 119 -20 119 -20 128 54.5 c 128,-1,20
 137 129 137 129 152 217 c 0,21,22
 174 334 174 334 202.5 394.5 c 128,-1,23
 231 455 231 455 266 455 c 0,24,25
 293 455 293 455 293 408 c 1,26,27
 274 311 274 311 270 266 c 128,-1,28
 266 221 266 221 266 168 c 0,29,30
 266 88 266 88 296 25.5 c 128,-1,31
 326 -37 326 -37 385 -86 c 1,32,33
 514 -168 514 -168 664 -168 c 0,34,35
 721 -168 721 -168 783.5 -157.5 c 128,-1,36
 846 -147 846 -147 918 -123 c 0,37,38
 963 -109 963 -109 1003.5 -86 c 128,-1,39
 1044 -63 1044 -63 1072 -44 c 128,-1,40
 1100 -25 1100 -25 1109 -10.5 c 128,-1,41
 1118 4 1118 4 1098 4 c 0,42,43
 991 2 991 2 906 9 c 128,-1,44
 821 16 821 16 763 47 c 128,-1,45
 705 78 705 78 674 141.5 c 128,-1,46
 643 205 643 205 643 317 c 0,47,48
 643 895 643 895 938 895 c 0,49,50
 1016 895 1016 895 1073 858 c 128,-1,51
 1130 821 1130 821 1169 739 c 0,52,53
 1198 674 1198 674 1213.5 600 c 128,-1,54
 1229 526 1229 526 1229 440 c 1,55,-1
 1389 440 l 2,56,57
 1432 440 1432 440 1458 346 c 0,58,59
 1464 317 1464 317 1469.5 284.5 c 128,-1,60
 1475 252 1475 252 1475 211 c 0,0,1
1118 465 m 1,61,62
 1118 496 1118 496 1094.5 522.5 c 128,-1,63
 1071 549 1071 549 1020 571.5 c 128,-1,64
 969 594 969 594 930 605 c 128,-1,65
 891 616 891 616 860 616 c 0,66,67
 739 616 739 616 739 541 c 0,68,69
 739 512 739 512 760.5 488.5 c 128,-1,70
 782 465 782 465 831 449 c 1,71,72
 852 437 852 437 903 435 c 128,-1,73
 954 433 954 433 1004.5 434.5 c 128,-1,74
 1055 436 1055 436 1090.5 444.5 c 128,-1,75
 1126 453 1126 453 1118 465 c 1,61,62
EndSplineSet
EndChar

StartChar: afii62887
Encoding: 65556 -1 124
Width: 1700
Flags: W
LayerCount: 2
Fore
SplineSet
1657 580 m 0,0,1
 1657 272 1657 272 1393 121 c 0,2,3
 1288 57 1288 57 1156 27.5 c 128,-1,4
 1024 -2 1024 -2 860 -2 c 0,5,6
 821 -2 821 -2 494 4 c 1,7,8
 389 10 389 10 313.5 45 c 128,-1,9
 238 80 238 80 184 150 c 1,10,11
 147 207 147 207 133 295 c 128,-1,12
 119 383 119 383 119 494 c 0,13,14
 119 549 119 549 120 599 c 128,-1,15
 121 649 121 649 127 692 c 0,16,17
 145 838 145 838 209 838 c 0,18,19
 219 838 219 838 227 825 c 0,20,21
 236 815 236 815 238 793 c 2,22,-1
 238 696 l 2,23,24
 238 618 238 618 289 559 c 128,-1,25
 340 500 340 500 418 479.5 c 128,-1,26
 496 459 496 459 582 449.5 c 128,-1,27
 668 440 668 440 778 440 c 0,28,29
 985 440 985 440 1147 450.5 c 128,-1,30
 1309 461 1309 461 1425 477 c 0,31,32
 1489 483 1489 483 1489 512 c 0,33,34
 1489 547 1489 547 1425 606 c 0,35,36
 1382 647 1382 647 1361.5 663.5 c 128,-1,37
 1341 680 1341 680 1339 680 c 1,38,39
 1343 705 1343 705 1360.5 742.5 c 128,-1,40
 1378 780 1378 780 1409 836 c 0,41,42
 1475 950 1475 950 1489 950 c 0,43,44
 1509 950 1509 950 1526 930 c 0,45,46
 1591 858 1591 858 1624 769 c 128,-1,47
 1657 680 1657 680 1657 580 c 0,0,1
EndSplineSet
EndChar

StartChar: afii62888
Encoding: 1697 1697 125
Width: 1606
GlyphClass: 2
Flags: W
LayerCount: 2
Fore
SplineSet
1575 520 m 0,0,1
 1575 229 1575 229 1397 89 c 128,-1,2
 1219 -51 1219 -51 856 -51 c 2,3,-1
 776 -51 l 2,4,5
 764 -51 764 -51 745 -49 c 2,6,-1
 637 -49 l 1,7,-1
 453 -47 l 2,8,9
 373 -45 373 -45 309.5 -13.5 c 128,-1,10
 246 18 246 18 205 72 c 0,11,12
 160 125 160 125 141.5 193.5 c 128,-1,13
 123 262 123 262 123 348 c 0,14,15
 123 573 123 573 142.5 682 c 128,-1,16
 162 791 162 791 213 791 c 0,17,18
 236 791 236 791 236 748 c 0,19,20
 236 727 236 727 232.5 697.5 c 128,-1,21
 229 668 229 668 229 651 c 0,22,23
 229 504 229 504 365 434 c 1,24,25
 440 405 440 405 607 399 c 128,-1,26
 774 393 774 393 898 386 c 128,-1,27
 1022 379 1022 379 1139 379 c 0,28,29
 1292 379 1292 379 1370 398.5 c 128,-1,30
 1448 418 1448 418 1448 446 c 0,31,32
 1448 469 1448 469 1423.5 480.5 c 128,-1,33
 1399 492 1399 492 1356 492 c 0,34,35
 1270 492 1270 492 1215.5 495 c 128,-1,36
 1161 498 1161 498 1126 506 c 1,37,38
 1073 528 1073 528 1047.5 571 c 128,-1,39
 1022 614 1022 614 1022 686 c 0,40,41
 1022 784 1022 784 1032 865 c 128,-1,42
 1042 946 1042 946 1065 1012 c 1,43,44
 1114 1214 1114 1214 1257 1214 c 0,45,46
 1372 1214 1372 1214 1445 1116 c 128,-1,47
 1518 1018 1518 1018 1546 813 c 0,48,49
 1559 721 1559 721 1567 647 c 128,-1,50
 1575 573 1575 573 1575 520 c 0,0,1
1450 764 m 0,51,52
 1450 825 1450 825 1364 899 c 0,53,54
 1290 961 1290 961 1208 961 c 256,55,56
 1126 961 1126 961 1126 883 c 0,57,58
 1126 795 1126 795 1242 773.5 c 128,-1,59
 1358 752 1358 752 1397 745.5 c 128,-1,60
 1436 739 1436 739 1438 739 c 0,61,62
 1450 739 1450 739 1450 764 c 0,51,52
EndSplineSet
Substitution2: "'medi' Medial Forms in Arabic lookup 3 subtable" afii57374
Substitution2: "'fina' Terminal Forms in Arabic lookup 2 subtable" afii52258
Substitution2: "'init' Initial Forms in Arabic lookup 1 subtable" afii57459
EndChar

StartChar: afii57567
Encoding: 1705 1705 132
Width: 1889
GlyphClass: 2
Flags: W
AnchorPoint: "Anchor-1" 675 -645 basechar 0
AnchorPoint: "Anchor-0" 555 1395 basechar 0
LayerCount: 2
Fore
SplineSet
1892 1541 m 2,0,-1
 1829 1250 l 2,1,2
 1823 1217 1823 1217 1802 1204 c 1,3,-1
 1392 1060 l 1,4,5
 1546 800 1546 800 1553.5 569 c 128,-1,6
 1561 338 1561 338 1451 170 c 1,7,8
 1322 0 1322 0 1109 0 c 2,9,-1
 449 0 l 2,10,11
 256 0 256 0 165 100.5 c 128,-1,12
 74 201 74 201 74 406 c 2,13,-1
 74 600 l 2,14,15
 74 627 74 627 77.5 673 c 128,-1,16
 81 719 81 719 98 770 c 128,-1,17
 115 821 115 821 143 821 c 0,18,19
 176 821 176 821 180 750 c 2,20,-1
 186 653 l 2,21,22
 191 600 191 600 214.5 558 c 128,-1,23
 238 516 238 516 291 487 c 1,24,25
 324 463 324 463 373 451.5 c 128,-1,26
 422 440 422 440 483 440 c 2,27,-1
 1133 440 l 2,28,29
 1352 440 1352 440 1352 549 c 0,30,31
 1352 623 1352 623 1265 724 c 128,-1,32
 1178 825 1178 825 996 943 c 0,33,34
 986 947 986 947 982.5 956 c 128,-1,35
 979 965 979 965 982 975 c 0,36,37
 982 988 982 988 1035.5 1140 c 128,-1,38
 1089 1292 1089 1292 1096 1294 c 2,39,-1
 1853 1555 l 2,40,41
 1873 1564 1873 1564 1882.5 1557.5 c 128,-1,42
 1892 1551 1892 1551 1892 1541 c 2,0,-1
EndSplineSet
Substitution2: "'medi' Medial Forms in Arabic lookup 3 subtable" afii52306
Substitution2: "'fina' Terminal Forms in Arabic lookup 2 subtable" afii62964
Substitution2: "'init' Initial Forms in Arabic lookup 1 subtable" afii52305
EndChar

StartChar: afii62964
Encoding: 64399 64399 133
Width: 1940
GlyphClass: 2
Flags: W
AnchorPoint: "Anchor-1" 720 -630 basechar 0
AnchorPoint: "Anchor-0" 645 1470 basechar 0
LayerCount: 2
Fore
SplineSet
1151 440 m 2,0,1
 1372 440 1372 440 1372 541 c 0,2,3
 1372 571 1372 571 1355.5 613 c 128,-1,4
 1339 655 1339 655 1239 768.5 c 128,-1,5
 1139 882 1139 882 1032 946 c 0,6,7
 1023 956 1023 956 1021 958 c 128,-1,8
 1019 960 1019 960 1015 966 c 1,9,10
 1025 989 1025 989 1126 1308 c 1,11,-1
 1857 1567 l 2,12,13
 1865 1571 1865 1571 1871 1565 c 128,-1,14
 1877 1559 1877 1559 1869 1540 c 0,15,16
 1788 1216 1788 1216 1784 1206 c 1,17,-1
 1377 1049 l 1,18,19
 1424 986 1424 986 1471.5 897.5 c 128,-1,20
 1519 809 1519 809 1547 733 c 128,-1,21
 1575 657 1575 657 1596.5 619.5 c 128,-1,22
 1618 582 1618 582 1637 553 c 1,23,24
 1758 440 1758 440 1940 440 c 0,25,26
 2033 440 2033 440 2033 221 c 0,27,28
 2033 0 2033 0 1940 0 c 0,29,30
 1836 0 1836 0 1736 88 c 0,31,32
 1707 117 1707 117 1678.5 153.5 c 128,-1,33
 1650 190 1650 190 1613 242.5 c 128,-1,34
 1576 295 1576 295 1541 344 c 1,35,-1
 1510 256 l 1,36,37
 1457 127 1457 127 1344.5 63.5 c 128,-1,38
 1232 0 1232 0 1050 0 c 2,39,-1
 1046 0 l 1,40,-1
 493 0 l 2,41,42
 294 0 294 0 210 86 c 0,43,44
 177 117 177 117 156 170 c 0,45,46
 136 223 136 223 126 295 c 0,47,48
 120 328 120 328 120 600 c 0,49,50
 120 635 120 635 129.5 695 c 128,-1,51
 139 755 139 755 163 796 c 0,52,53
 175 821 175 821 198 821 c 0,54,55
 231 822 231 822 237 653 c 1,56,57
 245 543 245 543 341 487 c 1,58,59
 374 463 374 463 424 451 c 1,60,-1
 538 440 l 1,61,-1
 1151 440 l 2,0,1
EndSplineSet
EndChar

StartChar: afii52305
Encoding: 64400 64400 134
Width: 825
GlyphClass: 2
Flags: W
AnchorPoint: "Anchor-1" 300 -615 basechar 0
AnchorPoint: "Anchor-0" 330 1620 basechar 0
LayerCount: 2
Fore
SplineSet
759 1250 m 2,0,1
 753 1217 753 1217 732 1204 c 1,2,-1
 322 1060 l 1,3,4
 476 800 476 800 483.5 569 c 128,-1,5
 491 338 491 338 381 170 c 1,6,7
 252 0 252 0 3 0 c 2,8,-1
 -26 0 l 1,9,-1
 -26 440 l 1,10,-1
 27 440 l 2,11,12
 282 440 282 440 282 549 c 0,13,14
 282 623 282 623 200.5 727.5 c 128,-1,15
 119 832 119 832 -25 954 c 0,16,17
 -35 958 -35 958 -38.5 967 c 128,-1,18
 -42 976 -42 976 -39 986 c 0,19,20
 -39 999 -39 999 14.5 1151 c 128,-1,21
 68 1303 68 1303 75 1305 c 2,22,-1
 783 1555 l 2,23,24
 803 1564 803 1564 812.5 1557.5 c 128,-1,25
 822 1551 822 1551 822 1541 c 2,26,-1
 759 1250 l 2,0,1
EndSplineSet
EndChar

StartChar: afii52306
Encoding: 64401 64401 135
Width: 870
GlyphClass: 2
Flags: W
AnchorPoint: "Anchor-1" 330 -615 basechar 0
AnchorPoint: "Anchor-0" 360 1680 basechar 0
LayerCount: 2
Fore
SplineSet
963 221 m 0,0,1
 963 0 963 0 870 0 c 0,2,3
 766 0 766 0 666 88 c 0,4,5
 637 117 637 117 608.5 153.5 c 128,-1,6
 580 190 580 190 541 250 c 1,7,8
 506 295 506 295 492.5 318.5 c 128,-1,9
 479 342 479 342 471 344 c 1,10,-1
 440 256 l 1,11,12
 387 127 387 127 274.5 63.5 c 128,-1,13
 162 0 162 0 -20 0 c 0,14,15
 -61 0 -61 0 -80.5 49 c 128,-1,16
 -100 98 -100 98 -100 188 c 0,17,18
 -100 440 -100 440 -27 440 c 2,19,-1
 81 440 l 2,20,21
 302 440 302 440 302 541 c 0,22,23
 302 571 302 571 285.5 613 c 128,-1,24
 269 655 269 655 169 768.5 c 128,-1,25
 69 882 69 882 -38 946 c 0,26,27
 -47 956 -47 956 -49 958 c 128,-1,28
 -51 960 -51 960 -55 966 c 1,29,30
 -45 989 -45 989 -9 1133.5 c 128,-1,31
 27 1278 27 1278 44 1300 c 1,32,-1
 787 1577 l 2,33,34
 795 1581 795 1581 801 1575 c 128,-1,35
 807 1569 807 1569 799 1550 c 0,36,37
 718 1216 718 1216 714 1206 c 1,38,-1
 307 1056 l 1,39,40
 354 986 354 986 401.5 897.5 c 128,-1,41
 449 809 449 809 477 733 c 128,-1,42
 505 657 505 657 526.5 619.5 c 128,-1,43
 548 582 548 582 567 553 c 1,44,45
 688 440 688 440 870 440 c 0,46,47
 963 440 963 440 963 221 c 0,0,1
EndSplineSet
EndChar

StartChar: afii57509
Encoding: 1711 1711 136
Width: 1915
GlyphClass: 2
Flags: W
AnchorPoint: "Anchor-1" 630 -645 basechar 0
AnchorPoint: "Anchor-0" 690 1470 basechar 0
LayerCount: 2
Fore
SplineSet
1930 1726 m 1,0,-1
 1904 1640 l 1,1,-1
 1224 1395 l 1,2,-1
 1244 1491 l 1,3,-1
 1930 1726 l 1,0,-1
1912 1541 m 1,4,-1
 1849 1250 l 2,5,6
 1843 1217 1843 1217 1822 1204 c 1,7,-1
 1412 1060 l 1,8,9
 1566 800 1566 800 1573.5 569 c 128,-1,10
 1581 338 1581 338 1471 170 c 1,11,12
 1342 0 1342 0 1129 0 c 2,13,-1
 469 0 l 2,14,15
 276 0 276 0 185 100.5 c 128,-1,16
 94 201 94 201 94 406 c 2,17,-1
 94 600 l 2,18,19
 94 627 94 627 97.5 673 c 128,-1,20
 101 719 101 719 118 770 c 128,-1,21
 135 821 135 821 163 821 c 0,22,23
 196 821 196 821 200 750 c 2,24,-1
 206 653 l 2,25,26
 211 600 211 600 234.5 558 c 128,-1,27
 258 516 258 516 311 487 c 1,28,29
 344 463 344 463 393 451.5 c 128,-1,30
 442 440 442 440 503 440 c 2,31,-1
 1153 440 l 2,32,33
 1372 440 1372 440 1372 549 c 0,34,35
 1372 623 1372 623 1285 724 c 128,-1,36
 1198 825 1198 825 1016 943 c 0,37,38
 1006 947 1006 947 1002.5 956 c 128,-1,39
 999 965 999 965 1002 975 c 0,40,41
 1002 988 1002 988 1055.5 1140 c 128,-1,42
 1109 1292 1109 1292 1116 1294 c 2,43,-1
 1873 1555 l 2,44,45
 1893 1564 1893 1564 1902.5 1557.5 c 128,-1,46
 1912 1551 1912 1551 1912 1541 c 1,47,-1
 1912 1541 l 1,4,-1
EndSplineSet
Substitution2: "'medi' Medial Forms in Arabic lookup 3 subtable" afii62966
Substitution2: "'fina' Terminal Forms in Arabic lookup 2 subtable" afii62967
Substitution2: "'init' Initial Forms in Arabic lookup 1 subtable" afii62965
EndChar

StartChar: afii62967
Encoding: 64403 64403 137
Width: 1937
GlyphClass: 2
Flags: W
AnchorPoint: "Anchor-1" 810 -645 basechar 0
AnchorPoint: "Anchor-0" 630 1425 basechar 0
LayerCount: 2
Fore
SplineSet
1889 1751 m 1,0,-1
 1864 1665 l 1,1,-1
 1186 1413 l 1,2,-1
 1211 1509 l 1,3,-1
 1889 1751 l 1,0,-1
1151 440 m 2,4,5
 1372 440 1372 440 1372 541 c 0,6,7
 1372 571 1372 571 1355.5 613 c 128,-1,8
 1339 655 1339 655 1239 768.5 c 128,-1,9
 1139 882 1139 882 1032 946 c 0,10,11
 1023 956 1023 956 1021 958 c 128,-1,12
 1019 960 1019 960 1015 966 c 1,13,14
 1025 989 1025 989 1126 1308 c 1,15,-1
 1857 1567 l 2,16,17
 1865 1571 1865 1571 1871 1565 c 128,-1,18
 1877 1559 1877 1559 1869 1540 c 0,19,20
 1788 1216 1788 1216 1784 1206 c 1,21,-1
 1377 1049 l 1,22,23
 1424 986 1424 986 1471.5 897.5 c 128,-1,24
 1519 809 1519 809 1547 733 c 128,-1,25
 1575 657 1575 657 1596.5 619.5 c 128,-1,26
 1618 582 1618 582 1637 553 c 1,27,28
 1758 440 1758 440 1940 440 c 0,29,30
 2033 440 2033 440 2033 221 c 0,31,32
 2033 0 2033 0 1940 0 c 0,33,34
 1836 0 1836 0 1736 88 c 0,35,36
 1707 117 1707 117 1678.5 153.5 c 128,-1,37
 1650 190 1650 190 1613 242.5 c 128,-1,38
 1576 295 1576 295 1541 344 c 1,39,-1
 1510 256 l 1,40,41
 1457 127 1457 127 1344.5 63.5 c 128,-1,42
 1232 0 1232 0 1050 0 c 2,43,-1
 1046 0 l 1,44,-1
 493 0 l 2,45,46
 294 0 294 0 210 86 c 0,47,48
 177 117 177 117 156 170 c 0,49,50
 136 223 136 223 126 295 c 0,51,52
 120 328 120 328 120 600 c 0,53,54
 120 635 120 635 129.5 695 c 128,-1,55
 139 755 139 755 163 796 c 0,56,57
 175 821 175 821 198 821 c 0,58,59
 231 822 231 822 237 653 c 1,60,61
 245 543 245 543 341 487 c 1,62,63
 374 463 374 463 424 451 c 1,64,-1
 538 440 l 1,65,-1
 1151 440 l 2,4,5
EndSplineSet
EndChar

StartChar: afii62965
Encoding: 64404 64404 138
Width: 754
GlyphClass: 2
Flags: W
AnchorPoint: "Anchor-1" 330 -645 basechar 0
AnchorPoint: "Anchor-0" 285 1830 basechar 0
LayerCount: 2
Fore
SplineSet
691 1724 m 1,0,-1
 668 1638 l 1,1,-1
 37 1415 l 1,2,-1
 66 1511 l 1,3,-1
 691 1724 l 1,0,-1
759 1250 m 2,4,5
 753 1217 753 1217 732 1204 c 1,6,-1
 322 1060 l 1,7,8
 476 800 476 800 483.5 569 c 128,-1,9
 491 338 491 338 381 170 c 1,10,11
 252 0 252 0 3 0 c 2,12,-1
 -26 0 l 1,13,-1
 -26 440 l 1,14,-1
 27 440 l 2,15,16
 282 440 282 440 282 549 c 0,17,18
 282 623 282 623 200.5 727.5 c 128,-1,19
 119 832 119 832 -25 954 c 0,20,21
 -35 958 -35 958 -38.5 967 c 128,-1,22
 -42 976 -42 976 -39 986 c 0,23,24
 -39 999 -39 999 14.5 1151 c 128,-1,25
 68 1303 68 1303 75 1305 c 2,26,-1
 783 1555 l 2,27,28
 803 1564 803 1564 812.5 1557.5 c 128,-1,29
 822 1551 822 1551 822 1541 c 2,30,-1
 759 1250 l 2,4,5
EndSplineSet
EndChar

StartChar: afii62966
Encoding: 64405 64405 139
Width: 870
GlyphClass: 2
Flags: W
AnchorPoint: "Anchor-1" 390 -555 basechar 0
AnchorPoint: "Anchor-0" 360 1830 basechar 0
LayerCount: 2
Fore
SplineSet
838 1761 m 1,0,-1
 815 1675 l 1,1,-1
 125 1425 l 1,2,-1
 154 1522 l 1,3,-1
 838 1761 l 1,0,-1
963 221 m 1,4,5
 963 0 963 0 870 0 c 0,6,7
 766 0 766 0 666 88 c 0,8,9
 637 117 637 117 608.5 153.5 c 128,-1,10
 580 190 580 190 541 250 c 1,11,12
 506 295 506 295 492.5 318.5 c 128,-1,13
 479 342 479 342 471 344 c 1,14,-1
 440 256 l 1,15,16
 387 127 387 127 274.5 63.5 c 128,-1,17
 162 0 162 0 -20 0 c 0,18,19
 -61 0 -61 0 -80.5 49 c 128,-1,20
 -100 98 -100 98 -100 188 c 0,21,22
 -100 440 -100 440 -27 440 c 2,23,-1
 81 440 l 2,24,25
 302 440 302 440 302 541 c 0,26,27
 302 571 302 571 285.5 613 c 128,-1,28
 269 655 269 655 169 768.5 c 128,-1,29
 69 882 69 882 -38 946 c 0,30,31
 -47 956 -47 956 -49 958 c 128,-1,32
 -51 960 -51 960 -55 966 c 1,33,34
 -45 989 -45 989 -9 1133.5 c 128,-1,35
 27 1278 27 1278 44 1300 c 1,36,-1
 787 1577 l 2,37,38
 795 1581 795 1581 801 1575 c 128,-1,39
 807 1569 807 1569 799 1550 c 0,40,41
 718 1216 718 1216 714 1206 c 1,42,-1
 307 1056 l 1,43,44
 354 986 354 986 401.5 897.5 c 128,-1,45
 449 809 449 809 477 733 c 128,-1,46
 505 657 505 657 526.5 619.5 c 128,-1,47
 548 582 548 582 567 553 c 1,48,49
 688 440 688 440 870 440 c 0,50,51
 963 440 963 440 963 221 c 1,52,-1
 963 221 l 1,4,5
EndSplineSet
EndChar

StartChar: afii57555
Encoding: 1740 1740 140
Width: 1581
GlyphClass: 2
Flags: W
AnchorPoint: "Anchor-1" 540 -1170 basechar 0
AnchorPoint: "Anchor-0" 645 1110 basechar 0
LayerCount: 2
Fore
SplineSet
1571 674 m 0,0,1
 1571 643 1571 643 1532 643 c 0,2,3
 1509 643 1509 643 1465 648 c 128,-1,4
 1421 653 1421 653 1371 659.5 c 128,-1,5
 1321 666 1321 666 1275 671 c 128,-1,6
 1229 676 1229 676 1204 676 c 0,7,8
 1087 676 1087 676 1029 653.5 c 128,-1,9
 971 631 971 631 971 592 c 0,10,11
 971 528 971 528 1077 487 c 0,12,13
 1110 475 1110 475 1149 464 c 128,-1,14
 1188 453 1188 453 1229 442 c 0,15,16
 1321 408 1321 408 1374 392.5 c 128,-1,17
 1427 377 1427 377 1442 369 c 0,18,19
 1495 338 1495 338 1517.5 292 c 128,-1,20
 1540 246 1540 246 1540 184 c 0,21,22
 1540 -201 1540 -201 1303 -406 c 0,23,24
 1192 -506 1192 -506 1039.5 -553 c 128,-1,25
 887 -600 887 -600 692 -600 c 0,26,27
 119 -600 119 -600 119 0 c 0,28,29
 119 317 119 317 268 541 c 1,30,31
 287 561 287 561 301 571.5 c 128,-1,32
 315 582 315 582 336 582 c 0,33,34
 369 582 369 582 369 532 c 0,35,36
 369 518 369 518 358 487 c 1,37,38
 319 410 319 410 302 332 c 128,-1,39
 285 254 285 254 285 168 c 0,40,41
 285 70 285 70 326 2 c 128,-1,42
 367 -66 367 -66 442 -102 c 0,43,44
 496 -127 496 -127 574.5 -141.5 c 128,-1,45
 653 -156 653 -156 766 -156 c 0,46,47
 844 -156 844 -156 931 -145.5 c 128,-1,48
 1018 -135 1018 -135 1114 -123 c 0,49,50
 1386 -86 1386 -86 1386 2 c 0,51,52
 1386 16 1386 16 1330 42 c 128,-1,53
 1274 68 1274 68 1155 100 c 1,54,55
 1026 141 1026 141 948 169 c 128,-1,56
 870 197 870 197 838 221 c 0,57,58
 770 276 770 276 770 365 c 0,59,60
 770 451 770 451 807 544 c 128,-1,61
 844 637 844 637 913 750 c 0,62,63
 1065 987 1065 987 1217 987 c 0,64,65
 1421 987 1421 987 1559 727 c 0,66,67
 1569 713 1569 713 1570 695.5 c 128,-1,68
 1571 678 1571 678 1571 674 c 0,0,1
EndSplineSet
Substitution2: "'medi' Medial Forms in Arabic lookup 3 subtable" afii62832
Substitution2: "'fina' Terminal Forms in Arabic lookup 2 subtable" afii52364
Substitution2: "'init' Initial Forms in Arabic lookup 1 subtable" uniFBFE
EndChar

StartChar: afii52364
Encoding: 64509 64509 141
Width: 1657
GlyphClass: 2
Flags: W
AnchorPoint: "Anchor-1" 735 -1155 basechar 0
AnchorPoint: "Anchor-0" 645 990 basechar 0
LayerCount: 2
Fore
SplineSet
1759 244 m 0,0,1
 1759 145 1759 145 1746 84 c 128,-1,2
 1733 23 1733 23 1704 2 c 1,3,4
 1696 2 1696 2 1686.5 1 c 128,-1,5
 1677 0 1677 0 1657 0 c 0,6,7
 1624 0 1624 0 1596.5 16.5 c 128,-1,8
 1569 33 1569 33 1540 70 c 0,9,10
 1501 119 1501 119 1474.5 150.5 c 128,-1,11
 1448 182 1448 182 1430 188 c 1,12,13
 1378 221 1378 221 1311.5 238.5 c 128,-1,14
 1245 256 1245 256 1157 256 c 2,15,-1
 1016 256 l 1,16,17
 954 252 954 252 924.5 235.5 c 128,-1,18
 895 219 895 219 895 199 c 0,19,20
 895 170 895 170 947 160 c 128,-1,21
 999 150 999 150 1104 150 c 0,22,23
 1180 150 1180 150 1232 143.5 c 128,-1,24
 1284 137 1284 137 1313 131 c 0,25,26
 1376 119 1376 119 1411 86 c 128,-1,27
 1446 53 1446 53 1446 0 c 0,28,29
 1446 -313 1446 -313 1190 -479 c 0,30,31
 971 -625 971 -625 643 -625 c 0,32,33
 375 -625 375 -625 247 -511 c 128,-1,34
 119 -397 119 -397 119 -168 c 0,35,36
 119 -39 119 -39 148.5 97 c 128,-1,37
 178 233 178 233 244 371 c 0,38,39
 254 391 254 391 269.5 404.5 c 128,-1,40
 285 418 285 418 303 418 c 0,41,42
 336 418 336 418 336 379 c 0,43,44
 336 360 336 360 330 325.5 c 128,-1,45
 324 291 324 291 307 238 c 1,46,47
 297 180 297 180 290 139 c 128,-1,48
 283 98 283 98 283 70 c 0,49,50
 283 -88 283 -88 391 -139 c 1,51,52
 430 -162 430 -162 490.5 -175 c 128,-1,53
 551 -188 551 -188 637 -188 c 0,54,55
 1323 -188 1323 -188 1323 -82 c 0,56,57
 1323 -70 1323 -70 1286 -47 c 1,58,59
 1276 -47 1276 -47 1263.5 -43 c 128,-1,60
 1251 -39 1251 -39 1241 -39 c 2,61,-1
 934 -37 l 1,62,63
 727 -31 727 -31 727 152 c 0,64,65
 727 342 727 342 852 395 c 1,66,67
 942 440 942 440 1143 440 c 2,68,-1
 1681 440 l 2,69,70
 1718 440 1718 440 1738.5 390 c 128,-1,71
 1759 340 1759 340 1759 244 c 0,0,1
EndSplineSet
EndChar

StartChar: afii62945
Encoding: 65557 -1 147
Width: 2198
GlyphClass: 3
Flags: W
AnchorPoint: "Anchor-3" 1740 -480 baselig 0
AnchorPoint: "Anchor-2" 1920 1545 baselig 0
AnchorPoint: "Anchor-3" 1170 -525 baselig 1
AnchorPoint: "Anchor-2" 1365 1335 baselig 1
AnchorPoint: "Anchor-3" 390 -450 baselig 2
AnchorPoint: "Anchor-2" 420 1320 baselig 2
LayerCount: 2
Fore
SplineSet
2134 1114 m 0,0,1
 2138 1096 2138 1096 2116 1085 c 1,2,3
 2073 1085 2073 1085 2019 1059 c 1,4,5
 2021 1053 2021 1053 2023 1024 c 128,-1,6
 2025 995 2025 995 2027.5 954 c 128,-1,7
 2030 913 2030 913 2032 863 c 128,-1,8
 2034 813 2034 813 2036 762 c 0,9,10
 2040 641 2040 641 2042 494 c 0,11,12
 2042 115 2042 115 1821 20 c 1,13,14
 1751 -4 1751 -4 1675 4 c 128,-1,15
 1599 12 1599 12 1532.5 50 c 128,-1,16
 1466 88 1466 88 1414 152.5 c 128,-1,17
 1362 217 1362 217 1339 307 c 1,18,19
 1309 193 1309 193 1227 116 c 128,-1,20
 1145 39 1145 39 1046.5 10.5 c 128,-1,21
 948 -18 948 -18 848 6.5 c 128,-1,22
 748 31 748 31 680 121 c 0,23,24
 659 154 659 154 632.5 229.5 c 128,-1,25
 606 305 606 305 578 426 c 1,26,-1
 514 647 l 1,27,28
 498 647 498 647 464 631.5 c 128,-1,29
 430 616 430 616 383 582 c 0,30,31
 293 520 293 520 293 481 c 0,32,33
 293 469 293 469 332 443.5 c 128,-1,34
 371 418 371 418 446 385 c 0,35,36
 524 354 524 354 565 334.5 c 128,-1,37
 606 315 606 315 606 307 c 0,38,39
 606 291 606 291 588.5 245 c 128,-1,40
 571 199 571 199 539 123 c 1,41,42
 471 -16 471 -16 455 -16 c 0,43,44
 428 -16 428 -16 379 10.5 c 128,-1,45
 330 37 330 37 254 88 c 0,46,47
 172 141 172 141 134 180 c 128,-1,48
 96 219 96 219 88 242 c 1,49,-1
 88 279 l 2,50,51
 88 307 88 307 97 351 c 128,-1,52
 106 395 106 395 121 469 c 0,53,54
 129 510 129 510 145.5 557 c 128,-1,55
 162 604 162 604 182 659 c 1,56,57
 197 674 197 674 264.5 729 c 128,-1,58
 332 784 332 784 455 887 c 1,59,60
 432 973 432 973 421 1011 c 128,-1,61
 410 1049 410 1049 410 1059 c 0,62,63
 410 1079 410 1079 432.5 1112 c 128,-1,64
 455 1145 455 1145 492 1190 c 0,65,66
 571 1292 571 1292 592 1292 c 0,67,68
 612 1292 612 1292 623 1251 c 2,69,-1
 752 750 l 2,70,71
 762 711 762 711 777.5 661.5 c 128,-1,72
 793 612 793 612 813 545 c 1,73,74
 866 432 866 432 969 440 c 1,75,-1
 1053 440 l 2,76,77
 1141 440 1141 440 1187 501.5 c 128,-1,78
 1233 563 1233 563 1233 680 c 2,79,-1
 1233 934 l 1,80,-1
 1237 1110 l 1,81,-1
 1413 1239 l 1,82,83
 1434 1243 1434 1243 1442 1251 c 1,84,85
 1458 1251 1458 1251 1462 1227 c 0,86,87
 1466 1227 1466 1227 1466 1194 c 0,88,89
 1464 1016 1464 1016 1463 923.5 c 128,-1,90
 1462 831 1462 831 1460 729 c 128,-1,91
 1458 627 1458 627 1469.5 562.5 c 128,-1,92
 1481 498 1481 498 1499 477 c 0,93,94
 1518 459 1518 459 1560 450.5 c 128,-1,95
 1602 442 1602 442 1667 440 c 2,96,-1
 1718 440 l 2,97,98
 1790 440 1790 440 1822.5 477 c 128,-1,99
 1855 514 1855 514 1855 592 c 0,100,101
 1855 610 1855 610 1835 734 c 128,-1,102
 1815 858 1815 858 1769 1081 c 0,103,104
 1759 1149 1759 1149 1751 1186 c 0,105,106
 1745 1219 1745 1219 1745 1219 c 2,107,108
 1745 1235 1745 1235 1749 1245 c 128,-1,109
 1753 1255 1753 1255 1755 1255 c 0,110,111
 1819 1335 1819 1335 1875 1397.5 c 128,-1,112
 1931 1460 1931 1460 2001 1526 c 1,113,114
 2005 1524 2005 1524 2022.5 1475.5 c 128,-1,115
 2040 1427 2040 1427 2066 1331 c 0,116,117
 2081 1274 2081 1274 2096 1222.5 c 128,-1,118
 2111 1171 2111 1171 2134 1114 c 0,0,1
EndSplineSet
EndChar

StartChar: afii64184
Encoding: 65010 65010 148
Width: 2198
GlyphClass: 3
Flags: W
AnchorPoint: "Anchor-3" 1755 -510 baselig 0
AnchorPoint: "Anchor-2" 1950 1635 baselig 0
AnchorPoint: "Anchor-3" 1230 -540 baselig 1
AnchorPoint: "Anchor-2" 1380 1335 baselig 1
AnchorPoint: "Anchor-3" 450 -540 baselig 2
AnchorPoint: "Anchor-2" 255 1350 baselig 2
LayerCount: 2
Fore
SplineSet
2134 1114 m 0,0,1
 2138 1096 2138 1096 2116 1085 c 1,2,3
 2073 1085 2073 1085 2019 1059 c 1,4,5
 2021 1053 2021 1053 2023 1024 c 128,-1,6
 2025 995 2025 995 2027.5 954 c 128,-1,7
 2030 913 2030 913 2032 863 c 128,-1,8
 2034 813 2034 813 2036 762 c 0,9,10
 2040 641 2040 641 2042 494 c 0,11,12
 2042 115 2042 115 1821 20 c 1,13,14
 1751 -4 1751 -4 1675 4 c 128,-1,15
 1599 12 1599 12 1532.5 50 c 128,-1,16
 1466 88 1466 88 1414 152.5 c 128,-1,17
 1362 217 1362 217 1339 307 c 1,18,19
 1309 193 1309 193 1227 116 c 128,-1,20
 1145 39 1145 39 1046.5 10.5 c 128,-1,21
 948 -18 948 -18 848 6.5 c 128,-1,22
 748 31 748 31 680 121 c 0,23,24
 659 154 659 154 632.5 229.5 c 128,-1,25
 606 305 606 305 578 426 c 1,26,-1
 514 647 l 1,27,28
 498 647 498 647 464 631.5 c 128,-1,29
 430 616 430 616 383 582 c 0,30,31
 293 520 293 520 293 481 c 0,32,33
 293 469 293 469 332 443.5 c 128,-1,34
 371 418 371 418 446 385 c 0,35,36
 524 354 524 354 565 334.5 c 128,-1,37
 606 315 606 315 606 307 c 0,38,39
 606 291 606 291 588.5 245 c 128,-1,40
 571 199 571 199 539 123 c 1,41,42
 471 -16 471 -16 455 -16 c 0,43,44
 428 -16 428 -16 379 10.5 c 128,-1,45
 330 37 330 37 254 88 c 0,46,47
 172 141 172 141 134 180 c 128,-1,48
 96 219 96 219 88 242 c 1,49,-1
 88 279 l 2,50,51
 88 307 88 307 97 351 c 128,-1,52
 106 395 106 395 121 469 c 0,53,54
 129 510 129 510 145.5 557 c 128,-1,55
 162 604 162 604 182 659 c 1,56,57
 197 674 197 674 264.5 729 c 128,-1,58
 332 784 332 784 455 887 c 1,59,60
 432 973 432 973 421 1011 c 128,-1,61
 410 1049 410 1049 410 1059 c 0,62,63
 410 1079 410 1079 432.5 1112 c 128,-1,64
 455 1145 455 1145 492 1190 c 0,65,66
 571 1292 571 1292 592 1292 c 0,67,68
 612 1292 612 1292 623 1251 c 2,69,-1
 752 750 l 2,70,71
 762 711 762 711 777.5 661.5 c 128,-1,72
 793 612 793 612 813 545 c 1,73,74
 866 449 866 449 920 440 c 0,75,76
 928 440 928 440 931 441 c 128,-1,77
 934 442 934 442 938 442 c 0,78,79
 954 440 954 440 969 440 c 2,80,-1
 1053 440 l 2,81,82
 1141 440 1141 440 1187 501.5 c 128,-1,83
 1233 563 1233 563 1233 680 c 2,84,-1
 1233 934 l 1,85,-1
 1237 1110 l 1,86,-1
 1413 1239 l 1,87,88
 1434 1243 1434 1243 1442 1251 c 1,89,90
 1458 1251 1458 1251 1462 1227 c 0,91,92
 1466 1227 1466 1227 1466 1194 c 0,93,94
 1464 1016 1464 1016 1463 923.5 c 128,-1,95
 1462 831 1462 831 1461 791.5 c 128,-1,96
 1460 752 1460 752 1459 745.5 c 128,-1,97
 1458 739 1458 739 1458 733 c 0,98,99
 1458 627 1458 627 1469.5 562.5 c 128,-1,100
 1481 498 1481 498 1499 477 c 0,101,102
 1518 459 1518 459 1560 450.5 c 128,-1,103
 1602 442 1602 442 1667 440 c 2,104,-1
 1718 440 l 2,105,106
 1790 440 1790 440 1822.5 477 c 128,-1,107
 1855 514 1855 514 1855 592 c 0,108,109
 1855 610 1855 610 1835 734 c 128,-1,110
 1815 858 1815 858 1769 1081 c 0,111,112
 1759 1149 1759 1149 1751 1186 c 0,113,114
 1745 1219 1745 1219 1745 1219 c 2,115,116
 1745 1235 1745 1235 1749 1245 c 128,-1,117
 1753 1255 1753 1255 1755 1255 c 0,118,119
 1819 1335 1819 1335 1875 1397.5 c 128,-1,120
 1931 1460 1931 1460 2001 1526 c 1,121,122
 2005 1524 2005 1524 2022.5 1475.5 c 128,-1,123
 2040 1427 2040 1427 2066 1331 c 0,124,125
 2081 1274 2081 1274 2096 1222.5 c 128,-1,126
 2111 1171 2111 1171 2134 1114 c 0,0,1
1559 1460 m 0,127,128
 1561 1399 1561 1399 1536 1364 c 128,-1,129
 1511 1329 1511 1329 1477.5 1317 c 128,-1,130
 1444 1305 1444 1305 1406 1311 c 128,-1,131
 1368 1317 1368 1317 1341 1339 c 1,132,133
 1321 1305 1321 1305 1289 1290.5 c 128,-1,134
 1257 1276 1257 1276 1225.5 1279 c 128,-1,135
 1194 1282 1194 1282 1167.5 1303.5 c 128,-1,136
 1141 1325 1141 1325 1133 1366 c 0,137,138
 1128 1401 1128 1401 1133 1507 c 1,139,140
 1151 1516 1151 1516 1160 1513.5 c 128,-1,141
 1169 1511 1169 1511 1204 1524 c 1,142,143
 1204 1491 1204 1491 1208 1470.5 c 128,-1,144
 1212 1450 1212 1450 1218.5 1435.5 c 128,-1,145
 1225 1421 1225 1421 1231 1413 c 2,146,-1
 1243 1403 l 1,147,148
 1276 1403 1276 1403 1286 1438 c 128,-1,149
 1296 1473 1296 1473 1303 1544 c 1,150,-1
 1372 1563 l 1,151,152
 1370 1550 1370 1550 1374 1527.5 c 128,-1,153
 1378 1505 1378 1505 1387.5 1483.5 c 128,-1,154
 1397 1462 1397 1462 1410 1450 c 128,-1,155
 1423 1438 1423 1438 1440 1446 c 2,156,-1
 1446 1450 l 2,157,158
 1462 1460 1462 1460 1473.5 1498 c 128,-1,159
 1485 1536 1485 1536 1475 1585 c 1,160,-1
 1550 1612 l 1,161,162
 1556 1563 1556 1563 1558.5 1527 c 128,-1,163
 1561 1491 1561 1491 1559 1460 c 0,127,128
1294 1624 m 1,164,165
 1298 1679 1298 1679 1299 1714 c 128,-1,166
 1300 1749 1300 1749 1298 1774.5 c 128,-1,167
 1296 1800 1296 1800 1291 1820.5 c 128,-1,168
 1286 1841 1286 1841 1280 1868 c 1,169,-1
 1362 1989 l 1,170,171
 1382 1878 1382 1878 1377 1796 c 128,-1,172
 1372 1714 1372 1714 1360 1663 c 1,173,-1
 1294 1624 l 1,164,165
EndSplineSet
Ligature2: "'rlig' Required Ligatures in Arabic lookup 5 subtable" afii62817 afii62818 uniFC63 afii62828
Ligature2: "'rlig' Required Ligatures in Arabic lookup 5 subtable" afii62817 afii62818 afii57457 uni0670 afii62828
EndChar

StartChar: afii57415.001
Encoding: 1575 1575 162
Width: 579
GlyphClass: 2
Flags: W
AnchorPoint: "Anchor-1" 330 -465 basechar 0
AnchorPoint: "Anchor-0" 315 1545 basechar 0
LayerCount: 2
Fore
SplineSet
129 741 m 0,0,1
 125 805 125 805 123 868 c 0,2,3
 119 985 119 985 119 1120 c 0,4,5
 119 1130 119 1130 121 1140.5 c 128,-1,6
 123 1151 123 1151 131 1167 c 0,7,8
 154 1196 154 1196 223.5 1262.5 c 128,-1,9
 293 1329 293 1329 406 1446 c 0,10,11
 422 1464 422 1464 433 1470.5 c 128,-1,12
 444 1477 444 1477 455 1477 c 0,13,14
 481 1477 481 1477 481 1401 c 0,15,16
 481 1006 481 1006 479 936 c 0,17,18
 477 821 477 821 473 721 c 0,19,20
 465 565 465 565 447.5 442 c 128,-1,21
 430 319 430 319 404.5 224 c 128,-1,22
 379 129 379 129 342 53 c 0,23,24
 328 29 328 29 315.5 14.5 c 128,-1,25
 303 0 303 0 287 0 c 0,26,27
 262 0 262 0 247.5 36 c 128,-1,28
 233 72 233 72 205.5 200 c 128,-1,29
 178 328 178 328 161.5 431.5 c 128,-1,30
 145 535 145 535 135 643 c 0,31,32
 131 692 131 692 129 741 c 0,0,1
EndSplineSet
Substitution2: "'fina' Terminal Forms in Arabic lookup 2 subtable" afii62760
EndChar

StartChar: afii62760.001
Encoding: 65558 -1 163
Width: 664
GlyphClass: 2
Flags: W
LayerCount: 2
Fore
SplineSet
129 877 m 1,0,-1
 119 1233 l 1,1,2
 246 1395 246 1395 282.5 1427.5 c 128,-1,3
 319 1460 319 1460 324 1460 c 0,4,5
 354 1460 354 1460 354 1389 c 2,6,-1
 358 1073 l 1,7,-1
 362 610 l 2,8,9
 365 594 365 594 367 565.5 c 128,-1,10
 369 537 369 537 380 509 c 128,-1,11
 391 481 391 481 412.5 460.5 c 128,-1,12
 434 440 434 440 475 440 c 2,13,-1
 664 440 l 2,14,15
 700 440 700 440 730 382 c 128,-1,16
 760 324 760 324 760 217 c 0,17,18
 760 0 760 0 666 0 c 2,19,-1
 592 0 l 2,20,21
 471 2 471 2 386 34 c 128,-1,22
 301 66 301 66 247 126 c 128,-1,23
 193 186 193 186 167 277.5 c 128,-1,24
 141 369 141 369 139 494 c 2,25,-1
 129 877 l 1,0,-1
EndSplineSet
EndChar

StartChar: afii57421
Encoding: 1581 1581 182
Width: 1247
GlyphClass: 2
Flags: W
AnchorPoint: "Anchor-1" 555 -1110 basechar 0
AnchorPoint: "Anchor-0" 645 1245 basechar 0
LayerCount: 2
Fore
SplineSet
1386 -307 m 0,0,1
 1386 -340 1386 -340 1364 -358 c 1,2,3
 1292 -401 1292 -401 1212.5 -444 c 128,-1,4
 1133 -487 1133 -487 1048 -520 c 128,-1,5
 963 -553 963 -553 878 -573.5 c 128,-1,6
 793 -594 793 -594 713 -594 c 0,7,8
 590 -594 590 -594 481.5 -557 c 128,-1,9
 373 -520 373 -520 292 -451.5 c 128,-1,10
 211 -383 211 -383 165 -281.5 c 128,-1,11
 119 -180 119 -180 119 -51 c 0,12,13
 119 68 119 68 168 170 c 128,-1,14
 217 272 217 272 296 354 c 128,-1,15
 375 436 375 436 475 496.5 c 128,-1,16
 575 557 575 557 680 592 c 1,17,18
 426 653 426 653 410 653 c 0,19,20
 375 653 375 653 328 580 c 0,21,22
 279 506 279 506 244 506 c 0,23,24
 199 506 199 506 199 553 c 0,25,26
 199 578 199 578 201 582 c 0,27,28
 299 999 299 999 487 999 c 0,29,30
 528 999 528 999 612 983 c 128,-1,31
 696 967 696 967 831 930 c 0,32,33
 911 907 911 907 992 884.5 c 128,-1,34
 1073 862 1073 862 1167 836 c 1,35,36
 1186 836 1186 836 1182 804 c 128,-1,37
 1178 772 1178 772 1168.5 724 c 128,-1,38
 1159 676 1159 676 1144.5 619.5 c 128,-1,39
 1130 563 1130 563 1118 514 c 1,40,41
 1083 510 1083 510 986 517 c 128,-1,42
 889 524 889 524 870 524 c 0,43,44
 791 524 791 524 719 490.5 c 128,-1,45
 647 457 647 457 592 398.5 c 128,-1,46
 537 340 537 340 505 263 c 128,-1,47
 473 186 473 186 473 98 c 0,48,49
 473 -20 473 -20 516 -101 c 128,-1,50
 559 -182 559 -182 633 -231.5 c 128,-1,51
 707 -281 707 -281 806 -302.5 c 128,-1,52
 905 -324 905 -324 1018 -324 c 0,53,54
 1083 -324 1083 -324 1158 -315.5 c 128,-1,55
 1233 -307 1233 -307 1323 -283 c 0,56,57
 1352 -272 1352 -272 1369 -282.5 c 128,-1,58
 1386 -293 1386 -293 1386 -307 c 0,0,1
EndSplineSet
Substitution2: "'medi' Medial Forms in Arabic lookup 3 subtable" afii62775
Substitution2: "'fina' Terminal Forms in Arabic lookup 2 subtable" afii62776
Substitution2: "'init' Initial Forms in Arabic lookup 1 subtable" afii62774
EndChar

StartChar: afii62776
Encoding: 65186 65186 183
Width: 1309
GlyphClass: 2
Flags: W
AnchorPoint: "Anchor-1" 870 -1575 basechar 0
AnchorPoint: "Anchor-0" 825 1380 basechar 0
LayerCount: 2
Fore
SplineSet
1415 211 m 0,0,1
 1415 113 1415 113 1397.5 58.5 c 128,-1,2
 1380 4 1380 4 1339 2 c 0,3,4
 1333 0 1333 0 1325 0 c 2,5,-1
 1268 0 l 2,6,7
 1047 0 1047 0 950 158 c 1,8,9
 922 217 922 217 905.5 311.5 c 128,-1,10
 889 406 889 406 889 528 c 1,11,12
 819 535 819 535 741.5 497 c 128,-1,13
 664 459 664 459 596 393.5 c 128,-1,14
 528 328 528 328 481 242 c 128,-1,15
 434 156 434 156 428 66 c 0,16,17
 422 -78 422 -78 487.5 -177 c 128,-1,18
 553 -276 553 -276 660.5 -329.5 c 128,-1,19
 768 -383 768 -383 902 -388 c 128,-1,20
 1036 -393 1036 -393 1169 -348 c 0,21,22
 1192 -338 1192 -338 1211.5 -341 c 128,-1,23
 1231 -344 1231 -344 1239 -355.5 c 128,-1,24
 1247 -367 1247 -367 1242 -386.5 c 128,-1,25
 1237 -406 1237 -406 1210 -430 c 0,26,27
 1149 -485 1149 -485 1064 -528 c 128,-1,28
 979 -571 979 -571 883.5 -597 c 128,-1,29
 788 -623 788 -623 688 -629 c 128,-1,30
 588 -635 588 -635 492.5 -619.5 c 128,-1,31
 397 -604 397 -604 315 -564 c 128,-1,32
 233 -524 233 -524 174 -455.5 c 128,-1,33
 115 -387 115 -387 84 -290 c 128,-1,34
 53 -193 53 -193 63 -61 c 0,35,36
 74 70 74 70 144.5 179.5 c 128,-1,37
 215 289 215 289 315.5 373 c 128,-1,38
 416 457 416 457 530.5 512 c 128,-1,39
 645 567 645 567 743 592 c 1,40,41
 616 621 616 621 549.5 634 c 128,-1,42
 483 647 483 647 481 647 c 0,43,44
 436 647 436 647 387 580 c 1,45,46
 342 506 342 506 307 506 c 0,47,48
 262 506 262 506 262 553 c 0,49,50
 262 573 262 573 264 582 c 0,51,52
 281 655 281 655 304.5 719.5 c 128,-1,53
 328 784 328 784 356 838 c 0,54,55
 403 922 403 922 447.5 960.5 c 128,-1,56
 492 999 492 999 551 999 c 0,57,58
 592 999 592 999 679 983 c 128,-1,59
 766 967 766 967 899 930 c 2,60,-1
 1219 838 l 1,61,62
 1237 838 1237 838 1239 805 c 128,-1,63
 1241 772 1241 772 1232 724 c 128,-1,64
 1223 676 1223 676 1208.5 619.5 c 128,-1,65
 1194 563 1194 563 1182 514 c 1,66,67
 1163 512 1163 512 1116 520 c 128,-1,68
 1069 528 1069 528 993 541 c 1,69,70
 1006 506 1006 506 1037.5 480.5 c 128,-1,71
 1069 455 1069 455 1130 444 c 0,72,73
 1151 442 1151 442 1194 441 c 128,-1,74
 1237 440 1237 440 1309 440 c 2,75,-1
 1337 440 l 2,76,77
 1378 440 1378 440 1396.5 381 c 128,-1,78
 1415 322 1415 322 1415 211 c 0,0,1
EndSplineSet
EndChar

StartChar: afii62774
Encoding: 65187 65187 184
Width: 996
GlyphClass: 2
Flags: W
AnchorPoint: "Anchor-1" 345 -630 basechar 0
AnchorPoint: "Anchor-0" 450 1305 basechar 0
LayerCount: 2
Fore
SplineSet
954 860 m 0,0,1
 954 805 954 805 947 734.5 c 128,-1,2
 940 664 940 664 918 578 c 0,3,4
 918 569 918 569 911 563 c 2,5,-1
 893 549 l 1,6,7
 870 543 870 543 852 536.5 c 128,-1,8
 834 530 834 530 819 524 c 0,9,10
 788 512 788 512 772 499.5 c 128,-1,11
 756 487 756 487 739 471 c 0,12,13
 719 451 719 451 692.5 416 c 128,-1,14
 666 381 666 381 635 328 c 1,15,16
 528 111 528 111 379 47 c 0,17,18
 332 25 332 25 235.5 12.5 c 128,-1,19
 139 0 139 0 0 0 c 2,20,-1
 -29 0 l 2,21,22
 -70 0 -70 0 -88 49 c 128,-1,23
 -106 98 -106 98 -106 188 c 0,24,25
 -106 440 -106 440 -29 440 c 2,26,-1
 0 440 l 1,27,-1
 444 455 l 2,28,29
 492 455 492 455 544 472 c 128,-1,30
 596 489 596 489 647 524 c 0,31,32
 670 537 670 537 675 548 c 128,-1,33
 680 559 680 559 680 578 c 0,34,35
 680 594 680 594 644 608.5 c 128,-1,36
 608 623 608 623 524 643 c 0,37,38
 446 659 446 659 394 667.5 c 128,-1,39
 342 676 342 676 303 676 c 0,40,41
 258 676 258 676 230.5 665.5 c 128,-1,42
 203 655 203 655 180 635 c 0,43,44
 166 623 166 623 139 563 c 1,45,46
 127 514 127 514 102 514 c 0,47,48
 80 514 80 514 75 523 c 128,-1,49
 70 532 70 532 70 549 c 0,50,51
 70 647 70 647 74 720 c 128,-1,52
 78 793 78 793 98 838 c 1,53,54
 141 1006 141 1006 303 1006 c 0,55,56
 389 1006 389 1006 542.5 981 c 128,-1,57
 696 956 696 956 918 909 c 0,58,59
 940 903 940 903 947 891 c 128,-1,60
 954 879 954 879 954 860 c 0,0,1
EndSplineSet
EndChar

StartChar: afii62775
Encoding: 65188 65188 185
Width: 1090
GlyphClass: 2
Flags: W
AnchorPoint: "Anchor-1" 495 -570 basechar 0
AnchorPoint: "Anchor-0" 495 1290 basechar 0
LayerCount: 2
Fore
SplineSet
1157 221 m 0,0,1
 1157 0 1157 0 1085 0 c 0,2,3
 971 0 971 0 892 28.5 c 128,-1,4
 813 57 813 57 760 119 c 1,5,6
 729 137 729 137 680 268 c 1,7,8
 664 334 664 334 650.5 362.5 c 128,-1,9
 637 391 637 391 635 391 c 0,10,11
 612 371 612 371 585.5 342 c 128,-1,12
 559 313 559 313 512 266 c 1,13,14
 440 182 440 182 385 131 c 128,-1,15
 330 80 330 80 285 53 c 0,16,17
 238 29 238 29 161 14.5 c 128,-1,18
 84 0 84 0 -20 0 c 0,19,20
 -41 0 -41 0 -59.5 22.5 c 128,-1,21
 -78 45 -78 45 -90 98 c 0,22,23
 -100 129 -100 129 -107.5 161 c 128,-1,24
 -115 193 -115 193 -115 221 c 0,25,26
 -115 440 -115 440 -37 440 c 2,27,-1
 322 440 l 2,28,29
 350 440 350 440 388 446.5 c 128,-1,30
 426 453 426 453 477 471 c 0,31,32
 592 506 592 506 592 553 c 0,33,34
 592 563 592 563 559 580.5 c 128,-1,35
 526 598 526 598 455 616 c 1,36,37
 389 637 389 637 349 650.5 c 128,-1,38
 309 664 309 664 287 664 c 0,39,40
 258 664 258 664 231.5 648.5 c 128,-1,41
 205 633 205 633 184 598 c 0,42,43
 164 561 164 561 148.5 544.5 c 128,-1,44
 133 528 133 528 123 528 c 0,45,46
 82 528 82 528 82 580 c 0,47,48
 82 596 82 596 87 629 c 128,-1,49
 92 662 92 662 106 721 c 0,50,51
 123 788 123 788 139.5 834.5 c 128,-1,52
 156 881 156 881 170 909 c 0,53,54
 229 999 229 999 342 999 c 0,55,56
 389 999 389 999 477 983 c 128,-1,57
 565 967 565 967 692 930 c 0,58,59
 854 887 854 887 1018 838 c 0,60,61
 1034 836 1034 836 1034 801 c 0,62,63
 1034 782 1034 782 1026 745.5 c 128,-1,64
 1018 709 1018 709 1008 653 c 0,65,66
 995 598 995 598 986 562 c 128,-1,67
 977 526 977 526 971 506 c 0,68,69
 971 496 971 496 962.5 495 c 128,-1,70
 954 494 954 494 938 494 c 0,71,72
 920 494 920 494 882 500 c 128,-1,73
 844 506 844 506 825 506 c 0,74,75
 803 506 803 506 790.5 499 c 128,-1,76
 778 492 778 492 778 487 c 0,77,78
 778 440 778 440 1085 440 c 0,79,80
 1157 440 1157 440 1157 221 c 0,0,1
EndSplineSet
EndChar

StartChar: afii57423
Encoding: 1583 1583 190
Width: 968
GlyphClass: 2
Flags: W
AnchorPoint: "Anchor-1" 420 -660 basechar 0
AnchorPoint: "Anchor-0" 495 1410 basechar 0
LayerCount: 2
Fore
SplineSet
919 494 m 2,0,1
 919 381 919 381 908 299 c 128,-1,2
 897 217 897 217 870 170 c 1,3,4
 847 119 847 119 780.5 69.5 c 128,-1,5
 714 20 714 20 616 -20 c 1,6,7
 538 -61 538 -61 469.5 -79.5 c 128,-1,8
 401 -98 401 -98 354 -98 c 0,9,10
 217 -98 217 -98 174 53 c 0,11,12
 149 133 149 133 154 267 c 128,-1,13
 159 401 159 401 170 494 c 0,14,15
 174 504 174 504 182 514 c 128,-1,16
 190 524 190 524 206 524 c 0,17,18
 256 524 256 524 256 494 c 0,19,20
 256 395 256 395 283.5 349 c 128,-1,21
 311 303 311 303 372 303 c 0,22,23
 405 303 405 303 465.5 316.5 c 128,-1,24
 526 330 526 330 610 358 c 0,25,26
 780 418 780 418 780 481 c 0,27,28
 780 565 780 565 628 692 c 0,29,30
 557 752 557 752 503.5 785.5 c 128,-1,31
 450 819 450 819 415 819 c 256,32,33
 380 819 380 819 354 795 c 1,34,35
 335 795 335 795 335 823 c 0,36,37
 335 881 335 881 389 987 c 0,38,39
 417 1047 417 1047 450 1074.5 c 128,-1,40
 483 1102 483 1102 512 1102 c 0,41,42
 600 1102 600 1102 757 901 c 1,43,44
 895 715 895 715 919 610 c 1,45,-1
 919 494 l 2,0,1
EndSplineSet
Substitution2: "'fina' Terminal Forms in Arabic lookup 2 subtable" afii62780
PairPos2: "'kern' Horizontal Kerning in Arabic lookup 0 subtable" afii57410 dx=0 dy=0 dh=0 dv=0 dx=0 dy=0 dh=-80 dv=0
PairPos2: "'kern' Horizontal Kerning in Arabic lookup 0 subtable" afii62965 dx=0 dy=0 dh=0 dv=0 dx=0 dy=0 dh=-80 dv=0
PairPos2: "'kern' Horizontal Kerning in Arabic lookup 0 subtable" afii57509 dx=0 dy=0 dh=0 dv=0 dx=0 dy=0 dh=-80 dv=0
PairPos2: "'kern' Horizontal Kerning in Arabic lookup 0 subtable" afii52305 dx=0 dy=0 dh=0 dv=0 dx=0 dy=0 dh=-80 dv=0
PairPos2: "'kern' Horizontal Kerning in Arabic lookup 0 subtable" afii57567 dx=0 dy=0 dh=0 dv=0 dx=0 dy=0 dh=-80 dv=0
EndChar

StartChar: afii62780
Encoding: 65194 65194 191
Width: 1223
GlyphClass: 2
Flags: W
AnchorPoint: "Anchor-1" 420 -645 basechar 0
AnchorPoint: "Anchor-0" 555 1515 basechar 0
LayerCount: 2
Fore
SplineSet
1317 211 m 0,0,1
 1317 106 1317 106 1294.5 53 c 128,-1,2
 1272 0 1272 0 1231 0 c 0,3,4
 1165 0 1165 0 1107 36 c 128,-1,5
 1049 72 1049 72 1001 150 c 0,6,7
 985 172 985 172 950 235.5 c 128,-1,8
 915 299 915 299 870 397 c 1,9,10
 809 291 809 291 765 223.5 c 128,-1,11
 721 156 721 156 686 115 c 0,12,13
 612 31 612 31 542.5 -8 c 128,-1,14
 473 -47 473 -47 389 -47 c 0,15,16
 311 -47 311 -47 258 -1 c 128,-1,17
 205 45 205 45 176 131 c 1,18,19
 166 178 166 178 159 258 c 128,-1,20
 152 338 152 338 152 446 c 0,21,22
 152 713 152 713 217 713 c 0,23,24
 244 713 244 713 255 692.5 c 128,-1,25
 266 672 266 672 266 643 c 0,26,27
 266 397 266 397 524 397 c 0,28,29
 567 397 567 397 613 408.5 c 128,-1,30
 659 420 659 420 696 442.5 c 128,-1,31
 733 465 733 465 757.5 498.5 c 128,-1,32
 782 532 782 532 782 578 c 0,33,34
 782 588 782 588 767 621.5 c 128,-1,35
 752 655 752 655 727 700 c 128,-1,36
 702 745 702 745 673.5 796.5 c 128,-1,37
 645 848 645 848 616.5 891 c 128,-1,38
 588 934 588 934 565.5 964.5 c 128,-1,39
 543 995 543 995 532 999 c 1,40,41
 520 1015 520 1015 541.5 1053.5 c 128,-1,42
 563 1092 563 1092 599 1150 c 128,-1,43
 635 1208 635 1208 661.5 1242 c 128,-1,44
 688 1276 688 1276 698 1286 c 1,45,46
 723 1266 723 1266 753.5 1215.5 c 128,-1,47
 784 1165 784 1165 817 1098.5 c 128,-1,48
 850 1032 850 1032 882.5 955.5 c 128,-1,49
 915 879 915 879 944 808 c 128,-1,50
 973 737 973 737 995.5 680 c 128,-1,51
 1018 623 1018 623 1030 592 c 0,52,53
 1052 528 1052 528 1094.5 494.5 c 128,-1,54
 1137 461 1137 461 1170.5 450 c 128,-1,55
 1204 439 1204 439 1255 440 c 2,56,-1
 1280 440 l 1,57,58
 1317 383 1317 383 1317 211 c 0,0,1
EndSplineSet
PairPos2: "'kern' Horizontal Kerning in Arabic lookup 0 subtable" afii57410 dx=0 dy=0 dh=0 dv=0 dx=0 dy=0 dh=-80 dv=0
PairPos2: "'kern' Horizontal Kerning in Arabic lookup 0 subtable" afii62965 dx=0 dy=0 dh=0 dv=0 dx=0 dy=0 dh=-80 dv=0
PairPos2: "'kern' Horizontal Kerning in Arabic lookup 0 subtable" afii57509 dx=0 dy=0 dh=0 dv=0 dx=0 dy=0 dh=-80 dv=0
PairPos2: "'kern' Horizontal Kerning in Arabic lookup 0 subtable" afii52305 dx=0 dy=0 dh=0 dv=0 dx=0 dy=0 dh=-80 dv=0
PairPos2: "'kern' Horizontal Kerning in Arabic lookup 0 subtable" afii57567 dx=0 dy=0 dh=0 dv=0 dx=0 dy=0 dh=-80 dv=0
EndChar

StartChar: afii57425
Encoding: 1585 1585 194
Width: 844
GlyphClass: 2
Flags: W
AnchorPoint: "Anchor-1" 315 -1110 basechar 0
AnchorPoint: "Anchor-0" 420 1005 basechar 0
LayerCount: 2
Fore
SplineSet
811 37 m 0,0,1
 811 -68 811 -68 793.5 -159 c 128,-1,2
 776 -250 776 -250 745 -336 c 1,3,4
 696 -442 696 -442 631.5 -492.5 c 128,-1,5
 567 -543 567 -543 471 -543 c 0,6,7
 424 -543 424 -543 374 -541 c 128,-1,8
 324 -539 324 -539 258 -528 c 0,9,10
 168 -516 168 -516 127 -504 c 128,-1,11
 86 -492 86 -492 86 -477 c 0,12,13
 90 -461 90 -461 166 -392.5 c 128,-1,14
 242 -324 242 -324 385 -201 c 0,15,16
 526 -84 526 -84 594 -12.5 c 128,-1,17
 662 59 662 59 662 98 c 0,18,19
 662 164 662 164 565 266 c 0,20,21
 506 326 506 326 472 361.5 c 128,-1,22
 438 397 438 397 426 418 c 1,23,24
 436 434 436 434 452.5 476 c 128,-1,25
 469 518 469 518 508 592 c 0,26,27
 590 745 590 745 600 745 c 256,28,29
 610 745 610 745 631 725 c 1,30,31
 721 592 721 592 766 423 c 128,-1,32
 811 254 811 254 811 37 c 0,0,1
EndSplineSet
Substitution2: "'fina' Terminal Forms in Arabic lookup 2 subtable" afii62782
PairPos2: "'kern' Horizontal Kerning in Arabic lookup 0 subtable" afii57415 dx=0 dy=0 dh=0 dv=0 dx=0 dy=0 dh=-150 dv=0
PairPos2: "'kern' Horizontal Kerning in Arabic lookup 0 subtable" uni0675 dx=0 dy=0 dh=0 dv=0 dx=0 dy=0 dh=-150 dv=0
PairPos2: "'kern' Horizontal Kerning in Arabic lookup 0 subtable" uni0672 dx=0 dy=0 dh=0 dv=0 dx=0 dy=0 dh=-150 dv=0
PairPos2: "'kern' Horizontal Kerning in Arabic lookup 0 subtable" afii62840 dx=0 dy=0 dh=0 dv=0 dx=0 dy=0 dh=-250 dv=0
PairPos2: "'kern' Horizontal Kerning in Arabic lookup 0 subtable" afii62838 dx=0 dy=0 dh=0 dv=0 dx=0 dy=0 dh=-250 dv=0
PairPos2: "'kern' Horizontal Kerning in Arabic lookup 0 subtable" afii62836 dx=0 dy=0 dh=0 dv=0 dx=0 dy=0 dh=-250 dv=0
PairPos2: "'kern' Horizontal Kerning in Arabic lookup 0 subtable" afii62834 dx=0 dy=0 dh=0 dv=0 dx=0 dy=0 dh=-250 dv=0
PairPos2: "'kern' Horizontal Kerning in Arabic lookup 0 subtable" afii62823 dx=0 dy=0 dh=0 dv=0 dx=0 dy=0 dh=-100 dv=0
PairPos2: "'kern' Horizontal Kerning in Arabic lookup 0 subtable" afii57445 dx=0 dy=0 dh=0 dv=0 dx=0 dy=0 dh=-80 dv=0
PairPos2: "'kern' Horizontal Kerning in Arabic lookup 0 subtable" afii62817 dx=0 dy=0 dh=0 dv=0 dx=0 dy=0 dh=-80 dv=0
PairPos2: "'kern' Horizontal Kerning in Arabic lookup 0 subtable" afii57444 dx=0 dy=0 dh=0 dv=0 dx=0 dy=0 dh=-100 dv=0
PairPos2: "'kern' Horizontal Kerning in Arabic lookup 0 subtable" afii57410 dx=0 dy=0 dh=0 dv=0 dx=0 dy=0 dh=-250 dv=0
PairPos2: "'kern' Horizontal Kerning in Arabic lookup 0 subtable" afii57443 dx=0 dy=0 dh=0 dv=0 dx=0 dy=0 dh=-80 dv=0
PairPos2: "'kern' Horizontal Kerning in Arabic lookup 0 subtable" afii57441 dx=0 dy=0 dh=0 dv=0 dx=0 dy=0 dh=-60 dv=0
PairPos2: "'kern' Horizontal Kerning in Arabic lookup 0 subtable" afii57434 dx=0 dy=0 dh=0 dv=0 dx=0 dy=0 dh=150 dv=0
PairPos2: "'kern' Horizontal Kerning in Arabic lookup 0 subtable" afii57433 dx=0 dy=0 dh=0 dv=0 dx=0 dy=0 dh=150 dv=0
PairPos2: "'kern' Horizontal Kerning in Arabic lookup 0 subtable" afii62799 dx=0 dy=0 dh=0 dv=0 dx=0 dy=0 dh=-50 dv=0
PairPos2: "'kern' Horizontal Kerning in Arabic lookup 0 subtable" afii57432 dx=0 dy=0 dh=0 dv=0 dx=0 dy=0 dh=-50 dv=0
PairPos2: "'kern' Horizontal Kerning in Arabic lookup 0 subtable" afii62796 dx=0 dy=0 dh=0 dv=0 dx=0 dy=0 dh=-50 dv=0
PairPos2: "'kern' Horizontal Kerning in Arabic lookup 0 subtable" afii57431 dx=0 dy=0 dh=0 dv=0 dx=0 dy=0 dh=-50 dv=0
PairPos2: "'kern' Horizontal Kerning in Arabic lookup 0 subtable" afii62793 dx=0 dy=0 dh=0 dv=0 dx=0 dy=0 dh=-70 dv=0
PairPos2: "'kern' Horizontal Kerning in Arabic lookup 0 subtable" afii57430 dx=0 dy=0 dh=0 dv=0 dx=0 dy=0 dh=-80 dv=0
PairPos2: "'kern' Horizontal Kerning in Arabic lookup 0 subtable" afii62790 dx=0 dy=0 dh=0 dv=0 dx=0 dy=0 dh=-70 dv=0
PairPos2: "'kern' Horizontal Kerning in Arabic lookup 0 subtable" afii57429 dx=0 dy=0 dh=0 dv=0 dx=0 dy=0 dh=-80 dv=0
PairPos2: "'kern' Horizontal Kerning in Arabic lookup 0 subtable" afii62787 dx=0 dy=0 dh=0 dv=0 dx=0 dy=0 dh=-70 dv=0
PairPos2: "'kern' Horizontal Kerning in Arabic lookup 0 subtable" afii57428 dx=0 dy=0 dh=0 dv=0 dx=0 dy=0 dh=-80 dv=0
PairPos2: "'kern' Horizontal Kerning in Arabic lookup 0 subtable" afii62784 dx=0 dy=0 dh=0 dv=0 dx=0 dy=0 dh=-70 dv=0
PairPos2: "'kern' Horizontal Kerning in Arabic lookup 0 subtable" afii57427 dx=0 dy=0 dh=0 dv=0 dx=0 dy=0 dh=-80 dv=0
PairPos2: "'kern' Horizontal Kerning in Arabic lookup 0 subtable" afii62777 dx=0 dy=0 dh=0 dv=0 dx=0 dy=0 dh=-80 dv=0
PairPos2: "'kern' Horizontal Kerning in Arabic lookup 0 subtable" afii57422 dx=0 dy=0 dh=0 dv=0 dx=0 dy=0 dh=100 dv=0
PairPos2: "'kern' Horizontal Kerning in Arabic lookup 0 subtable" afii62774 dx=0 dy=0 dh=0 dv=0 dx=0 dy=0 dh=-80 dv=0
PairPos2: "'kern' Horizontal Kerning in Arabic lookup 0 subtable" afii57421 dx=0 dy=0 dh=0 dv=0 dx=0 dy=0 dh=100 dv=0
PairPos2: "'kern' Horizontal Kerning in Arabic lookup 0 subtable" afii62771 dx=0 dy=0 dh=0 dv=0 dx=0 dy=0 dh=-80 dv=0
PairPos2: "'kern' Horizontal Kerning in Arabic lookup 0 subtable" afii57420 dx=0 dy=0 dh=0 dv=0 dx=0 dy=0 dh=100 dv=0
PairPos2: "'kern' Horizontal Kerning in Arabic lookup 0 subtable" afii62768 dx=0 dy=0 dh=0 dv=0 dx=0 dy=0 dh=-100 dv=0
PairPos2: "'kern' Horizontal Kerning in Arabic lookup 0 subtable" afii57419 dx=0 dy=0 dh=0 dv=0 dx=0 dy=0 dh=-60 dv=0
PairPos2: "'kern' Horizontal Kerning in Arabic lookup 0 subtable" afii62765 dx=0 dy=0 dh=0 dv=0 dx=0 dy=0 dh=-100 dv=0
PairPos2: "'kern' Horizontal Kerning in Arabic lookup 0 subtable" afii57418 dx=0 dy=0 dh=0 dv=0 dx=0 dy=0 dh=-60 dv=0
PairPos2: "'kern' Horizontal Kerning in Arabic lookup 0 subtable" afii62761 dx=0 dy=0 dh=0 dv=0 dx=0 dy=0 dh=-100 dv=0
PairPos2: "'kern' Horizontal Kerning in Arabic lookup 0 subtable" afii57416 dx=0 dy=0 dh=0 dv=0 dx=0 dy=0 dh=-60 dv=0
PairPos2: "'kern' Horizontal Kerning in Arabic lookup 0 subtable" afii57415.001 dx=0 dy=0 dh=0 dv=0 dx=0 dy=0 dh=-150 dv=0
PairPos2: "'kern' Horizontal Kerning in Arabic lookup 0 subtable" afii62757 dx=0 dy=0 dh=0 dv=0 dx=0 dy=0 dh=-100 dv=0
PairPos2: "'kern' Horizontal Kerning in Arabic lookup 0 subtable" afii57411 dx=0 dy=0 dh=0 dv=0 dx=0 dy=0 dh=-150 dv=0
PairPos2: "'kern' Horizontal Kerning in Arabic lookup 0 subtable" afii52399 dx=0 dy=0 dh=0 dv=0 dx=0 dy=0 dh=-50 dv=0
PairPos2: "'kern' Horizontal Kerning in Arabic lookup 0 subtable" afii62965 dx=0 dy=0 dh=0 dv=0 dx=0 dy=0 dh=-250 dv=0
PairPos2: "'kern' Horizontal Kerning in Arabic lookup 0 subtable" afii57509 dx=0 dy=0 dh=0 dv=0 dx=0 dy=0 dh=-250 dv=0
PairPos2: "'kern' Horizontal Kerning in Arabic lookup 0 subtable" afii52305 dx=0 dy=0 dh=0 dv=0 dx=0 dy=0 dh=-250 dv=0
PairPos2: "'kern' Horizontal Kerning in Arabic lookup 0 subtable" afii57567 dx=0 dy=0 dh=0 dv=0 dx=0 dy=0 dh=-250 dv=0
PairPos2: "'kern' Horizontal Kerning in Arabic lookup 0 subtable" afii62959 dx=0 dy=0 dh=0 dv=0 dx=0 dy=0 dh=-80 dv=0
PairPos2: "'kern' Horizontal Kerning in Arabic lookup 0 subtable" afii57507 dx=0 dy=0 dh=0 dv=0 dx=0 dy=0 dh=100 dv=0
PairPos2: "'kern' Horizontal Kerning in Arabic lookup 0 subtable" afii57505 dx=0 dy=0 dh=0 dv=0 dx=0 dy=0 dh=-60 dv=0
PairPos2: "'kern' Horizontal Kerning in Arabic lookup 0 subtable" afii57506 dx=0 dy=0 dh=0 dv=0 dx=0 dy=0 dh=-60 dv=0
EndChar

StartChar: afii62782
Encoding: 65198 65198 195
Width: 971
GlyphClass: 2
Flags: W
AnchorPoint: "Anchor-1" 465 -1110 basechar 0
AnchorPoint: "Anchor-0" 570 1035 basechar 0
LayerCount: 2
Fore
SplineSet
1067 244 m 0,0,1
 1067 0 1067 0 999 0 c 0,2,3
 926 0 926 0 875.5 14.5 c 128,-1,4
 825 29 825 29 795 57 c 1,5,6
 795 -246 795 -246 713 -393.5 c 128,-1,7
 631 -541 631 -541 477 -541 c 0,8,9
 432 -541 432 -541 381 -538 c 128,-1,10
 330 -535 330 -535 258 -524 c 0,11,12
 168 -512 168 -512 127 -499.5 c 128,-1,13
 86 -487 86 -487 86 -471 c 1,14,15
 90 -461 90 -461 166 -394.5 c 128,-1,16
 242 -328 242 -328 385 -201 c 1,17,18
 530 -84 530 -84 597 -12.5 c 128,-1,19
 664 59 664 59 664 100 c 0,20,21
 664 129 664 129 639 173 c 128,-1,22
 614 217 614 217 565 268 c 0,23,24
 449 383 449 383 438 420 c 1,25,26
 440 436 440 436 454.5 478 c 128,-1,27
 469 520 469 520 508 598 c 1,28,-1
 571 709 l 2,29,30
 594 745 594 745 600 745 c 0,31,32
 627 745 627 745 680 643 c 1,33,34
 702 610 702 610 717.5 576.5 c 128,-1,35
 733 543 733 543 752 512 c 0,36,37
 793 440 793 440 991 440 c 0,38,39
 1030 440 1030 440 1048.5 390 c 128,-1,40
 1067 340 1067 340 1067 244 c 0,0,1
EndSplineSet
PairPos2: "'kern' Horizontal Kerning in Arabic lookup 0 subtable" afii57415 dx=0 dy=0 dh=0 dv=0 dx=0 dy=0 dh=-70 dv=0
PairPos2: "'kern' Horizontal Kerning in Arabic lookup 0 subtable" uni0675 dx=0 dy=0 dh=0 dv=0 dx=0 dy=0 dh=-70 dv=0
PairPos2: "'kern' Horizontal Kerning in Arabic lookup 0 subtable" uni0672 dx=0 dy=0 dh=0 dv=0 dx=0 dy=0 dh=-70 dv=0
PairPos2: "'kern' Horizontal Kerning in Arabic lookup 0 subtable" afii62840 dx=0 dy=0 dh=0 dv=0 dx=0 dy=0 dh=-250 dv=0
PairPos2: "'kern' Horizontal Kerning in Arabic lookup 0 subtable" afii62838 dx=0 dy=0 dh=0 dv=0 dx=0 dy=0 dh=-250 dv=0
PairPos2: "'kern' Horizontal Kerning in Arabic lookup 0 subtable" afii62836 dx=0 dy=0 dh=0 dv=0 dx=0 dy=0 dh=-250 dv=0
PairPos2: "'kern' Horizontal Kerning in Arabic lookup 0 subtable" afii62834 dx=0 dy=0 dh=0 dv=0 dx=0 dy=0 dh=-250 dv=0
PairPos2: "'kern' Horizontal Kerning in Arabic lookup 0 subtable" afii62823 dx=0 dy=0 dh=0 dv=0 dx=0 dy=0 dh=-70 dv=0
PairPos2: "'kern' Horizontal Kerning in Arabic lookup 0 subtable" afii57445 dx=0 dy=0 dh=0 dv=0 dx=0 dy=0 dh=-100 dv=0
PairPos2: "'kern' Horizontal Kerning in Arabic lookup 0 subtable" afii62817 dx=0 dy=0 dh=0 dv=0 dx=0 dy=0 dh=-50 dv=0
PairPos2: "'kern' Horizontal Kerning in Arabic lookup 0 subtable" afii57444 dx=0 dy=0 dh=0 dv=0 dx=0 dy=0 dh=-100 dv=0
PairPos2: "'kern' Horizontal Kerning in Arabic lookup 0 subtable" afii57410 dx=0 dy=0 dh=0 dv=0 dx=0 dy=0 dh=-250 dv=0
PairPos2: "'kern' Horizontal Kerning in Arabic lookup 0 subtable" afii57443 dx=0 dy=0 dh=0 dv=0 dx=0 dy=0 dh=-50 dv=0
PairPos2: "'kern' Horizontal Kerning in Arabic lookup 0 subtable" afii57441 dx=0 dy=0 dh=0 dv=0 dx=0 dy=0 dh=-90 dv=0
PairPos2: "'kern' Horizontal Kerning in Arabic lookup 0 subtable" afii57434 dx=0 dy=0 dh=0 dv=0 dx=0 dy=0 dh=150 dv=0
PairPos2: "'kern' Horizontal Kerning in Arabic lookup 0 subtable" afii57433 dx=0 dy=0 dh=0 dv=0 dx=0 dy=0 dh=150 dv=0
PairPos2: "'kern' Horizontal Kerning in Arabic lookup 0 subtable" afii57422 dx=0 dy=0 dh=0 dv=0 dx=0 dy=0 dh=150 dv=0
PairPos2: "'kern' Horizontal Kerning in Arabic lookup 0 subtable" afii57421 dx=0 dy=0 dh=0 dv=0 dx=0 dy=0 dh=150 dv=0
PairPos2: "'kern' Horizontal Kerning in Arabic lookup 0 subtable" afii57420 dx=0 dy=0 dh=0 dv=0 dx=0 dy=0 dh=150 dv=0
PairPos2: "'kern' Horizontal Kerning in Arabic lookup 0 subtable" afii62768 dx=0 dy=0 dh=0 dv=0 dx=0 dy=0 dh=-70 dv=0
PairPos2: "'kern' Horizontal Kerning in Arabic lookup 0 subtable" afii57419 dx=0 dy=0 dh=0 dv=0 dx=0 dy=0 dh=-90 dv=0
PairPos2: "'kern' Horizontal Kerning in Arabic lookup 0 subtable" afii62765 dx=0 dy=0 dh=0 dv=0 dx=0 dy=0 dh=-70 dv=0
PairPos2: "'kern' Horizontal Kerning in Arabic lookup 0 subtable" afii57418 dx=0 dy=0 dh=0 dv=0 dx=0 dy=0 dh=-90 dv=0
PairPos2: "'kern' Horizontal Kerning in Arabic lookup 0 subtable" afii57416 dx=0 dy=0 dh=0 dv=0 dx=0 dy=0 dh=-90 dv=0
PairPos2: "'kern' Horizontal Kerning in Arabic lookup 0 subtable" afii57415.001 dx=0 dy=0 dh=0 dv=0 dx=0 dy=0 dh=-70 dv=0
PairPos2: "'kern' Horizontal Kerning in Arabic lookup 0 subtable" afii62757 dx=0 dy=0 dh=0 dv=0 dx=0 dy=0 dh=-70 dv=0
PairPos2: "'kern' Horizontal Kerning in Arabic lookup 0 subtable" afii57411 dx=0 dy=0 dh=0 dv=0 dx=0 dy=0 dh=-70 dv=0
PairPos2: "'kern' Horizontal Kerning in Arabic lookup 0 subtable" afii62965 dx=0 dy=0 dh=0 dv=0 dx=0 dy=0 dh=-250 dv=0
PairPos2: "'kern' Horizontal Kerning in Arabic lookup 0 subtable" afii57509 dx=0 dy=0 dh=0 dv=0 dx=0 dy=0 dh=-250 dv=0
PairPos2: "'kern' Horizontal Kerning in Arabic lookup 0 subtable" afii52305 dx=0 dy=0 dh=0 dv=0 dx=0 dy=0 dh=-250 dv=0
PairPos2: "'kern' Horizontal Kerning in Arabic lookup 0 subtable" afii57567 dx=0 dy=0 dh=0 dv=0 dx=0 dy=0 dh=-250 dv=0
PairPos2: "'kern' Horizontal Kerning in Arabic lookup 0 subtable" afii57507 dx=0 dy=0 dh=0 dv=0 dx=0 dy=0 dh=150 dv=0
PairPos2: "'kern' Horizontal Kerning in Arabic lookup 0 subtable" afii57505 dx=0 dy=0 dh=0 dv=0 dx=0 dy=0 dh=-90 dv=0
PairPos2: "'kern' Horizontal Kerning in Arabic lookup 0 subtable" afii57506 dx=0 dy=0 dh=0 dv=0 dx=0 dy=0 dh=-90 dv=0
EndChar

StartChar: afii57427
Encoding: 1587 1587 198
Width: 1990
GlyphClass: 2
Flags: W
AnchorPoint: "Anchor-1" 1155 -900 basechar 0
AnchorPoint: "Anchor-0" 1185 1155 basechar 0
LayerCount: 2
Fore
SplineSet
1944 532 m 0,0,1
 1944 442 1944 442 1931.5 362.5 c 128,-1,2
 1919 283 1919 283 1890 211 c 0,3,4
 1853 109 1853 109 1803 56.5 c 128,-1,5
 1753 4 1753 4 1679 4 c 0,6,7
 1620 4 1620 4 1572 47 c 128,-1,8
 1524 90 1524 90 1497 168 c 1,9,10
 1462 123 1462 123 1439.5 92 c 128,-1,11
 1417 61 1417 61 1397 45 c 0,12,13
 1343 4 1343 4 1237 4 c 2,14,-1
 1180 6 l 1,15,16
 1178 -92 1178 -92 1128.5 -184 c 128,-1,17
 1079 -276 1079 -276 1002.5 -349 c 128,-1,18
 926 -422 926 -422 828.5 -466 c 128,-1,19
 731 -510 731 -510 633 -510 c 0,20,21
 385 -510 385 -510 254 -376 c 128,-1,22
 123 -242 123 -242 123 4 c 0,23,24
 123 51 123 51 130 112.5 c 128,-1,25
 137 174 137 174 156 248 c 0,26,27
 199 428 199 428 266 428 c 0,28,29
 293 428 293 428 293 389 c 0,30,31
 293 379 293 379 290 352.5 c 128,-1,32
 287 326 287 326 272 291 c 1,33,34
 260 250 260 250 257 221.5 c 128,-1,35
 254 193 254 193 254 176 c 0,36,37
 254 -131 254 -131 670 -131 c 0,38,39
 727 -131 727 -131 783.5 -117.5 c 128,-1,40
 840 -104 840 -104 899 -82 c 1,41,42
 971 -47 971 -47 1005.5 -13.5 c 128,-1,43
 1040 20 1040 20 1040 68 c 0,44,45
 1040 113 1040 113 1030 156 c 128,-1,46
 1020 199 1020 199 995 236 c 1,47,48
 985 260 985 260 962.5 284.5 c 128,-1,49
 940 309 940 309 911 334 c 1,50,51
 889 360 889 360 874.5 376.5 c 128,-1,52
 860 393 860 393 856 401 c 1,53,54
 870 432 870 432 894 473 c 128,-1,55
 918 514 918 514 950 567 c 0,56,57
 1018 692 1018 692 1047 692 c 0,58,59
 1063 692 1063 692 1165 582 c 0,60,61
 1262 473 1262 473 1337 473 c 0,62,63
 1376 473 1376 473 1395.5 490.5 c 128,-1,64
 1415 508 1415 508 1425 541 c 0,65,66
 1430 547 1430 547 1436 577.5 c 128,-1,67
 1442 608 1442 608 1450 668 c 0,68,69
 1458 729 1458 729 1497 729 c 0,70,71
 1511 729 1511 729 1518.5 718 c 128,-1,72
 1526 707 1526 707 1526 674 c 0,73,74
 1526 578 1526 578 1573 518 c 1,75,76
 1624 442 1624 442 1720 442 c 0,77,78
 1821 442 1821 442 1821 502 c 0,79,80
 1821 549 1821 549 1753 592 c 0,81,82
 1679 639 1679 639 1679 666 c 0,83,84
 1679 678 1679 678 1688.5 710.5 c 128,-1,85
 1698 743 1698 743 1722 786 c 1,86,87
 1767 899 1767 899 1794 899 c 1,88,89
 1851 883 1851 883 1905 731 c 0,90,91
 1944 623 1944 623 1944 532 c 0,0,1
EndSplineSet
Substitution2: "'medi' Medial Forms in Arabic lookup 3 subtable" afii62785
Substitution2: "'fina' Terminal Forms in Arabic lookup 2 subtable" afii62786
Substitution2: "'init' Initial Forms in Arabic lookup 1 subtable" afii62784
EndChar

StartChar: afii62786
Encoding: 65202 65202 199
Width: 2054
GlyphClass: 2
Flags: W
AnchorPoint: "Anchor-1" 1395 -855 basechar 0
AnchorPoint: "Anchor-0" 1275 1155 basechar 0
LayerCount: 2
Fore
SplineSet
2150 244 m 0,0,1
 2150 29 2150 29 2093 2 c 0,2,3
 2091 2 2091 2 2085 1 c 128,-1,4
 2079 0 2079 0 2056 0 c 0,5,6
 1847 0 1847 0 1784 162 c 1,7,8
 1753 80 1753 80 1715 40 c 128,-1,9
 1677 0 1677 0 1624 0 c 0,10,11
 1554 0 1554 0 1515.5 54 c 128,-1,12
 1477 108 1477 108 1454 162 c 1,13,14
 1432 121 1432 121 1411.5 91 c 128,-1,15
 1391 61 1391 61 1360 37 c 0,16,17
 1331 18 1331 18 1294 9 c 128,-1,18
 1257 0 1257 0 1217 0 c 0,19,20
 1196 0 1196 0 1175.5 1 c 128,-1,21
 1155 2 1155 2 1147 4 c 1,22,23
 1147 -135 1147 -135 1018 -303 c 0,24,25
 936 -408 936 -408 834.5 -457 c 128,-1,26
 733 -506 733 -506 616 -506 c 0,27,28
 375 -506 375 -506 247 -374 c 128,-1,29
 119 -242 119 -242 119 0 c 0,30,31
 119 53 119 53 123 108.5 c 128,-1,32
 127 164 127 164 139 238 c 1,33,34
 184 410 184 410 254 410 c 0,35,36
 264 410 264 410 273.5 400.5 c 128,-1,37
 283 391 283 391 283 371 c 0,38,39
 283 352 283 352 279.5 325.5 c 128,-1,40
 276 299 276 299 266 268 c 0,41,42
 250 193 250 193 250 168 c 0,43,44
 250 -131 250 -131 653 -131 c 0,45,46
 713 -131 713 -131 770 -121 c 128,-1,47
 827 -111 827 -111 874 -86 c 1,48,49
 1018 -29 1018 -29 1018 72 c 0,50,51
 1018 111 1018 111 1005.5 146.5 c 128,-1,52
 993 182 993 182 971 223 c 0,53,54
 954 248 954 248 937 273.5 c 128,-1,55
 920 299 920 299 885 336 c 1,56,57
 836 377 836 377 836 391 c 0,58,59
 836 410 836 410 920 543 c 1,60,61
 967 608 967 608 992.5 638 c 128,-1,62
 1018 668 1018 668 1022 674 c 1,63,64
 1038 666 1038 666 1069 636 c 128,-1,65
 1100 606 1100 606 1147 549 c 1,66,67
 1237 455 1237 455 1294 455 c 0,68,69
 1368 455 1368 455 1393 524 c 0,70,71
 1397 537 1397 537 1402 565.5 c 128,-1,72
 1407 594 1407 594 1417 643 c 1,73,74
 1425 713 1425 713 1458 713 c 0,75,76
 1481 713 1481 713 1499 643 c 1,77,78
 1509 586 1509 586 1513.5 553 c 128,-1,79
 1518 520 1518 520 1528 508 c 1,80,81
 1542 469 1542 469 1565.5 454.5 c 128,-1,82
 1589 440 1589 440 1618 440 c 0,83,84
 1657 440 1657 440 1682.5 454.5 c 128,-1,85
 1708 469 1708 469 1720 508 c 0,86,87
 1729 524 1729 524 1734 557 c 128,-1,88
 1739 590 1739 590 1745 643 c 0,89,90
 1751 713 1751 713 1784 713 c 0,91,92
 1794 713 1794 713 1804.5 701.5 c 128,-1,93
 1815 690 1815 690 1817 666 c 2,94,-1
 1817 653 l 2,95,96
 1817 645 1817 645 1818 634 c 128,-1,97
 1819 623 1819 623 1823 606 c 0,98,99
 1829 440 1829 440 2054 440 c 0,100,101
 2089 440 2089 440 2108.5 419.5 c 128,-1,102
 2128 399 2128 399 2138 371 c 0,103,104
 2146 352 2146 352 2148 320.5 c 128,-1,105
 2150 289 2150 289 2150 244 c 0,0,1
EndSplineSet
EndChar

StartChar: afii62784
Encoding: 65203 65203 200
Width: 1100
GlyphClass: 2
Flags: W
AnchorPoint: "Anchor-1" 375 -615 basechar 0
AnchorPoint: "Anchor-0" 525 1110 basechar 0
LayerCount: 2
Fore
SplineSet
1077 369 m 0,0,1
 1077 303 1077 303 1063 246.5 c 128,-1,2
 1049 190 1049 190 1016 131 c 0,3,4
 946 0 946 0 836 0 c 0,5,6
 778 0 778 0 724 45 c 128,-1,7
 670 90 670 90 635 180 c 1,8,9
 635 145 635 145 618.5 117.5 c 128,-1,10
 602 90 602 90 573 61 c 0,11,12
 506 0 506 0 442 0 c 0,13,14
 369 0 369 0 336 61 c 0,15,16
 326 82 326 82 313.5 109.5 c 128,-1,17
 301 137 301 137 283 184 c 1,18,19
 197 -2 197 -2 -33 -2 c 0,20,21
 -115 -2 -115 -2 -115 223 c 0,22,23
 -115 256 -115 256 -109.5 286.5 c 128,-1,24
 -104 317 -104 317 -98 346 c 1,25,26
 -80 391 -80 391 -65.5 415.5 c 128,-1,27
 -51 440 -51 440 -29 440 c 2,28,-1
 70 440 l 2,29,30
 266 440 266 440 266 666 c 0,31,32
 266 727 266 727 293 727 c 0,33,34
 322 727 322 727 328 653 c 0,35,36
 334 606 334 606 340 570.5 c 128,-1,37
 346 535 346 535 354 514 c 0,38,39
 381 442 381 442 465 442 c 256,40,41
 549 442 549 442 592 514 c 1,42,43
 598 537 598 537 602 571.5 c 128,-1,44
 606 606 606 606 610 653 c 0,45,46
 614 690 614 690 623.5 708.5 c 128,-1,47
 633 727 633 727 643 727 c 0,48,49
 676 727 676 727 676 643 c 1,50,51
 680 594 680 594 682 555 c 128,-1,52
 684 516 684 516 698 494 c 0,53,54
 733 418 733 418 825 418 c 0,55,56
 979 418 979 418 979 481 c 0,57,58
 979 510 979 510 918 565 c 1,59,60
 854 604 854 604 850 631 c 1,61,62
 860 653 860 653 870.5 683 c 128,-1,63
 881 713 881 713 901 760 c 0,64,65
 948 852 948 852 971 852 c 0,66,67
 997 852 997 852 1012.5 818 c 128,-1,68
 1028 784 1028 784 1047 702 c 0,69,70
 1067 610 1067 610 1072 525 c 128,-1,71
 1077 440 1077 440 1077 369 c 0,0,1
EndSplineSet
EndChar

StartChar: afii62785
Encoding: 65204 65204 201
Width: 1253
GlyphClass: 2
Flags: W
AnchorPoint: "Anchor-1" 510 -690 basechar 0
AnchorPoint: "Anchor-0" 615 1125 basechar 0
LayerCount: 2
Fore
SplineSet
1341 221 m 0,0,1
 1341 0 1341 0 1253 0 c 0,2,3
 1044 0 1044 0 979 168 c 1,4,5
 942 76 942 76 895 30 c 128,-1,6
 848 -16 848 -16 801 -16 c 0,7,8
 688 -16 688 -16 625 168 c 1,9,10
 600 76 600 76 554 30 c 128,-1,11
 508 -16 508 -16 446 -16 c 0,12,13
 352 -16 352 -16 268 168 c 1,14,15
 266 139 266 139 237.5 113.5 c 128,-1,16
 209 88 209 88 156 53 c 1,17,18
 106 29 106 29 67.5 14.5 c 128,-1,19
 29 0 29 0 0 0 c 2,20,-1
 -27 0 l 2,21,22
 -61 0 -61 0 -80.5 49 c 128,-1,23
 -100 98 -100 98 -100 188 c 0,24,25
 -100 440 -100 440 -27 440 c 2,26,-1
 0 440 l 2,27,28
 76 440 76 440 120 448.5 c 128,-1,29
 164 457 164 457 188.5 476.5 c 128,-1,30
 213 496 213 496 222 528.5 c 128,-1,31
 231 561 231 561 238 610 c 0,32,33
 256 702 256 702 268 702 c 0,34,35
 301 702 301 702 307 631 c 1,36,37
 315 584 315 584 323.5 550 c 128,-1,38
 332 516 332 516 342 494 c 0,39,40
 354 459 354 459 382 442.5 c 128,-1,41
 410 426 410 426 446 426 c 0,42,43
 530 426 530 426 565 494 c 0,44,45
 575 516 575 516 579.5 550 c 128,-1,46
 584 584 584 584 592 631 c 0,47,48
 604 702 604 702 625 702 c 0,49,50
 651 702 651 702 659 631 c 0,51,52
 664 584 664 584 673 550 c 128,-1,53
 682 516 682 516 692 494 c 0,54,55
 709 459 709 459 736.5 442.5 c 128,-1,56
 764 426 764 426 801 426 c 0,57,58
 883 426 883 426 918 494 c 0,59,60
 928 510 928 510 932 546 c 128,-1,61
 936 582 936 582 946 631 c 1,62,63
 952 702 952 702 979 702 c 0,64,65
 995 702 995 702 1005.5 679.5 c 128,-1,66
 1016 657 1016 657 1018 610 c 0,67,68
 1030 506 1030 506 1062 474 c 128,-1,69
 1094 442 1094 442 1157 442 c 2,70,-1
 1217 442 l 2,71,72
 1245 442 1245 442 1268.5 432 c 128,-1,73
 1292 422 1292 422 1303 406 c 0,74,75
 1325 379 1325 379 1333 333 c 128,-1,76
 1341 287 1341 287 1341 221 c 0,0,1
EndSplineSet
EndChar

StartChar: afii57429
Encoding: 1589 1589 206
Width: 2222
GlyphClass: 2
Flags: W
AnchorPoint: "Anchor-1" 1050 -960 basechar 0
AnchorPoint: "Anchor-0" 1200 1245 basechar 0
LayerCount: 2
Fore
SplineSet
2189 725 m 0,0,1
 2189 459 2189 459 1942 223 c 1,2,3
 1700 0 1700 0 1430 0 c 0,4,5
 1325 0 1325 0 1258.5 16.5 c 128,-1,6
 1192 33 1192 33 1157 74 c 1,7,8
 1157 -203 1157 -203 1007.5 -358.5 c 128,-1,9
 858 -514 858 -514 582 -514 c 0,10,11
 475 -514 475 -514 389 -479 c 128,-1,12
 303 -444 303 -444 238 -369 c 0,13,14
 176 -303 176 -303 147.5 -212 c 128,-1,15
 119 -121 119 -121 119 -4 c 0,16,17
 119 51 119 51 122 101.5 c 128,-1,18
 125 152 125 152 139 211 c 0,19,20
 166 369 166 369 223 369 c 0,21,22
 233 369 233 369 242.5 363.5 c 128,-1,23
 252 358 252 358 258 354 c 1,24,-1
 266 328 l 1,25,26
 254 238 254 238 246 190 c 0,27,28
 240 152 240 152 238 152 c 1,29,30
 240 -131 240 -131 647 -131 c 0,31,32
 709 -131 709 -131 768 -124 c 128,-1,33
 827 -117 827 -117 881 -98 c 0,34,35
 954 -72 954 -72 988 -31 c 128,-1,36
 1022 10 1022 10 1022 57 c 256,37,38
 1022 104 1022 104 1004.5 150.5 c 128,-1,39
 987 197 987 197 946 244 c 1,40,41
 899 291 899 291 879.5 319.5 c 128,-1,42
 860 348 860 348 860 354 c 0,43,44
 860 367 860 367 876.5 406.5 c 128,-1,45
 893 446 893 446 930 512 c 0,46,47
 971 578 971 578 996.5 611.5 c 128,-1,48
 1022 645 1022 645 1034 653 c 1,49,50
 1055 653 1055 653 1067 625 c 1,51,52
 1188 485 1188 485 1303 442 c 1,53,54
 1366 535 1366 535 1433.5 612.5 c 128,-1,55
 1501 690 1501 690 1581 764 c 0,56,57
 1679 856 1679 856 1766 903 c 128,-1,58
 1853 950 1853 950 1937 950 c 0,59,60
 2060 950 2060 950 2124.5 894 c 128,-1,61
 2189 838 2189 838 2189 725 c 0,0,1
1980 553 m 0,62,63
 1980 608 1980 608 1934 642 c 128,-1,64
 1888 676 1888 676 1835 676 c 0,65,66
 1741 676 1741 676 1610 592 c 1,67,68
 1487 518 1487 518 1425 426 c 1,69,-1
 1759 426 l 1,70,71
 1870 442 1870 442 1925 475 c 128,-1,72
 1980 508 1980 508 1980 553 c 0,62,63
EndSplineSet
Substitution2: "'medi' Medial Forms in Arabic lookup 3 subtable" afii62791
Substitution2: "'fina' Terminal Forms in Arabic lookup 2 subtable" afii62792
Substitution2: "'init' Initial Forms in Arabic lookup 1 subtable" afii62790
EndChar

StartChar: afii62792
Encoding: 65210 65210 207
Width: 2236
GlyphClass: 2
Flags: W
AnchorPoint: "Anchor-1" 1350 -810 basechar 0
AnchorPoint: "Anchor-0" 1425 1245 basechar 0
LayerCount: 2
Fore
SplineSet
2331 244 m 0,0,1
 2331 45 2331 45 2275 2 c 0,2,3
 2273 2 2273 2 2251.5 1 c 128,-1,4
 2230 0 2230 0 2189 0 c 0,5,6
 2124 0 2124 0 2076 8 c 128,-1,7
 2028 16 2028 16 1993 33 c 0,8,9
 1952 55 1952 55 1920 92 c 128,-1,10
 1888 129 1888 129 1864 170 c 1,11,12
 1706 0 1706 0 1434 0 c 0,13,14
 1327 0 1327 0 1259.5 16.5 c 128,-1,15
 1192 33 1192 33 1157 74 c 1,16,17
 1157 -203 1157 -203 1006.5 -355.5 c 128,-1,18
 856 -508 856 -508 580 -508 c 0,19,20
 463 -508 463 -508 377 -475 c 128,-1,21
 291 -442 291 -442 231 -371 c 0,22,23
 172 -305 172 -305 145.5 -215 c 128,-1,24
 119 -125 119 -125 119 -4 c 0,25,26
 119 45 119 45 122 98.5 c 128,-1,27
 125 152 125 152 135 211 c 0,28,29
 166 369 166 369 223 369 c 0,30,31
 229 369 229 369 237.5 363.5 c 128,-1,32
 246 358 246 358 256 354 c 1,33,-1
 258 328 l 1,34,35
 248 238 248 238 243 194 c 128,-1,36
 238 150 238 150 238 152 c 1,37,38
 238 2 238 2 341 -68.5 c 128,-1,39
 444 -139 444 -139 653 -139 c 0,40,41
 774 -139 774 -139 885 -102 c 0,42,43
 956 -78 956 -78 989 -37 c 128,-1,44
 1022 4 1022 4 1022 57 c 0,45,46
 1022 104 1022 104 1003.5 150.5 c 128,-1,47
 985 197 985 197 938 244 c 0,48,49
 852 338 852 338 852 354 c 0,50,51
 852 367 852 367 872.5 406.5 c 128,-1,52
 893 446 893 446 930 512 c 0,53,54
 971 578 971 578 995.5 611.5 c 128,-1,55
 1020 645 1020 645 1030 653 c 1,56,57
 1040 653 1040 653 1050.5 646 c 128,-1,58
 1061 639 1061 639 1067 625 c 1,59,60
 1126 553 1126 553 1186.5 508 c 128,-1,61
 1247 463 1247 463 1303 442 c 1,62,63
 1358 535 1358 535 1425.5 611.5 c 128,-1,64
 1493 688 1493 688 1577 764 c 0,65,66
 1677 856 1677 856 1765 903 c 128,-1,67
 1853 950 1853 950 1933 950 c 0,68,69
 2054 950 2054 950 2119.5 878.5 c 128,-1,70
 2185 807 2185 807 2185 680 c 0,71,72
 2185 633 2185 633 2160.5 576.5 c 128,-1,73
 2136 520 2136 520 2093 455 c 1,74,75
 2116 444 2116 444 2136.5 442 c 128,-1,76
 2157 440 2157 440 2179 440 c 2,77,-1
 2241 440 l 2,78,79
 2265 440 2265 440 2279.5 431 c 128,-1,80
 2294 422 2294 422 2310 406 c 1,81,82
 2331 358 2331 358 2331 244 c 0,0,1
1980 553 m 0,83,84
 1980 582 1980 582 1969 602.5 c 128,-1,85
 1958 623 1958 623 1933 643 c 0,86,87
 1880 676 1880 676 1833 676 c 0,88,89
 1741 676 1741 676 1608 592 c 0,90,91
 1548 555 1548 555 1502 516 c 128,-1,92
 1456 477 1456 477 1425 426 c 1,93,-1
 1681 426 l 2,94,95
 1733 426 1733 426 1780 435 c 128,-1,96
 1827 444 1827 444 1864 455 c 0,97,98
 1980 487 1980 487 1980 553 c 0,83,84
EndSplineSet
EndChar

StartChar: afii62790
Encoding: 65211 65211 208
Width: 1356
GlyphClass: 2
Flags: W
AnchorPoint: "Anchor-1" 405 -690 basechar 0
AnchorPoint: "Anchor-0" 480 1230 basechar 0
LayerCount: 2
Fore
SplineSet
1245 745 m 0,0,1
 1245 635 1245 635 1202 519 c 128,-1,2
 1159 403 1159 403 1067 279 c 0,3,4
 963 133 963 133 844 58.5 c 128,-1,5
 725 -16 725 -16 598 -16 c 0,6,7
 340 -16 340 -16 250 184 c 1,8,9
 203 92 203 92 137.5 46 c 128,-1,10
 72 0 72 0 -20 0 c 0,11,12
 -61 0 -61 0 -80.5 49 c 128,-1,13
 -100 98 -100 98 -100 188 c 0,14,15
 -100 440 -100 440 -27 440 c 0,16,17
 20 440 20 440 119 446 c 1,18,19
 176 481 176 481 195 543 c 0,20,21
 199 547 199 547 201 570.5 c 128,-1,22
 203 594 203 594 211 635 c 1,23,24
 211 676 211 676 244 676 c 0,25,26
 258 676 258 676 287 565 c 0,27,28
 303 512 303 512 323.5 479 c 128,-1,29
 344 446 344 446 371 442 c 1,30,-1
 391 455 l 1,31,32
 446 545 446 545 510.5 620.5 c 128,-1,33
 575 696 575 696 653 766 c 0,34,35
 754 856 754 856 841 902 c 128,-1,36
 928 948 928 948 1008 948 c 0,37,38
 1051 948 1051 948 1093 934 c 128,-1,39
 1135 920 1135 920 1168.5 894 c 128,-1,40
 1202 868 1202 868 1223.5 830.5 c 128,-1,41
 1245 793 1245 793 1245 745 c 0,0,1
1049 543 m 0,42,43
 1049 664 1049 664 901 664 c 0,44,45
 854 664 854 664 797.5 645.5 c 128,-1,46
 741 627 741 627 676 592 c 0,47,48
 616 559 616 559 572 520 c 128,-1,49
 528 481 528 481 494 440 c 1,50,-1
 494 420 l 1,51,52
 530 403 530 403 601 397 c 128,-1,53
 672 391 672 391 778 391 c 0,54,55
 823 391 823 391 866 397 c 128,-1,56
 909 403 909 403 950 426 c 1,57,58
 1049 469 1049 469 1049 543 c 0,42,43
EndSplineSet
EndChar

StartChar: afii62791
Encoding: 65212 65212 209
Width: 1253
GlyphClass: 2
Flags: W
AnchorPoint: "Anchor-1" 360 -615 basechar 0
AnchorPoint: "Anchor-0" 420 1155 basechar 0
LayerCount: 2
Fore
SplineSet
1339 221 m 0,0,1
 1339 0 1339 0 1253 0 c 0,2,3
 1208 0 1208 0 1165 8 c 128,-1,4
 1122 16 1122 16 1081 33 c 0,5,6
 979 78 979 78 946 135 c 1,7,8
 926 109 926 109 888 81 c 128,-1,9
 850 53 850 53 791 27 c 0,10,11
 731 4 731 4 683 -8 c 128,-1,12
 635 -20 635 -20 598 -20 c 0,13,14
 338 -20 338 -20 250 184 c 1,15,16
 221 135 221 135 195.5 98 c 128,-1,17
 170 61 170 61 139 39 c 0,18,19
 111 23 111 23 71 11.5 c 128,-1,20
 31 0 31 0 -20 0 c 0,21,22
 -45 0 -45 0 -62.5 21.5 c 128,-1,23
 -80 43 -80 43 -98 90 c 1,24,25
 -104 121 -104 121 -109.5 151.5 c 128,-1,26
 -115 182 -115 182 -115 217 c 0,27,28
 -115 442 -115 442 -37 442 c 0,29,30
 -20 440 -20 440 -6 440 c 2,31,-1
 39 440 l 2,32,33
 141 440 141 440 170 494 c 0,34,35
 180 516 180 516 190.5 548 c 128,-1,36
 201 580 201 580 209 616 c 1,37,38
 211 676 211 676 244 676 c 0,39,40
 258 676 258 676 287 565 c 0,41,42
 303 512 303 512 323.5 479 c 128,-1,43
 344 446 344 446 371 442 c 1,44,-1
 391 455 l 1,45,46
 446 545 446 545 510.5 620.5 c 128,-1,47
 575 696 575 696 653 766 c 0,48,49
 754 856 754 856 841 902 c 128,-1,50
 928 948 928 948 1008 948 c 0,51,52
 1051 948 1051 948 1093 934 c 128,-1,53
 1135 920 1135 920 1168.5 894 c 128,-1,54
 1202 868 1202 868 1223.5 830.5 c 128,-1,55
 1245 793 1245 793 1245 745 c 0,56,57
 1245 676 1245 676 1225.5 606.5 c 128,-1,58
 1206 537 1206 537 1169 457 c 1,59,60
 1178 440 1178 440 1253 440 c 0,61,62
 1339 440 1339 440 1339 221 c 0,0,1
1049 543 m 0,63,64
 1049 664 1049 664 901 664 c 0,65,66
 854 664 854 664 797.5 645.5 c 128,-1,67
 741 627 741 627 676 592 c 0,68,69
 616 559 616 559 572 520 c 128,-1,70
 528 481 528 481 494 440 c 1,71,-1
 494 420 l 1,72,73
 530 403 530 403 601 397 c 128,-1,74
 672 391 672 391 778 391 c 0,75,76
 823 391 823 391 866 397 c 128,-1,77
 909 403 909 403 950 426 c 1,78,79
 1049 469 1049 469 1049 543 c 0,63,64
EndSplineSet
EndChar

StartChar: afii57431
Encoding: 1591 1591 214
Width: 1473
GlyphClass: 2
Flags: W
AnchorPoint: "Anchor-1" 645 -585 basechar 0
AnchorPoint: "Anchor-0" 960 1545 basechar 0
LayerCount: 2
Fore
SplineSet
1438 745 m 0,0,1
 1438 616 1438 616 1377.5 488 c 128,-1,2
 1317 360 1317 360 1194 244 c 1,3,4
 954 0 954 0 692 0 c 0,5,6
 606 0 606 0 516 25.5 c 128,-1,7
 426 51 426 51 336 106 c 0,8,9
 289 131 289 131 251 163 c 128,-1,10
 213 195 213 195 184 231 c 0,11,12
 147 272 147 272 131 315 c 128,-1,13
 115 358 115 358 115 397 c 2,14,-1
 119 438 l 1,15,16
 127 442 127 442 156 442 c 2,17,-1
 211 442 l 2,18,19
 231 444 231 444 253.5 443 c 128,-1,20
 276 442 276 442 307 442 c 0,21,22
 324 440 324 440 336 440 c 2,23,-1
 397 440 l 2,24,25
 432 440 432 440 444.5 452.5 c 128,-1,26
 457 465 457 465 455 494 c 0,27,28
 446 594 446 594 442 674 c 128,-1,29
 438 754 438 754 426 819 c 0,30,31
 403 924 403 924 377.5 1012 c 128,-1,32
 352 1100 352 1100 317 1167 c 0,33,34
 317 1174 317 1174 313 1175 c 128,-1,35
 309 1176 309 1176 309 1190 c 256,36,37
 309 1204 309 1204 528 1513 c 1,38,39
 535 1532 535 1532 553 1532 c 256,40,41
 571 1532 571 1532 580 1499 c 0,42,43
 616 1386 616 1386 645 1302.5 c 128,-1,44
 674 1219 674 1219 692 1161 c 0,45,46
 715 1094 715 1094 729 1047 c 1,47,48
 729 1028 729 1028 714.5 1023 c 128,-1,49
 700 1018 700 1018 666 1016 c 1,50,51
 618 1004 618 1004 592 1018 c 1,52,-1
 592 606 l 1,53,54
 647 674 647 674 719 731 c 128,-1,55
 791 788 791 788 874 848 c 1,56,57
 1073 971 1073 971 1217 971 c 0,58,59
 1260 971 1260 971 1299.5 952.5 c 128,-1,60
 1339 934 1339 934 1370 902 c 128,-1,61
 1401 870 1401 870 1419.5 829 c 128,-1,62
 1438 788 1438 788 1438 745 c 0,0,1
1217 598 m 0,63,64
 1217 623 1217 623 1204.5 643.5 c 128,-1,65
 1192 664 1192 664 1157 676 c 1,66,67
 1137 688 1137 688 1111 693 c 128,-1,68
 1085 698 1085 698 1059 698 c 0,69,70
 999 698 999 698 930.5 674.5 c 128,-1,71
 862 651 862 651 791 610 c 1,72,73
 725 578 725 578 669.5 535 c 128,-1,74
 614 492 614 492 567 440 c 1,75,-1
 909 440 l 2,76,77
 977 440 977 440 1026 443 c 128,-1,78
 1075 446 1075 446 1104 457 c 0,79,80
 1217 496 1217 496 1217 598 c 0,63,64
EndSplineSet
Substitution2: "'medi' Medial Forms in Arabic lookup 3 subtable" afii62797
Substitution2: "'fina' Terminal Forms in Arabic lookup 2 subtable" afii62798
Substitution2: "'init' Initial Forms in Arabic lookup 1 subtable" afii62796
EndChar

StartChar: afii62798
Encoding: 65218 65218 215
Width: 1499
GlyphClass: 2
Flags: W
AnchorPoint: "Anchor-1" 765 -600 basechar 0
AnchorPoint: "Anchor-0" 1005 1575 basechar 0
LayerCount: 2
Fore
SplineSet
1597 244 m 0,0,1
 1597 0 1597 0 1526 0 c 0,2,3
 1255 0 1255 0 1104 168 c 1,4,5
 1075 131 1075 131 1027 98.5 c 128,-1,6
 979 66 979 66 918 37 c 0,7,8
 793 -16 793 -16 692 -16 c 0,9,10
 522 -16 522 -16 328 106 c 0,11,12
 219 172 219 172 169 242.5 c 128,-1,13
 119 313 119 313 119 397 c 2,14,-1
 119 438 l 1,15,16
 135 442 135 442 158 442 c 2,17,-1
 211 442 l 2,18,19
 231 444 231 444 255 443 c 128,-1,20
 279 442 279 442 309 442 c 0,21,22
 330 440 330 440 344 440 c 2,23,-1
 406 440 l 2,24,25
 467 440 467 440 457 494 c 1,26,27
 449 594 449 594 444.5 674 c 128,-1,28
 440 754 440 754 426 819 c 1,29,30
 395 1024 395 1024 324 1167 c 1,31,-1
 319 1180 l 2,32,33
 317 1186 317 1186 317 1190 c 256,34,35
 317 1194 317 1194 330.5 1212.5 c 128,-1,36
 344 1231 344 1231 369 1270 c 2,37,-1
 494 1454 l 2,38,39
 543 1532 543 1532 563 1532 c 0,40,41
 567 1532 567 1532 572.5 1525 c 128,-1,42
 578 1518 578 1518 582 1499 c 2,43,-1
 659 1274 l 2,44,45
 696 1157 696 1157 714.5 1103 c 128,-1,46
 733 1049 733 1049 733 1047 c 0,47,48
 733 1028 733 1028 719 1023 c 128,-1,49
 705 1018 705 1018 676 1016 c 1,50,51
 625 1004 625 1004 598 1018 c 1,52,-1
 592 606 l 1,53,54
 653 676 653 676 723 735.5 c 128,-1,55
 793 795 793 795 881 850 c 0,56,57
 983 909 983 909 1064 940 c 128,-1,58
 1145 971 1145 971 1219 971 c 0,59,60
 1315 971 1315 971 1372 895 c 1,61,62
 1442 825 1442 825 1442 745 c 0,63,64
 1442 571 1442 571 1343 455 c 1,65,66
 1362 444 1362 444 1381.5 442 c 128,-1,67
 1401 440 1401 440 1430 440 c 2,68,-1
 1503 440 l 2,69,70
 1530 440 1530 440 1547.5 431 c 128,-1,71
 1565 422 1565 422 1577 406 c 0,72,73
 1591 379 1591 379 1594 339 c 128,-1,74
 1597 299 1597 299 1597 244 c 0,0,1
1219 598 m 0,75,76
 1219 623 1219 623 1205.5 643.5 c 128,-1,77
 1192 664 1192 664 1157 676 c 1,78,79
 1122 698 1122 698 1065 698 c 0,80,81
 1006 698 1006 698 938 674.5 c 128,-1,82
 870 651 870 651 795 610 c 0,83,84
 670 545 670 545 578 440 c 1,85,-1
 913 440 l 2,86,87
 979 440 979 440 1028 443 c 128,-1,88
 1077 446 1077 446 1108 457 c 0,89,90
 1219 494 1219 494 1219 598 c 0,75,76
EndSplineSet
EndChar

StartChar: afii62796
Encoding: 65219 65219 216
Width: 1287
GlyphClass: 2
Flags: W
AnchorPoint: "Anchor-1" 495 -660 basechar 0
AnchorPoint: "Anchor-0" 825 1500 basechar 0
LayerCount: 2
Fore
SplineSet
1241 745 m 0,0,1
 1241 616 1241 616 1179.5 487 c 128,-1,2
 1118 358 1118 358 999 238 c 1,3,4
 877 121 877 121 753 60.5 c 128,-1,5
 629 0 629 0 494 0 c 2,6,-1
 184 0 l 2,7,8
 82 0 82 0 -53 -2 c 0,9,10
 -127 -2 -127 -2 -127 188 c 0,11,12
 -127 440 -127 440 -53 440 c 2,13,-1
 201 440 l 2,14,15
 258 440 258 440 258 494 c 0,16,17
 252 586 252 586 246 667 c 128,-1,18
 240 748 240 748 225 819 c 1,19,20
 215 893 215 893 201.5 954.5 c 128,-1,21
 188 1016 188 1016 168 1067 c 1,22,-1
 145 1110 l 2,23,24
 135 1133 135 1133 121 1167 c 0,25,26
 119 1171 119 1171 119 1178 c 2,27,-1
 119 1190 l 2,28,29
 119 1212 119 1212 205 1336 c 128,-1,30
 291 1460 291 1460 328 1513 c 0,31,32
 342 1538 342 1538 354 1538 c 0,33,34
 358 1538 358 1538 365.5 1529 c 128,-1,35
 373 1520 373 1520 379 1499 c 0,36,37
 532 1059 532 1059 532 1053 c 0,38,39
 532 1030 532 1030 498.5 1023 c 128,-1,40
 465 1016 465 1016 395 1018 c 1,41,-1
 391 606 l 1,42,43
 451 676 451 676 522.5 735.5 c 128,-1,44
 594 795 594 795 676 850 c 1,45,46
 778 909 778 909 861 940 c 128,-1,47
 944 971 944 971 1018 971 c 0,48,49
 1063 971 1063 971 1098 953.5 c 128,-1,50
 1133 936 1133 936 1169 895 c 1,51,52
 1241 827 1241 827 1241 745 c 0,0,1
1018 598 m 0,53,54
 1018 698 1018 698 860 698 c 0,55,56
 799 698 799 698 734.5 674.5 c 128,-1,57
 670 651 670 651 592 610 c 0,58,59
 526 578 526 578 475 535 c 128,-1,60
 424 492 424 492 371 440 c 1,61,-1
 713 440 l 2,62,63
 776 440 776 440 825 443 c 128,-1,64
 874 446 874 446 909 455 c 0,65,66
 1018 496 1018 496 1018 598 c 0,53,54
EndSplineSet
EndChar

StartChar: afii62797
Encoding: 65220 65220 217
Width: 1294
GlyphClass: 2
Flags: W
AnchorPoint: "Anchor-1" 480 -675 basechar 0
AnchorPoint: "Anchor-0" 840 1485 basechar 0
LayerCount: 2
Fore
SplineSet
1386 221 m 0,0,1
 1386 111 1386 111 1361.5 55.5 c 128,-1,2
 1337 0 1337 0 1294 0 c 0,3,4
 1051 0 1051 0 901 168 c 1,5,6
 834 84 834 84 728.5 42 c 128,-1,7
 623 0 623 0 487 0 c 2,8,-1
 -20 0 l 2,9,10
 -66 0 -66 0 -90 90 c 0,11,12
 -100 119 -100 119 -103 149.5 c 128,-1,13
 -106 180 -106 180 -106 221 c 0,14,15
 -106 440 -106 440 -37 440 c 2,16,-1
 201 440 l 2,17,18
 258 440 258 440 258 494 c 0,19,20
 252 586 252 586 246 667 c 128,-1,21
 240 748 240 748 225 819 c 0,22,23
 207 930 207 930 181.5 1019 c 128,-1,24
 156 1108 156 1108 121 1167 c 0,25,26
 119 1169 119 1169 119 1184 c 0,27,28
 119 1198 119 1198 129 1218.5 c 128,-1,29
 139 1239 139 1239 205.5 1332 c 128,-1,30
 272 1425 272 1425 287 1454 c 1,31,32
 344 1532 344 1532 358 1532 c 0,33,34
 369 1532 369 1532 379 1499 c 2,35,-1
 532 1047 l 1,36,37
 547 1024 547 1024 477 1016 c 1,38,-1
 426 1016 l 2,39,40
 403 1016 403 1016 395 1018 c 1,41,-1
 391 606 l 1,42,43
 451 676 451 676 522.5 735.5 c 128,-1,44
 594 795 594 795 676 850 c 1,45,46
 778 909 778 909 861 940 c 128,-1,47
 944 971 944 971 1018 971 c 0,48,49
 1063 971 1063 971 1098 953.5 c 128,-1,50
 1133 936 1133 936 1169 895 c 1,51,52
 1241 827 1241 827 1241 745 c 0,53,54
 1241 569 1241 569 1143 455 c 1,55,56
 1161 444 1161 444 1185.5 442 c 128,-1,57
 1210 440 1210 440 1237 440 c 2,58,-1
 1286 440 l 2,59,60
 1309 440 1309 440 1326 430 c 128,-1,61
 1343 420 1343 420 1352 397 c 1,62,63
 1386 362 1386 362 1386 221 c 0,0,1
1018 598 m 0,64,65
 1018 698 1018 698 860 698 c 0,66,67
 799 698 799 698 734.5 674.5 c 128,-1,68
 670 651 670 651 592 610 c 0,69,70
 526 578 526 578 475 535 c 128,-1,71
 424 492 424 492 371 440 c 1,72,-1
 713 440 l 2,73,74
 776 440 776 440 825 443 c 128,-1,75
 874 446 874 446 909 455 c 0,76,77
 1018 496 1018 496 1018 598 c 0,64,65
EndSplineSet
EndChar

StartChar: afii57433
Encoding: 1593 1593 222
Width: 1207
GlyphClass: 2
Flags: W
AnchorPoint: "Anchor-1" 570 -1155 basechar 0
AnchorPoint: "Anchor-0" 675 1455 basechar 0
LayerCount: 2
Fore
SplineSet
831 408 m 0,0,1
 766 406 766 406 694.5 382 c 128,-1,2
 623 358 623 358 559.5 311 c 128,-1,3
 496 264 496 264 452 193.5 c 128,-1,4
 408 123 408 123 399 27 c 1,5,6
 399 -92 399 -92 442 -173 c 128,-1,7
 485 -254 485 -254 559 -303 c 128,-1,8
 633 -352 633 -352 732 -373.5 c 128,-1,9
 831 -395 831 -395 944 -395 c 0,10,11
 1010 -395 1010 -395 1084.5 -387 c 128,-1,12
 1159 -379 1159 -379 1249 -354 c 0,13,14
 1278 -344 1278 -344 1295.5 -354.5 c 128,-1,15
 1313 -365 1313 -365 1313 -379 c 0,16,17
 1313 -412 1313 -412 1290 -430 c 0,18,19
 1219 -473 1219 -473 1139 -516 c 128,-1,20
 1059 -559 1059 -559 974 -592 c 128,-1,21
 889 -625 889 -625 804 -645.5 c 128,-1,22
 719 -666 719 -666 639 -666 c 0,23,24
 516 -666 516 -666 407.5 -629 c 128,-1,25
 299 -592 299 -592 218 -523.5 c 128,-1,26
 137 -455 137 -455 91 -353.5 c 128,-1,27
 45 -252 45 -252 45 -123 c 0,28,29
 47 -14 47 -14 89 80 c 128,-1,30
 131 174 131 174 186.5 246.5 c 128,-1,31
 242 319 242 319 296 365.5 c 128,-1,32
 350 412 350 412 379 426 c 1,33,-1
 279 494 l 1,34,35
 211 559 211 559 211 592 c 256,36,37
 211 625 211 625 226.5 661.5 c 128,-1,38
 242 698 242 698 272 752 c 0,39,40
 311 815 311 815 365.5 900 c 128,-1,41
 420 985 420 985 494 1102 c 1,42,43
 553 1171 553 1171 615.5 1207 c 128,-1,44
 678 1243 678 1243 750 1243 c 0,45,46
 926 1243 926 1243 999 979 c 0,47,48
 1006 944 1006 944 1011 924.5 c 128,-1,49
 1016 905 1016 905 1016 893 c 0,50,51
 1016 879 1016 879 1011 868.5 c 128,-1,52
 1006 858 1006 858 999 850 c 1,53,54
 983 852 983 852 941 861 c 128,-1,55
 899 870 899 870 836 893 c 0,56,57
 786 909 786 909 743 913.5 c 128,-1,58
 700 918 700 918 659 918 c 0,59,60
 623 918 623 918 593 913.5 c 128,-1,61
 563 909 563 909 532 895 c 0,62,63
 494 879 494 879 475.5 857.5 c 128,-1,64
 457 836 457 836 457 801 c 0,65,66
 457 748 457 748 565 680 c 1,67,68
 604 666 604 666 646 654.5 c 128,-1,69
 688 643 688 643 729 643 c 2,70,-1
 795 643 l 2,71,72
 817 643 817 643 837.5 646 c 128,-1,73
 858 649 858 649 885 653 c 0,74,75
 956 662 956 662 997 663 c 128,-1,76
 1038 664 1038 664 1049 666 c 0,77,78
 1085 666 1085 666 1085 643 c 0,79,80
 1085 641 1085 641 1075 608 c 128,-1,81
 1065 575 1065 575 1050.5 537.5 c 128,-1,82
 1036 500 1036 500 1023 467 c 128,-1,83
 1010 434 1010 434 1008 432 c 0,84,85
 1001 422 1001 422 993 410.5 c 128,-1,86
 985 399 985 399 971 399 c 0,87,88
 967 397 967 397 946.5 399 c 128,-1,89
 926 401 926 401 901.5 403.5 c 128,-1,90
 877 406 877 406 856.5 408 c 128,-1,91
 836 410 836 410 831 408 c 0,0,1
EndSplineSet
Substitution2: "'medi' Medial Forms in Arabic lookup 3 subtable" afii62803
Substitution2: "'fina' Terminal Forms in Arabic lookup 2 subtable" afii62804
Substitution2: "'init' Initial Forms in Arabic lookup 1 subtable" afii62802
EndChar

StartChar: afii62804
Encoding: 65226 65226 223
Width: 1274
GlyphClass: 2
Flags: W
AnchorPoint: "Anchor-1" 720 -1170 basechar 0
AnchorPoint: "Anchor-0" 855 1170 basechar 0
LayerCount: 2
Fore
SplineSet
1362 211 m 0,0,1
 1362 106 1362 106 1341.5 53 c 128,-1,2
 1321 0 1321 0 1274 0 c 0,3,4
 1155 0 1155 0 1072 23.5 c 128,-1,5
 989 47 989 47 937 100.5 c 128,-1,6
 885 154 885 154 860.5 238 c 128,-1,7
 836 322 836 322 836 442 c 1,8,-1
 827 446 l 1,9,10
 768 426 768 426 717 386 c 128,-1,11
 666 346 666 346 629 293 c 128,-1,12
 592 240 592 240 570.5 175.5 c 128,-1,13
 549 111 549 111 549 41 c 0,14,15
 549 -78 549 -78 592 -159 c 128,-1,16
 635 -240 635 -240 708.5 -289 c 128,-1,17
 782 -338 782 -338 881.5 -359.5 c 128,-1,18
 981 -381 981 -381 1094 -381 c 0,19,20
 1159 -381 1159 -381 1234 -373 c 128,-1,21
 1309 -365 1309 -365 1399 -340 c 0,22,23
 1427 -330 1427 -330 1444.5 -340 c 128,-1,24
 1462 -350 1462 -350 1462 -365 c 0,25,26
 1462 -397 1462 -397 1440 -416 c 1,27,28
 1368 -459 1368 -459 1288 -502 c 128,-1,29
 1208 -545 1208 -545 1123 -577.5 c 128,-1,30
 1038 -610 1038 -610 953 -630.5 c 128,-1,31
 868 -651 868 -651 788 -651 c 0,32,33
 666 -651 666 -651 557.5 -614.5 c 128,-1,34
 449 -578 449 -578 368 -509 c 128,-1,35
 287 -440 287 -440 241 -339 c 128,-1,36
 195 -238 195 -238 195 -109 c 0,37,38
 195 4 195 4 240 100.5 c 128,-1,39
 285 197 285 197 357.5 276.5 c 128,-1,40
 430 356 430 356 524 416.5 c 128,-1,41
 618 477 618 477 717 516 c 1,42,43
 754 555 754 555 716 616.5 c 128,-1,44
 678 678 678 678 541 727 c 0,45,46
 506 741 506 741 491.5 751.5 c 128,-1,47
 477 762 477 762 477 764 c 0,48,49
 477 803 477 803 522 830.5 c 128,-1,50
 567 858 567 858 627.5 876.5 c 128,-1,51
 688 895 688 895 748.5 904 c 128,-1,52
 809 913 809 913 838 913 c 0,53,54
 889 913 889 913 941 901 c 128,-1,55
 993 889 993 889 1035 863.5 c 128,-1,56
 1077 838 1077 838 1103.5 798 c 128,-1,57
 1130 758 1130 758 1130 702 c 0,58,59
 1130 672 1130 672 1111 636 c 128,-1,60
 1092 600 1092 600 1062 568.5 c 128,-1,61
 1032 537 1032 537 998.5 513 c 128,-1,62
 965 489 965 489 938 481 c 1,63,64
 938 440 938 440 1274 440 c 2,65,-1
 1292 440 l 2,66,67
 1329 440 1329 440 1345.5 381 c 128,-1,68
 1362 322 1362 322 1362 211 c 0,0,1
EndSplineSet
EndChar

StartChar: afii62802
Encoding: 65227 65227 224
Width: 939
GlyphClass: 2
Flags: W
AnchorPoint: "Anchor-1" 300 -570 basechar 0
AnchorPoint: "Anchor-0" 540 1350 basechar 0
LayerCount: 2
Fore
SplineSet
881 395 m 2,0,1
 881 326 881 326 867.5 235.5 c 128,-1,2
 854 145 854 145 831 37 c 0,3,4
 827 29 827 29 820 24.5 c 128,-1,5
 813 20 813 20 795 20 c 0,6,7
 717 20 717 20 567 98 c 1,8,9
 502 45 502 45 408.5 22.5 c 128,-1,10
 315 0 315 0 195 0 c 2,11,-1
 -53 0 l 2,12,13
 -90 0 -90 0 -108.5 50 c 128,-1,14
 -127 100 -127 100 -127 195 c 0,15,16
 -127 250 -127 250 -123 299 c 128,-1,17
 -119 348 -119 348 -106 383 c 1,18,19
 -94 436 -94 436 -74 440 c 1,20,-1
 139 440 l 1,21,22
 127 461 127 461 127 514 c 0,23,24
 127 606 127 606 179 712.5 c 128,-1,25
 231 819 231 819 336 948 c 0,26,27
 373 993 373 993 398.5 1021 c 128,-1,28
 424 1049 424 1049 438 1059 c 0,29,30
 467 1085 467 1085 501 1096.5 c 128,-1,31
 535 1108 535 1108 567 1108 c 0,32,33
 621 1108 621 1108 672 1077.5 c 128,-1,34
 723 1047 723 1047 770 985 c 1,35,36
 816 917 816 917 837.5 867 c 128,-1,37
 859 817 859 817 862 760 c 1,38,39
 784 774 784 774 712.5 784.5 c 128,-1,40
 641 795 641 795 578 795 c 0,41,42
 528 795 528 795 486 785.5 c 128,-1,43
 444 776 444 776 410 766 c 1,44,45
 369 745 369 745 343 715.5 c 128,-1,46
 317 686 317 686 317 647 c 0,47,48
 317 618 317 618 333.5 589.5 c 128,-1,49
 350 561 350 561 379 524 c 0,50,51
 410 489 410 489 442.5 471 c 128,-1,52
 475 453 475 453 506 446 c 0,53,54
 629 426 629 426 740.5 434 c 128,-1,55
 852 442 852 442 862 442 c 0,56,57
 866 442 866 442 868 441 c 128,-1,58
 870 440 870 440 872 440 c 2,59,-1
 874 440 l 1,60,61
 879 430 879 430 880 420 c 128,-1,62
 881 410 881 410 881 406 c 2,63,-1
 881 395 l 2,0,1
EndSplineSet
EndChar

StartChar: afii62803
Encoding: 65228 65228 225
Width: 770
GlyphClass: 2
Flags: W
AnchorPoint: "Anchor-1" 300 -675 basechar 0
AnchorPoint: "Anchor-0" 435 1260 basechar 0
LayerCount: 2
Fore
SplineSet
860 221 m 0,0,1
 860 0 860 0 770 0 c 0,2,3
 692 0 692 0 635 12.5 c 128,-1,4
 578 25 578 25 535 54.5 c 128,-1,5
 492 84 492 84 461 133 c 128,-1,6
 430 182 430 182 406 256 c 1,7,8
 395 213 395 213 353 170 c 128,-1,9
 311 127 311 127 238 86 c 1,10,11
 172 41 172 41 112.5 20.5 c 128,-1,12
 53 0 53 0 0 0 c 2,13,-1
 -20 0 l 2,14,15
 -68 0 -68 0 -87 68.5 c 128,-1,16
 -106 137 -106 137 -106 279 c 0,17,18
 -106 383 -106 383 -86 410 c 0,19,20
 -76 422 -76 422 -50.5 431 c 128,-1,21
 -25 440 -25 440 12 440 c 2,22,-1
 102 440 l 2,23,24
 219 440 219 440 280.5 463.5 c 128,-1,25
 342 487 342 487 342 541 c 0,26,27
 342 569 342 569 316.5 599 c 128,-1,28
 291 629 291 629 244 664 c 0,29,30
 156 729 156 729 98 739 c 0,31,32
 80 743 80 743 75 748.5 c 128,-1,33
 70 754 70 754 70 764 c 0,34,35
 70 805 70 805 110 839.5 c 128,-1,36
 150 874 150 874 238 913 c 0,37,38
 311 944 311 944 372.5 957.5 c 128,-1,39
 434 971 434 971 487 971 c 0,40,41
 535 971 535 971 576.5 959.5 c 128,-1,42
 618 948 618 948 653 920 c 1,43,44
 739 868 739 868 739 778 c 0,45,46
 739 729 739 729 719.5 690 c 128,-1,47
 700 651 700 651 666 616 c 0,48,49
 649 602 649 602 620.5 583.5 c 128,-1,50
 592 565 592 565 549 543 c 1,51,52
 481 498 481 498 481 477 c 0,53,54
 481 455 481 455 491.5 447.5 c 128,-1,55
 502 440 502 440 524 440 c 2,56,-1
 766 440 l 2,57,58
 860 440 860 440 860 221 c 0,0,1
EndSplineSet
EndChar

StartChar: afii57443
Encoding: 1603 1603 238
Width: 1643
GlyphClass: 2
Flags: W
AnchorPoint: "Anchor-1" 735 -630 basechar 0
AnchorPoint: "Anchor-0" 780 1425 basechar 0
LayerCount: 2
Fore
SplineSet
1458 170 m 2,0,1
 1456 168 1456 168 1451 164 c 128,-1,2
 1446 160 1446 160 1442 156 c 0,3,4
 1417 104 1417 104 1378 72.5 c 128,-1,5
 1339 41 1339 41 1286 20 c 0,6,7
 1262 8 1262 8 1225 4 c 128,-1,8
 1188 0 1188 0 1139 0 c 2,9,-1
 514 0 l 2,10,11
 322 0 322 0 230.5 100.5 c 128,-1,12
 139 201 139 201 139 406 c 2,13,-1
 139 600 l 2,14,15
 139 627 139 627 141 657.5 c 128,-1,16
 143 688 143 688 152 727 c 0,17,18
 180 821 180 821 209 821 c 0,19,20
 242 821 242 821 246 750 c 0,21,22
 250 733 250 733 251 721 c 128,-1,23
 252 709 252 709 252 698 c 2,24,-1
 252 653 l 1,25,26
 256 600 256 600 279.5 558 c 128,-1,27
 303 516 303 516 356 487 c 1,28,29
 389 463 389 463 438 451.5 c 128,-1,30
 487 440 487 440 549 440 c 2,31,-1
 1190 440 l 1,32,33
 1327 444 1327 444 1327 592 c 0,34,35
 1327 610 1327 610 1305.5 734 c 128,-1,36
 1284 858 1284 858 1239 1081 c 0,37,38
 1229 1149 1229 1149 1223 1186 c 0,39,40
 1217 1219 1217 1219 1217 1219 c 2,41,42
 1217 1233 1217 1233 1221 1245 c 0,43,44
 1223 1251 1223 1251 1225 1255 c 0,45,46
 1278 1321 1278 1321 1337.5 1388.5 c 128,-1,47
 1397 1456 1397 1456 1468 1526 c 1,48,49
 1477 1524 1477 1524 1490 1475.5 c 128,-1,50
 1503 1427 1503 1427 1532 1331 c 0,51,52
 1548 1274 1548 1274 1565.5 1222.5 c 128,-1,53
 1583 1171 1583 1171 1602 1114 c 0,54,55
 1602 1106 1602 1106 1599.5 1099 c 128,-1,56
 1597 1092 1597 1092 1583 1085 c 1,57,58
 1538 1085 1538 1085 1491 1059 c 1,59,60
 1493 1051 1493 1051 1495 1004.5 c 128,-1,61
 1497 958 1497 958 1499 896 c 128,-1,62
 1501 834 1501 834 1503 763 c 128,-1,63
 1505 692 1505 692 1506 631.5 c 128,-1,64
 1507 571 1507 571 1509 532.5 c 128,-1,65
 1511 494 1511 494 1511 442 c 0,66,67
 1511 391 1511 391 1498 313.5 c 128,-1,68
 1485 236 1485 236 1456 172 c 1,69,-1
 1458 170 l 2,0,1
995 1049 m 2,70,71
 997 1038 997 1038 993 1024 c 128,-1,72
 989 1010 989 1010 980 995.5 c 128,-1,73
 971 981 971 981 958.5 968.5 c 128,-1,74
 946 956 946 956 936 952 c 0,75,76
 870 940 870 940 786 900 c 128,-1,77
 702 860 702 860 590 801 c 1,78,79
 580 801 580 801 580 819 c 0,80,81
 580 864 580 864 709 948 c 1,82,83
 616 1028 616 1028 616 1051 c 0,84,85
 616 1079 616 1079 637.5 1109 c 128,-1,86
 659 1139 659 1139 698 1176 c 0,87,88
 733 1208 733 1208 765 1220.5 c 128,-1,89
 797 1233 797 1233 825 1233 c 0,90,91
 922 1233 922 1233 952 1161 c 1,92,-1
 952 1145 l 1,93,-1
 920 1145 l 2,94,95
 899 1145 899 1145 878.5 1144 c 128,-1,96
 858 1143 858 1143 825 1137 c 1,97,98
 719 1135 719 1135 719 1104 c 0,99,100
 719 1094 719 1094 730 1083.5 c 128,-1,101
 741 1073 741 1073 764 1051 c 1,102,103
 817 1018 817 1018 834 1018 c 0,104,105
 838 1018 838 1018 876.5 1029 c 128,-1,106
 915 1040 915 1040 989 1059 c 1,107,-1
 995 1051 l 1,108,-1
 995 1049 l 2,70,71
EndSplineSet
Substitution2: "'medi' Medial Forms in Arabic lookup 3 subtable" afii52306
Substitution2: "'fina' Terminal Forms in Arabic lookup 2 subtable" afii62816
Substitution2: "'init' Initial Forms in Arabic lookup 1 subtable" afii52305
EndChar

StartChar: afii62816
Encoding: 65242 65242 239
Width: 1681
GlyphClass: 2
Flags: W
AnchorPoint: "Anchor-1" 735 -570 basechar 0
AnchorPoint: "Anchor-0" 780 1530 basechar 0
LayerCount: 2
Fore
SplineSet
1759 223 m 0,0,1
 1759 0 1759 0 1686 0 c 0,2,3
 1577 0 1577 0 1498 66.5 c 128,-1,4
 1419 133 1419 133 1389 244 c 1,5,6
 1298 25 1298 25 1108 0 c 1,7,-1
 526 0 l 2,8,9
 145 0 145 0 145 406 c 1,10,-1
 152 596 l 2,11,12
 156 702 156 702 175.5 763.5 c 128,-1,13
 195 825 195 825 225 821 c 0,14,15
 242 817 242 817 250 801.5 c 128,-1,16
 258 786 258 786 262 767 c 128,-1,17
 266 748 266 748 266 727 c 2,18,-1
 266 653 l 2,19,20
 268 596 268 596 295 555 c 128,-1,21
 322 514 322 514 362.5 487.5 c 128,-1,22
 403 461 403 461 456.5 449.5 c 128,-1,23
 510 438 510 438 567 440 c 2,24,-1
 1077 440 l 1,25,26
 1126 446 1126 446 1158 466.5 c 128,-1,27
 1190 487 1190 487 1208.5 518 c 128,-1,28
 1227 549 1227 549 1234 587 c 128,-1,29
 1241 625 1241 625 1241 662 c 2,30,-1
 1221 1335 l 1,31,-1
 1423 1493 l 1,32,33
 1423 1329 1423 1329 1424 1216.5 c 128,-1,34
 1425 1104 1425 1104 1426 1030 c 128,-1,35
 1427 956 1427 956 1427 915 c 0,36,37
 1427 877 1427 877 1428.5 856.5 c 128,-1,38
 1430 836 1430 836 1430 831 c 2,39,-1
 1430 825 l 1,40,41
 1423 655 1423 655 1489.5 552 c 128,-1,42
 1556 449 1556 449 1686 440 c 0,43,44
 1720 438 1720 438 1739.5 382 c 128,-1,45
 1759 326 1759 326 1759 223 c 0,0,1
979 1151 m 2,46,47
 981 1141 981 1141 975 1125.5 c 128,-1,48
 969 1110 969 1110 959.5 1095.5 c 128,-1,49
 950 1081 950 1081 938 1069 c 128,-1,50
 926 1057 926 1057 915 1053 c 0,51,52
 850 1042 850 1042 768 1002.5 c 128,-1,53
 686 963 686 963 571 903 c 1,54,55
 555 903 555 903 555 926 c 0,56,57
 555 965 555 965 688 1047 c 1,58,59
 643 1085 643 1085 617.5 1111 c 128,-1,60
 592 1137 592 1137 592 1153 c 0,61,62
 592 1178 592 1178 614.5 1208.5 c 128,-1,63
 637 1239 637 1239 676 1274 c 0,64,65
 713 1307 713 1307 742.5 1321 c 128,-1,66
 772 1335 772 1335 807 1335 c 0,67,68
 858 1335 858 1335 886.5 1319 c 128,-1,69
 915 1303 915 1303 930 1268 c 1,70,-1
 930 1243 l 1,71,-1
 897 1243 l 2,72,73
 883 1243 883 1243 860.5 1242 c 128,-1,74
 838 1241 838 1241 807 1237 c 0,75,76
 694 1227 694 1227 694 1206 c 0,77,78
 694 1196 694 1196 707.5 1186 c 128,-1,79
 721 1176 721 1176 745 1153 c 1,80,81
 768 1137 768 1137 784.5 1126.5 c 128,-1,82
 801 1116 801 1116 811 1116 c 0,83,84
 815 1116 815 1116 857 1127.5 c 128,-1,85
 899 1139 899 1139 971 1161 c 1,86,-1
 979 1157 l 1,87,-1
 979 1151 l 2,46,47
EndSplineSet
EndChar

StartChar: afii57444
Encoding: 1604 1604 242
Width: 1571
GlyphClass: 2
Flags: W
AnchorPoint: "Anchor-1" 615 -1110 basechar 0
AnchorPoint: "Anchor-0" 870 1620 basechar 0
LayerCount: 2
Fore
SplineSet
1524 1085 m 1,0,1
 1513 1075 1513 1075 1486.5 1069 c 128,-1,2
 1460 1063 1460 1063 1417 1053 c 1,3,4
 1417 1004 1417 1004 1414 890 c 128,-1,5
 1411 776 1411 776 1403 592 c 1,6,-1
 1397 231 l 2,7,8
 1391 59 1391 59 1344.5 -74 c 128,-1,9
 1298 -207 1298 -207 1204 -317 c 0,10,11
 1014 -539 1014 -539 676 -539 c 0,12,13
 418 -539 418 -539 266 -401 c 1,14,15
 119 -260 119 -260 119 0 c 0,16,17
 119 53 119 53 134.5 130 c 128,-1,18
 150 207 150 207 184 317 c 0,19,20
 264 549 264 549 342 549 c 0,21,22
 358 549 358 549 358 524 c 0,23,24
 358 512 358 512 349 479 c 128,-1,25
 340 446 340 446 317 391 c 0,26,27
 272 270 272 270 272 211 c 0,28,29
 272 55 272 55 420 -29 c 1,30,31
 483 -70 483 -70 555 -86 c 128,-1,32
 627 -102 627 -102 713 -102 c 0,33,34
 815 -102 815 -102 902 -80.5 c 128,-1,35
 989 -59 989 -59 1067 -16 c 0,36,37
 1253 90 1253 90 1253 268 c 0,38,39
 1253 326 1253 326 1232.5 457 c 128,-1,40
 1212 588 1212 588 1167 811 c 0,41,42
 1141 932 1141 932 1117.5 1041.5 c 128,-1,43
 1094 1151 1094 1151 1067 1253 c 1,44,-1
 1067 1262 l 2,45,46
 1067 1296 1067 1296 1204 1430 c 0,47,48
 1272 1493 1272 1493 1314 1528 c 128,-1,49
 1356 1563 1356 1563 1368 1571 c 0,50,51
 1374 1571 1374 1571 1382.5 1554.5 c 128,-1,52
 1391 1538 1391 1538 1397 1511 c 0,53,54
 1409 1468 1409 1468 1426.5 1403.5 c 128,-1,55
 1444 1339 1444 1339 1466 1253 c 1,56,57
 1493 1210 1493 1210 1513 1120 c 1,58,-1
 1524 1085 l 1,0,1
EndSplineSet
Substitution2: "'medi' Medial Forms in Arabic lookup 3 subtable" afii62818
Substitution2: "'fina' Terminal Forms in Arabic lookup 2 subtable" afii62819
Substitution2: "'init' Initial Forms in Arabic lookup 1 subtable" afii62817
EndChar

StartChar: afii62817
Encoding: 65247 65247 243
Width: 539
GlyphClass: 2
Flags: W
AnchorPoint: "Anchor-1" 150 -660 basechar 0
AnchorPoint: "Anchor-0" 240 1650 basechar 0
LayerCount: 2
Fore
SplineSet
481 1114 m 0,0,1
 489 1100 489 1100 469 1085 c 1,2,3
 424 1085 424 1085 371 1059 c 1,4,5
 375 1049 375 1049 381 933 c 128,-1,6
 387 817 387 817 389 742.5 c 128,-1,7
 391 668 391 668 392 608.5 c 128,-1,8
 393 549 393 549 393 514 c 0,9,10
 395 494 395 494 395 489 c 0,11,12
 393 111 393 111 168 20 c 0,13,14
 139 8 139 8 94 4 c 128,-1,15
 49 0 49 0 -20 0 c 0,16,17
 -41 0 -41 0 -59.5 22.5 c 128,-1,18
 -78 45 -78 45 -88 98 c 1,19,20
 -98 129 -98 129 -102 163 c 128,-1,21
 -106 197 -106 197 -106 225 c 0,22,23
 -106 440 -106 440 -37 440 c 2,24,-1
 70 440 l 2,25,26
 135 440 135 440 173 477 c 128,-1,27
 211 514 211 514 211 592 c 0,28,29
 211 610 211 610 189.5 734 c 128,-1,30
 168 858 168 858 123 1081 c 0,31,32
 111 1149 111 1149 104 1186 c 0,33,34
 100 1219 100 1219 100 1219 c 1,35,36
 100 1255 100 1255 106 1255 c 1,37,38
 162 1321 162 1321 222.5 1388.5 c 128,-1,39
 283 1456 283 1456 354 1526 c 1,40,41
 358 1524 358 1524 418 1331 c 0,42,43
 434 1274 434 1274 447.5 1222.5 c 128,-1,44
 461 1171 461 1171 481 1114 c 0,0,1
EndSplineSet
EndChar

StartChar: afii62818
Encoding: 65248 65248 244
Width: 745
GlyphClass: 2
Flags: W
AnchorPoint: "Anchor-1" 345 -585 basechar 0
AnchorPoint: "Anchor-0" 405 1665 basechar 0
LayerCount: 2
Fore
SplineSet
836 221 m 0,0,1
 836 111 836 111 814.5 55.5 c 128,-1,2
 793 0 793 0 739 0 c 0,3,4
 485 0 485 0 369 307 c 1,5,6
 246 0 246 0 -29 0 c 0,7,8
 -70 0 -70 0 -88 50 c 128,-1,9
 -106 100 -106 100 -106 195 c 0,10,11
 -106 444 -106 444 -29 442 c 0,12,13
 -16 440 -16 440 -2 440 c 2,14,-1
 86 440 l 2,15,16
 172 440 172 440 219 501.5 c 128,-1,17
 266 563 266 563 266 680 c 2,18,-1
 266 934 l 1,19,-1
 256 1315 l 2,20,21
 256 1343 256 1343 262 1359.5 c 128,-1,22
 268 1376 268 1376 279 1386 c 2,23,-1
 444 1511 l 2,24,25
 458 1521 458 1521 468.5 1522.5 c 128,-1,26
 479 1524 479 1524 486.5 1516.5 c 128,-1,27
 494 1509 494 1509 494 1499 c 2,28,-1
 494 1466 l 2,29,30
 494 1108 494 1108 490.5 926.5 c 128,-1,31
 487 745 487 745 487 733 c 0,32,33
 487 518 487 518 532 477 c 1,34,35
 549 455 549 455 601 447.5 c 128,-1,36
 653 440 653 440 739 440 c 0,37,38
 836 440 836 440 836 221 c 0,0,1
EndSplineSet
EndChar

StartChar: afii57445
Encoding: 1605 1605 245
Width: 1207
GlyphClass: 2
Flags: W
AnchorPoint: "Anchor-1" 600 -765 basechar 0
AnchorPoint: "Anchor-0" 555 1275 basechar 0
LayerCount: 2
Fore
SplineSet
1143 717 m 0,0,1
 1143 629 1143 629 1126.5 551 c 128,-1,2
 1110 473 1110 473 1081 410 c 1,3,4
 1036 340 1036 340 974.5 300 c 128,-1,5
 913 260 913 260 836 260 c 0,6,7
 799 260 799 260 733.5 266 c 128,-1,8
 668 272 668 272 597 279.5 c 128,-1,9
 526 287 526 287 460.5 293 c 128,-1,10
 395 299 395 299 358 299 c 0,11,12
 319 299 319 299 283 236 c 1,13,14
 258 182 258 182 258 127 c 0,15,16
 258 86 258 86 259 20.5 c 128,-1,17
 260 -45 260 -45 262 -115.5 c 128,-1,18
 264 -186 264 -186 265 -250.5 c 128,-1,19
 266 -315 266 -315 266 -354 c 256,20,21
 266 -393 266 -393 262 -418.5 c 128,-1,22
 258 -444 258 -444 248 -461 c 1,23,24
 252 -461 252 -461 233.5 -481.5 c 128,-1,25
 215 -502 215 -502 168 -541 c 1,26,27
 154 -559 154 -559 137 -559 c 0,28,29
 123 -559 123 -559 119 -548 c 128,-1,30
 115 -537 115 -537 111 -510 c 0,31,32
 106 -307 106 -307 107.5 -169 c 128,-1,33
 109 -31 109 -31 111 54 c 128,-1,34
 113 139 113 139 116 178 c 128,-1,35
 119 217 119 217 119 221 c 0,36,37
 119 324 119 324 132 399.5 c 128,-1,38
 145 475 145 475 180 528 c 1,39,40
 219 600 219 600 286.5 633 c 128,-1,41
 354 666 354 666 446 666 c 1,42,43
 498 856 498 856 573.5 946 c 128,-1,44
 649 1036 649 1036 752 1036 c 0,45,46
 815 1036 815 1036 877.5 1012.5 c 128,-1,47
 940 989 940 989 1006 936 c 0,48,49
 1077 883 1077 883 1110 829.5 c 128,-1,50
 1143 776 1143 776 1143 717 c 0,0,1
1016 625 m 0,51,52
 1016 680 1016 680 881 733 c 0,53,54
 821 756 821 756 775 766 c 128,-1,55
 729 776 729 776 696 776 c 0,56,57
 604 776 604 776 592 649 c 1,58,59
 684 616 684 616 766 604 c 128,-1,60
 848 592 848 592 920 592 c 0,61,62
 1016 592 1016 592 1016 625 c 0,51,52
EndSplineSet
Substitution2: "'medi' Medial Forms in Arabic lookup 3 subtable" afii62821
Substitution2: "'fina' Terminal Forms in Arabic lookup 2 subtable" afii62822
Substitution2: "'init' Initial Forms in Arabic lookup 1 subtable" afii62820
EndChar

StartChar: afii62822
Encoding: 65250 65250 246
Width: 1219
GlyphClass: 2
Flags: W
AnchorPoint: "Anchor-1" 510 -825 basechar 0
AnchorPoint: "Anchor-0" 615 1140 basechar 0
LayerCount: 2
Fore
SplineSet
1323 250 m 0,0,1
 1323 190 1323 190 1319 151.5 c 128,-1,2
 1315 113 1315 113 1313 90 c 1,3,4
 1282 0 1282 0 1206 0 c 0,5,6
 1178 0 1178 0 1144 16.5 c 128,-1,7
 1110 33 1110 33 1077 70 c 1,8,9
 1081 20 1081 20 1085.5 -21.5 c 128,-1,10
 1090 -63 1090 -63 1090 -115 c 0,11,12
 1090 -156 1090 -156 1045.5 -183.5 c 128,-1,13
 1001 -211 1001 -211 913 -211 c 0,14,15
 770 -211 770 -211 643 -29 c 0,16,17
 604 33 604 33 568 109.5 c 128,-1,18
 532 186 532 186 506 283 c 0,19,20
 492 340 492 340 466 368.5 c 128,-1,21
 440 397 440 397 395 397 c 0,22,23
 356 397 356 397 331.5 378.5 c 128,-1,24
 307 360 307 360 293 331.5 c 128,-1,25
 279 303 279 303 272.5 268 c 128,-1,26
 266 233 266 233 266 201 c 2,27,-1
 270 -385 l 1,28,29
 258 -401 258 -401 247 -413.5 c 128,-1,30
 236 -426 236 -426 223.5 -436 c 128,-1,31
 211 -446 211 -446 195.5 -458.5 c 128,-1,32
 180 -471 180 -471 160 -485 c 1,33,34
 150 -350 150 -350 137.5 -205.5 c 128,-1,35
 125 -61 125 -61 114.5 63.5 c 128,-1,36
 104 188 104 188 97 281.5 c 128,-1,37
 90 375 90 375 90 410 c 0,38,39
 90 514 90 514 133 595 c 128,-1,40
 176 676 176 676 242.5 727 c 128,-1,41
 309 778 309 778 389 796.5 c 128,-1,42
 469 815 469 815 541 795 c 1,43,44
 580 885 580 885 592 885 c 0,45,46
 612 885 612 885 653 801 c 1,47,48
 686 748 686 748 723 699.5 c 128,-1,49
 760 651 760 651 801 610 c 0,50,51
 901 522 901 522 1004.5 481 c 128,-1,52
 1108 440 1108 440 1219 440 c 0,53,54
 1251 440 1251 440 1273.5 419.5 c 128,-1,55
 1296 399 1296 399 1313 371 c 1,56,57
 1315 352 1315 352 1319 322.5 c 128,-1,58
 1323 293 1323 293 1323 250 c 0,0,1
901 211 m 0,59,60
 901 295 901 295 795 379 c 1,61,62
 745 426 745 426 697 445.5 c 128,-1,63
 649 465 649 465 606 465 c 0,64,65
 565 465 565 465 565 406 c 0,66,67
 565 367 565 367 583.5 321.5 c 128,-1,68
 602 276 602 276 637 223 c 1,69,70
 717 119 717 119 795 119 c 0,71,72
 838 119 838 119 869.5 142.5 c 128,-1,73
 901 166 901 166 901 211 c 0,59,60
EndSplineSet
EndChar

StartChar: afii62820
Encoding: 65251 65251 247
Width: 993
GlyphClass: 2
Flags: W
AnchorPoint: "Anchor-1" 420 -630 basechar 0
AnchorPoint: "Anchor-0" 465 1260 basechar 0
LayerCount: 2
Fore
SplineSet
930 365 m 0,0,1
 930 293 930 293 916.5 230.5 c 128,-1,2
 903 168 903 168 874 115 c 0,3,4
 801 -16 801 -16 676 -16 c 0,5,6
 567 -16 567 -16 494 39 c 1,7,8
 436 66 436 66 379 139 c 1,9,10
 344 199 344 199 322 199 c 0,11,12
 303 199 303 199 268 139 c 0,13,14
 258 123 258 123 245.5 104.5 c 128,-1,15
 233 86 233 86 223 70 c 0,16,17
 174 -6 174 -6 -27 0 c 0,18,19
 -47 0 -47 0 -63.5 22.5 c 128,-1,20
 -80 45 -80 45 -98 98 c 0,21,22
 -111 129 -111 129 -115 162 c 128,-1,23
 -119 195 -119 195 -119 225 c 0,24,25
 -119 256 -119 256 -115 287.5 c 128,-1,26
 -111 319 -111 319 -98 354 c 0,27,28
 -80 393 -80 393 -58.5 416.5 c 128,-1,29
 -37 440 -37 440 -2 442 c 0,30,31
 94 442 94 442 121 457 c 0,32,33
 150 473 150 473 169 500.5 c 128,-1,34
 188 528 188 528 199 578 c 2,35,-1
 225 725 l 1,36,37
 254 827 254 827 336 901 c 1,38,39
 377 948 377 948 427 967.5 c 128,-1,40
 477 987 477 987 541 987 c 0,41,42
 631 987 631 987 701.5 932 c 128,-1,43
 772 877 772 877 836 762 c 1,44,45
 881 659 881 659 905.5 561 c 128,-1,46
 930 463 930 463 930 365 c 0,0,1
762 494 m 0,47,48
 762 569 762 569 713 662 c 1,49,50
 662 776 662 776 592 776 c 0,51,52
 504 776 504 776 504 606 c 0,53,54
 504 563 504 563 513 520 c 128,-1,55
 522 477 522 477 545 428 c 0,56,57
 596 324 596 324 674 324 c 0,58,59
 762 324 762 324 762 494 c 0,47,48
EndSplineSet
EndChar

StartChar: afii57446
Encoding: 1606 1606 248
Width: 1376
GlyphClass: 2
Flags: W
AnchorPoint: "Anchor-1" 645 -1155 basechar 0
AnchorPoint: "Anchor-0" 690 1290 basechar 0
LayerCount: 2
Fore
SplineSet
561 878 m 2,0,1
 561 880 561 880 598 920 c 128,-1,2
 635 960 635 960 700 1027 c 1,3,4
 706 1027 706 1027 710.5 1028 c 128,-1,5
 715 1029 715 1029 725 1029 c 0,6,7
 729 1029 729 1029 750.5 1013.5 c 128,-1,8
 772 998 772 998 807 957 c 0,9,10
 841 917 841 917 860.5 898.5 c 128,-1,11
 880 880 880 880 882 878 c 0,12,13
 882 874 882 874 845.5 835 c 128,-1,14
 809 796 809 796 743 718 c 1,15,-1
 727 718 l 2,16,17
 715 718 715 718 680 751.5 c 128,-1,18
 645 785 645 785 561 863 c 1,19,-1
 561 878 l 2,0,1
1360 217 m 0,20,21
 1360 135 1360 135 1348.5 51 c 128,-1,22
 1337 -33 1337 -33 1316.5 -109.5 c 128,-1,23
 1296 -186 1296 -186 1264.5 -250.5 c 128,-1,24
 1233 -315 1233 -315 1194 -358 c 0,25,26
 1030 -543 1030 -543 702 -543 c 0,27,28
 567 -543 567 -543 460.5 -512 c 128,-1,29
 354 -481 354 -481 279 -410 c 1,30,31
 195 -344 195 -344 157 -242.5 c 128,-1,32
 119 -141 119 -141 119 -4 c 0,33,34
 119 59 119 59 127 134 c 128,-1,35
 135 209 135 209 152.5 284.5 c 128,-1,36
 170 360 170 360 195.5 432 c 128,-1,37
 221 504 221 504 258 563 c 0,38,39
 276 592 276 592 303 592 c 0,40,41
 336 592 336 592 336 549 c 2,42,-1
 336 532 l 1,43,44
 303 438 303 438 285.5 372.5 c 128,-1,45
 268 307 268 307 268 266 c 256,46,47
 268 225 268 225 278.5 180 c 128,-1,48
 289 135 289 135 308.5 93 c 128,-1,49
 328 51 328 51 355.5 17.5 c 128,-1,50
 383 -16 383 -16 418 -37 c 0,51,52
 475 -66 475 -66 546.5 -82 c 128,-1,53
 618 -98 618 -98 702 -98 c 0,54,55
 791 -98 791 -98 866.5 -94 c 128,-1,56
 942 -90 942 -90 1016 -70 c 0,57,58
 1067 -55 1067 -55 1106 -26.5 c 128,-1,59
 1145 2 1145 2 1171.5 37 c 128,-1,60
 1198 72 1198 72 1212.5 107.5 c 128,-1,61
 1227 143 1227 143 1227 168 c 0,62,63
 1227 209 1227 209 1120 293 c 1,64,-1
 999 418 l 2,65,66
 999 420 999 420 1143 696 c 0,67,68
 1153 711 1153 711 1176 721 c 1,69,-1
 1204 702 l 1,70,71
 1286 567 1286 567 1323 445.5 c 128,-1,72
 1360 324 1360 324 1360 217 c 0,20,21
EndSplineSet
Substitution2: "'medi' Medial Forms in Arabic lookup 3 subtable" afii62824
Substitution2: "'fina' Terminal Forms in Arabic lookup 2 subtable" afii62825
Substitution2: "'init' Initial Forms in Arabic lookup 1 subtable" afii62823
EndChar

StartChar: afii62825
Encoding: 65254 65254 249
Width: 1540
GlyphClass: 2
Flags: W
AnchorPoint: "Anchor-1" 600 -1110 basechar 0
AnchorPoint: "Anchor-0" 720 1125 basechar 0
LayerCount: 2
Fore
SplineSet
553 767 m 2,0,1
 553 769 553 769 590 809 c 128,-1,2
 627 849 627 849 692 916 c 1,3,4
 698 916 698 916 702.5 917 c 128,-1,5
 707 918 707 918 717 918 c 0,6,7
 721 918 721 918 742.5 902.5 c 128,-1,8
 764 887 764 887 799 846 c 0,9,10
 833 806 833 806 852.5 787.5 c 128,-1,11
 872 769 872 769 874 767 c 0,12,13
 874 763 874 763 837.5 724 c 128,-1,14
 801 685 801 685 735 607 c 1,15,-1
 719 607 l 2,16,17
 707 607 707 607 672 640.5 c 128,-1,18
 637 674 637 674 553 752 c 1,19,-1
 553 767 l 2,0,1
1634 250 m 2,20,21
 1634 0 1634 0 1561 0 c 0,22,23
 1495 0 1495 0 1444 16.5 c 128,-1,24
 1393 33 1393 33 1360 70 c 1,25,26
 1360 -209 1360 -209 1167 -379 c 0,27,28
 1069 -465 1069 -465 953.5 -504 c 128,-1,29
 838 -543 838 -543 702 -543 c 0,30,31
 571 -543 571 -543 465.5 -512 c 128,-1,32
 360 -481 360 -481 283 -410 c 1,33,34
 197 -344 197 -344 158 -242.5 c 128,-1,35
 119 -141 119 -141 119 -4 c 0,36,37
 119 125 119 125 152.5 251 c 128,-1,38
 186 377 186 377 258 487 c 0,39,40
 279 514 279 514 303 514 c 0,41,42
 336 514 336 514 336 477 c 2,43,-1
 336 457 l 1,44,45
 303 371 303 371 287.5 303.5 c 128,-1,46
 272 236 272 236 272 188 c 0,47,48
 272 39 272 39 420 -37 c 0,49,50
 475 -66 475 -66 546.5 -82 c 128,-1,51
 618 -98 618 -98 702 -98 c 0,52,53
 795 -98 795 -98 868.5 -90 c 128,-1,54
 942 -82 942 -82 1016 -70 c 1,55,56
 1120 -39 1120 -39 1174.5 0 c 128,-1,57
 1229 39 1229 39 1229 98 c 0,58,59
 1229 115 1229 115 1203.5 144.5 c 128,-1,60
 1178 174 1178 174 1130 221 c 0,61,62
 1071 274 1071 274 1042.5 306 c 128,-1,63
 1014 338 1014 338 1006 346 c 1,64,65
 1006 354 1006 354 1147 625 c 1,66,67
 1161 643 1161 643 1184 643 c 1,68,-1
 1204 631 l 1,69,-1
 1241 573 l 1,70,71
 1313 440 1313 440 1540 440 c 0,72,73
 1571 440 1571 440 1592.5 419.5 c 128,-1,74
 1614 399 1614 399 1624 371 c 0,75,76
 1634 350 1634 350 1634 324 c 2,77,-1
 1634 250 l 2,20,21
EndSplineSet
EndChar

StartChar: afii62828
Encoding: 65258 65258 253
Width: 1001
GlyphClass: 2
Flags: W
AnchorPoint: "Anchor-1" 435 -660 basechar 0
AnchorPoint: "Anchor-0" 345 1425 basechar 0
LayerCount: 2
Fore
SplineSet
1094 244 m 0,0,1
 1094 39 1094 39 1034 2 c 0,2,3
 1030 2 1030 2 1021 1 c 128,-1,4
 1012 0 1012 0 999 0 c 0,5,6
 895 0 895 0 824.5 30.5 c 128,-1,7
 754 61 754 61 713 127 c 1,8,9
 664 190 664 190 600 440 c 2,10,-1
 543 659 l 1,11,12
 520 659 520 659 487.5 642 c 128,-1,13
 455 625 455 625 408 592 c 0,14,15
 367 559 367 559 344.5 533.5 c 128,-1,16
 322 508 322 508 322 494 c 0,17,18
 322 465 322 465 477 395 c 1,19,20
 555 365 555 365 593 343.5 c 128,-1,21
 631 322 631 322 631 317 c 0,22,23
 631 299 631 299 613.5 253 c 128,-1,24
 596 207 596 207 565 131 c 0,25,26
 535 59 535 59 513.5 27.5 c 128,-1,27
 492 -4 492 -4 481 -4 c 0,28,29
 455 -4 455 -4 404.5 20.5 c 128,-1,30
 354 45 354 45 279 100 c 1,31,32
 197 152 197 152 159 188.5 c 128,-1,33
 121 225 121 225 119 254 c 2,34,-1
 119 287 l 2,35,36
 119 315 119 315 126 361.5 c 128,-1,37
 133 408 133 408 150 479 c 0,38,39
 156 520 156 520 172 565 c 128,-1,40
 188 610 188 610 211 664 c 1,41,42
 221 676 221 676 290.5 736.5 c 128,-1,43
 360 797 360 797 481 895 c 1,44,45
 461 979 461 979 451.5 1018 c 128,-1,46
 442 1057 442 1057 442 1067 c 0,47,48
 442 1087 442 1087 460.5 1119 c 128,-1,49
 479 1151 479 1151 514 1202 c 1,50,51
 602 1300 602 1300 616 1300 c 0,52,53
 641 1300 641 1300 647 1255 c 1,54,-1
 778 760 l 2,55,56
 791 721 791 721 807 671 c 128,-1,57
 823 621 823 621 838 553 c 1,58,59
 861 479 861 479 913 459.5 c 128,-1,60
 965 440 965 440 1026 440 c 1,61,62
 1040 435 1040 435 1049 433 c 0,63,64
 1071 416 1071 416 1082.5 366.5 c 128,-1,65
 1094 317 1094 317 1094 244 c 0,0,1
EndSplineSet
EndChar

StartChar: afii57448
Encoding: 1608 1608 254
Width: 1000
GlyphClass: 2
Flags: W
AnchorPoint: "Anchor-1" 525 -1080 basechar 0
AnchorPoint: "Anchor-0" 585 1200 basechar 0
LayerCount: 2
Fore
SplineSet
967 307 m 0,0,1
 967 174 967 174 941 49 c 128,-1,2
 915 -76 915 -76 870 -211 c 0,3,4
 811 -385 811 -385 729 -467 c 128,-1,5
 647 -549 647 -549 543 -549 c 0,6,7
 446 -549 446 -549 303 -479 c 0,8,9
 225 -438 225 -438 178 -402.5 c 128,-1,10
 131 -367 131 -367 115 -328 c 1,11,12
 170 -328 170 -328 264 -298 c 128,-1,13
 358 -268 358 -268 481 -211 c 0,14,15
 762 -78 762 -78 762 2 c 1,16,17
 700 2 700 2 660.5 1 c 128,-1,18
 621 0 621 0 598 0 c 0,19,20
 457 0 457 0 390.5 71.5 c 128,-1,21
 324 143 324 143 324 283 c 0,22,23
 324 291 324 291 328 349.5 c 128,-1,24
 332 408 332 408 342 524 c 0,25,26
 352 623 352 623 363.5 691.5 c 128,-1,27
 375 760 375 760 397 819 c 1,28,29
 473 963 473 963 635 963 c 0,30,31
 850 963 850 963 920 725 c 0,32,33
 942 653 942 653 954.5 551 c 128,-1,34
 967 449 967 449 967 307 c 0,0,1
823 471 m 0,35,36
 823 502 823 502 799.5 532.5 c 128,-1,37
 776 563 776 563 733 598 c 1,38,39
 643 659 643 659 592 659 c 0,40,41
 537 659 537 659 504 635 c 0,42,43
 483 621 483 621 474 605.5 c 128,-1,44
 465 590 465 590 465 565 c 0,45,46
 465 500 465 500 503 470 c 128,-1,47
 541 440 541 440 627 440 c 0,48,49
 727 440 727 440 775 446.5 c 128,-1,50
 823 453 823 453 823 471 c 0,35,36
EndSplineSet
Substitution2: "'fina' Terminal Forms in Arabic lookup 2 subtable" afii62829
PairPos2: "'kern' Horizontal Kerning in Arabic lookup 0 subtable" afii62840 dx=0 dy=0 dh=0 dv=0 dx=0 dy=0 dh=-150 dv=0
PairPos2: "'kern' Horizontal Kerning in Arabic lookup 0 subtable" afii62838 dx=0 dy=0 dh=0 dv=0 dx=0 dy=0 dh=-150 dv=0
PairPos2: "'kern' Horizontal Kerning in Arabic lookup 0 subtable" afii62836 dx=0 dy=0 dh=0 dv=0 dx=0 dy=0 dh=-150 dv=0
PairPos2: "'kern' Horizontal Kerning in Arabic lookup 0 subtable" afii62834 dx=0 dy=0 dh=0 dv=0 dx=0 dy=0 dh=-150 dv=0
PairPos2: "'kern' Horizontal Kerning in Arabic lookup 0 subtable" afii57445 dx=0 dy=0 dh=0 dv=0 dx=0 dy=0 dh=-100 dv=0
PairPos2: "'kern' Horizontal Kerning in Arabic lookup 0 subtable" afii62817 dx=0 dy=0 dh=0 dv=0 dx=0 dy=0 dh=-100 dv=0
PairPos2: "'kern' Horizontal Kerning in Arabic lookup 0 subtable" afii57410 dx=0 dy=0 dh=0 dv=0 dx=0 dy=0 dh=-150 dv=0
PairPos2: "'kern' Horizontal Kerning in Arabic lookup 0 subtable" afii57443 dx=0 dy=0 dh=0 dv=0 dx=0 dy=0 dh=-100 dv=0
PairPos2: "'kern' Horizontal Kerning in Arabic lookup 0 subtable" afii57434 dx=0 dy=0 dh=0 dv=0 dx=0 dy=0 dh=150 dv=0
PairPos2: "'kern' Horizontal Kerning in Arabic lookup 0 subtable" afii57433 dx=0 dy=0 dh=0 dv=0 dx=0 dy=0 dh=150 dv=0
PairPos2: "'kern' Horizontal Kerning in Arabic lookup 0 subtable" afii57422 dx=0 dy=0 dh=0 dv=0 dx=0 dy=0 dh=150 dv=0
PairPos2: "'kern' Horizontal Kerning in Arabic lookup 0 subtable" afii57421 dx=0 dy=0 dh=0 dv=0 dx=0 dy=0 dh=150 dv=0
PairPos2: "'kern' Horizontal Kerning in Arabic lookup 0 subtable" afii57420 dx=0 dy=0 dh=0 dv=0 dx=0 dy=0 dh=150 dv=0
PairPos2: "'kern' Horizontal Kerning in Arabic lookup 0 subtable" afii62965 dx=0 dy=0 dh=0 dv=0 dx=0 dy=0 dh=-150 dv=0
PairPos2: "'kern' Horizontal Kerning in Arabic lookup 0 subtable" afii57509 dx=0 dy=0 dh=0 dv=0 dx=0 dy=0 dh=-150 dv=0
PairPos2: "'kern' Horizontal Kerning in Arabic lookup 0 subtable" afii52305 dx=0 dy=0 dh=0 dv=0 dx=0 dy=0 dh=-150 dv=0
PairPos2: "'kern' Horizontal Kerning in Arabic lookup 0 subtable" afii57567 dx=0 dy=0 dh=0 dv=0 dx=0 dy=0 dh=-150 dv=0
PairPos2: "'kern' Horizontal Kerning in Arabic lookup 0 subtable" afii57507 dx=0 dy=0 dh=0 dv=0 dx=0 dy=0 dh=150 dv=0
EndChar

StartChar: afii62829
Encoding: 65262 65262 255
Width: 1008
GlyphClass: 2
Flags: W
AnchorPoint: "Anchor-1" 540 -1110 basechar 0
AnchorPoint: "Anchor-0" 585 1185 basechar 0
LayerCount: 2
Fore
SplineSet
1108 244 m 0,0,1
 1108 178 1108 178 1104 134 c 128,-1,2
 1100 90 1100 90 1090 61 c 0,3,4
 1065 0 1065 0 1034 0 c 2,5,-1
 881 0 l 1,6,7
 881 -86 881 -86 856 -170 c 128,-1,8
 831 -254 831 -254 776 -346 c 0,9,10
 655 -549 655 -549 504 -549 c 0,11,12
 414 -549 414 -549 258 -479 c 1,13,14
 109 -401 109 -401 74 -328 c 1,15,16
 133 -328 133 -328 223 -298 c 128,-1,17
 313 -268 313 -268 442 -211 c 0,18,19
 582 -145 582 -145 653.5 -92 c 128,-1,20
 725 -39 725 -39 725 2 c 1,21,22
 664 2 664 2 623 1 c 128,-1,23
 582 0 582 0 553 0 c 0,24,25
 416 0 416 0 349.5 71.5 c 128,-1,26
 283 143 283 143 283 283 c 0,27,28
 283 291 283 291 285 349.5 c 128,-1,29
 287 408 287 408 295 524 c 0,30,31
 305 623 305 623 320.5 691.5 c 128,-1,32
 336 760 336 760 358 819 c 1,33,34
 430 963 430 963 598 963 c 0,35,36
 918 963 918 963 918 440 c 1,37,-1
 1030 440 l 2,38,39
 1071 440 1071 440 1089.5 390 c 128,-1,40
 1108 340 1108 340 1108 244 c 0,0,1
778 471 m 0,41,42
 778 530 778 530 692 598 c 0,43,44
 649 627 649 627 614.5 643 c 128,-1,45
 580 659 580 659 543 659 c 0,46,47
 520 659 520 659 499.5 652 c 128,-1,48
 479 645 479 645 457 635 c 1,49,50
 442 621 442 621 430 603.5 c 128,-1,51
 418 586 418 586 418 565 c 0,52,53
 418 440 418 440 592 440 c 0,54,55
 684 440 684 440 731 446.5 c 128,-1,56
 778 453 778 453 778 471 c 0,41,42
EndSplineSet
PairPos2: "'kern' Horizontal Kerning in Arabic lookup 0 subtable" afii62840 dx=0 dy=0 dh=0 dv=0 dx=0 dy=0 dh=-100 dv=0
PairPos2: "'kern' Horizontal Kerning in Arabic lookup 0 subtable" afii62838 dx=0 dy=0 dh=0 dv=0 dx=0 dy=0 dh=-100 dv=0
PairPos2: "'kern' Horizontal Kerning in Arabic lookup 0 subtable" afii62836 dx=0 dy=0 dh=0 dv=0 dx=0 dy=0 dh=-100 dv=0
PairPos2: "'kern' Horizontal Kerning in Arabic lookup 0 subtable" afii62834 dx=0 dy=0 dh=0 dv=0 dx=0 dy=0 dh=-100 dv=0
PairPos2: "'kern' Horizontal Kerning in Arabic lookup 0 subtable" afii62831 dx=0 dy=0 dh=0 dv=0 dx=0 dy=0 dh=100 dv=0
PairPos2: "'kern' Horizontal Kerning in Arabic lookup 0 subtable" afii62817 dx=0 dy=0 dh=0 dv=0 dx=0 dy=0 dh=-100 dv=0
PairPos2: "'kern' Horizontal Kerning in Arabic lookup 0 subtable" afii57410 dx=0 dy=0 dh=0 dv=0 dx=0 dy=0 dh=-150 dv=0
PairPos2: "'kern' Horizontal Kerning in Arabic lookup 0 subtable" afii57443 dx=0 dy=0 dh=0 dv=0 dx=0 dy=0 dh=-100 dv=0
PairPos2: "'kern' Horizontal Kerning in Arabic lookup 0 subtable" afii57434 dx=0 dy=0 dh=0 dv=0 dx=0 dy=0 dh=190 dv=0
PairPos2: "'kern' Horizontal Kerning in Arabic lookup 0 subtable" afii57433 dx=0 dy=0 dh=0 dv=0 dx=0 dy=0 dh=190 dv=0
PairPos2: "'kern' Horizontal Kerning in Arabic lookup 0 subtable" afii57422 dx=0 dy=0 dh=0 dv=0 dx=0 dy=0 dh=200 dv=0
PairPos2: "'kern' Horizontal Kerning in Arabic lookup 0 subtable" afii57421 dx=0 dy=0 dh=0 dv=0 dx=0 dy=0 dh=200 dv=0
PairPos2: "'kern' Horizontal Kerning in Arabic lookup 0 subtable" afii57420 dx=0 dy=0 dh=0 dv=0 dx=0 dy=0 dh=200 dv=0
PairPos2: "'kern' Horizontal Kerning in Arabic lookup 0 subtable" afii62761 dx=0 dy=0 dh=0 dv=0 dx=0 dy=0 dh=100 dv=0
PairPos2: "'kern' Horizontal Kerning in Arabic lookup 0 subtable" afii62965 dx=0 dy=0 dh=0 dv=0 dx=0 dy=0 dh=-150 dv=0
PairPos2: "'kern' Horizontal Kerning in Arabic lookup 0 subtable" afii57509 dx=0 dy=0 dh=0 dv=0 dx=0 dy=0 dh=-150 dv=0
PairPos2: "'kern' Horizontal Kerning in Arabic lookup 0 subtable" afii52305 dx=0 dy=0 dh=0 dv=0 dx=0 dy=0 dh=-150 dv=0
PairPos2: "'kern' Horizontal Kerning in Arabic lookup 0 subtable" afii57567 dx=0 dy=0 dh=0 dv=0 dx=0 dy=0 dh=-150 dv=0
PairPos2: "'kern' Horizontal Kerning in Arabic lookup 0 subtable" afii57507 dx=0 dy=0 dh=0 dv=0 dx=0 dy=0 dh=200 dv=0
PairPos2: "'kern' Horizontal Kerning in Arabic lookup 0 subtable" afii62956 dx=0 dy=0 dh=0 dv=0 dx=0 dy=0 dh=100 dv=0
EndChar

StartChar: afii62840
Encoding: 65275 65275 268
Width: 1228
GlyphClass: 3
Flags: W
AnchorPoint: "Anchor-3" 705 -510 baselig 0
AnchorPoint: "Anchor-2" 960 1605 baselig 0
AnchorPoint: "Anchor-3" 210 -555 baselig 1
AnchorPoint: "Anchor-2" 180 1590 baselig 1
LayerCount: 2
Fore
SplineSet
1194 1090 m 1,0,-1
 1190 1077 l 1,1,2
 1176 1073 1176 1073 1154.5 1071 c 128,-1,3
 1133 1069 1133 1069 1102 1073 c 1,4,5
 1102 1008 1102 1008 1084.5 935 c 128,-1,6
 1067 862 1067 862 1034 791 c 0,7,8
 997 707 997 707 949 654.5 c 128,-1,9
 901 602 901 602 850 578 c 1,10,11
 860 541 860 541 865 480.5 c 128,-1,12
 870 420 870 420 870 336 c 0,13,14
 870 150 870 150 838 90 c 0,15,16
 797 2 797 2 631 2 c 2,17,-1
 195 -4 l 2,18,19
 154 -4 154 -4 136.5 20.5 c 128,-1,20
 119 45 119 45 119 98 c 0,21,22
 119 184 119 184 136.5 250.5 c 128,-1,23
 154 317 154 317 201 365 c 0,24,25
 242 406 242 406 302 444.5 c 128,-1,26
 362 483 362 483 442 524 c 1,27,28
 514 547 514 547 549 567 c 0,29,30
 582 586 582 586 605.5 599 c 128,-1,31
 629 612 629 612 643 631 c 1,32,33
 643 676 643 676 532 811 c 1,34,35
 418 934 418 934 383 946 c 1,36,37
 354 911 354 911 338 892.5 c 128,-1,38
 322 874 322 874 317 874 c 0,39,40
 287 874 287 874 201 1006 c 1,41,42
 154 1065 154 1065 136.5 1106 c 128,-1,43
 119 1147 119 1147 119 1167 c 0,44,45
 119 1169 119 1169 144.5 1242 c 128,-1,46
 170 1315 170 1315 223 1454 c 0,47,48
 236 1485 236 1485 256 1485 c 0,49,50
 274 1485 274 1485 293 1460 c 0,51,52
 362 1378 362 1378 434 1293 c 128,-1,53
 506 1208 506 1208 580 1120 c 1,54,55
 655 1018 655 1018 710.5 921.5 c 128,-1,56
 766 825 766 825 786 739 c 1,57,58
 848 801 848 801 848 913 c 0,59,60
 848 991 848 991 821.5 1067 c 128,-1,61
 795 1143 795 1143 745 1217 c 1,62,63
 739 1217 739 1217 739 1219 c 0,64,65
 739 1245 739 1245 852 1376 c 0,66,67
 911 1450 911 1450 946 1483 c 128,-1,68
 981 1516 981 1516 987 1516 c 0,69,70
 1012 1516 1012 1516 1022 1483 c 1,71,72
 1040 1448 1040 1448 1060.5 1400 c 128,-1,73
 1081 1352 1081 1352 1106 1286 c 0,74,75
 1133 1217 1133 1217 1153.5 1168.5 c 128,-1,76
 1174 1120 1174 1120 1194 1090 c 1,0,-1
729 395 m 0,77,78
 729 418 729 418 726 444.5 c 128,-1,79
 723 471 723 471 713 494 c 1,80,81
 668 481 668 481 632 467 c 128,-1,82
 596 453 596 453 553 442 c 1,83,84
 426 387 426 387 426 342 c 0,85,86
 426 317 426 317 541 317 c 0,87,88
 584 317 584 317 613.5 319.5 c 128,-1,89
 643 322 643 322 659 324 c 0,90,91
 696 334 696 334 712.5 349.5 c 128,-1,92
 729 365 729 365 729 395 c 0,77,78
EndSplineSet
Ligature2: "'rlig' Required Ligatures in Arabic lookup 6 subtable" afii62817 afii62760
Substitution2: "'fina' Terminal Forms in Arabic lookup 2 subtable" afii62841
PairPos2: "'kern' Horizontal Kerning in Arabic lookup 0 subtable" afii57410 dx=0 dy=0 dh=0 dv=0 dx=0 dy=0 dh=100 dv=0
PairPos2: "'kern' Horizontal Kerning in Arabic lookup 0 subtable" afii62965 dx=0 dy=0 dh=0 dv=0 dx=0 dy=0 dh=100 dv=0
PairPos2: "'kern' Horizontal Kerning in Arabic lookup 0 subtable" afii57509 dx=0 dy=0 dh=0 dv=0 dx=0 dy=0 dh=100 dv=0
PairPos2: "'kern' Horizontal Kerning in Arabic lookup 0 subtable" afii52305 dx=0 dy=0 dh=0 dv=0 dx=0 dy=0 dh=100 dv=0
PairPos2: "'kern' Horizontal Kerning in Arabic lookup 0 subtable" afii57567 dx=0 dy=0 dh=0 dv=0 dx=0 dy=0 dh=100 dv=0
EndChar

StartChar: afii62841
Encoding: 65276 65276 269
Width: 1184
GlyphClass: 3
Flags: W
AnchorPoint: "Anchor-3" 810 -525 baselig 0
AnchorPoint: "Anchor-2" 855 1650 baselig 0
AnchorPoint: "Anchor-3" 345 -555 baselig 1
AnchorPoint: "Anchor-2" 195 1605 baselig 1
LayerCount: 2
Fore
SplineSet
1286 244 m 0,0,1
 1286 145 1286 145 1271.5 84 c 128,-1,2
 1257 23 1257 23 1229 2 c 0,3,4
 1227 2 1227 2 1213.5 1 c 128,-1,5
 1200 0 1200 0 1184 0 c 0,6,7
 1090 0 1090 0 1022 29.5 c 128,-1,8
 954 59 954 59 918 121 c 0,9,10
 885 176 885 176 867.5 251 c 128,-1,11
 850 326 850 326 850 426 c 1,12,13
 821 352 821 352 773 284.5 c 128,-1,14
 725 217 725 217 664 152 c 0,15,16
 592 74 592 74 520.5 37 c 128,-1,17
 449 0 449 0 379 0 c 0,18,19
 285 0 285 0 199 162 c 0,20,21
 154 240 154 240 136.5 305.5 c 128,-1,22
 119 371 119 371 119 418 c 2,23,-1
 119 432 l 2,24,25
 119 440 119 440 121 442 c 2,26,-1
 168 446 l 2,27,28
 225 453 225 453 268 471 c 128,-1,29
 311 489 311 489 336 524 c 0,30,31
 379 586 379 586 379 709 c 0,32,33
 379 903 379 903 127 1147 c 0,34,35
 121 1155 121 1155 120 1164.5 c 128,-1,36
 119 1174 119 1174 119 1184 c 0,37,38
 119 1188 119 1188 144.5 1261.5 c 128,-1,39
 170 1335 170 1335 223 1483 c 1,40,41
 233 1499 233 1499 245.5 1511.5 c 128,-1,42
 258 1524 258 1524 268 1524 c 0,43,44
 299 1524 299 1524 324 1495 c 2,45,-1
 659 1176 l 1,46,-1
 664 1167 l 1,47,48
 664 1147 664 1147 622 1133.5 c 128,-1,49
 580 1120 580 1120 494 1120 c 1,50,51
 520 1028 520 1028 531.5 956.5 c 128,-1,52
 543 885 543 885 543 838 c 0,53,54
 543 778 543 778 534.5 723 c 128,-1,55
 526 668 526 668 508 631 c 0,56,57
 498 602 498 602 474.5 555 c 128,-1,58
 451 508 451 508 410 442 c 1,59,60
 434 440 434 440 456.5 433 c 128,-1,61
 479 426 479 426 508 426 c 0,62,63
 674 426 674 426 760 592 c 0,64,65
 786 647 786 647 802.5 722 c 128,-1,66
 819 797 819 797 819 893 c 0,67,68
 819 934 819 934 807 1032 c 128,-1,69
 795 1130 795 1130 778 1292 c 1,70,-1
 778 1341 l 2,71,72
 778 1348 778 1348 816 1378.5 c 128,-1,73
 854 1409 854 1409 901 1443 c 128,-1,74
 948 1477 948 1477 989 1504.5 c 128,-1,75
 1030 1532 1030 1532 1034 1532 c 0,76,77
 1053 1532 1053 1532 1053 1499 c 1,78,79
 1057 1470 1057 1470 1058 1421 c 128,-1,80
 1059 1372 1059 1372 1059 1313 c 2,81,-1
 1059 1008 l 2,82,83
 1059 795 1059 795 1062 678 c 128,-1,84
 1065 561 1065 561 1067 543 c 0,85,86
 1081 502 1081 502 1099.5 477.5 c 128,-1,87
 1118 453 1118 453 1147 442 c 0,88,89
 1169 436 1169 436 1186.5 433 c 128,-1,90
 1204 430 1204 430 1217 428 c 0,91,92
 1231 426 1231 426 1241 426 c 1,93,94
 1264 403 1264 403 1275 361 c 128,-1,95
 1286 319 1286 319 1286 244 c 0,0,1
EndSplineSet
Ligature2: "'rlig' Required Ligatures in Arabic lookup 6 subtable" afii62818 afii62760
PairPos2: "'kern' Horizontal Kerning in Arabic lookup 0 subtable" afii57434 dx=0 dy=0 dh=0 dv=0 dx=0 dy=0 dh=100 dv=0
PairPos2: "'kern' Horizontal Kerning in Arabic lookup 0 subtable" afii57433 dx=0 dy=0 dh=0 dv=0 dx=0 dy=0 dh=100 dv=0
PairPos2: "'kern' Horizontal Kerning in Arabic lookup 0 subtable" afii57422 dx=0 dy=0 dh=0 dv=0 dx=0 dy=0 dh=150 dv=0
PairPos2: "'kern' Horizontal Kerning in Arabic lookup 0 subtable" afii57421 dx=0 dy=0 dh=0 dv=0 dx=0 dy=0 dh=150 dv=0
PairPos2: "'kern' Horizontal Kerning in Arabic lookup 0 subtable" afii57420 dx=0 dy=0 dh=0 dv=0 dx=0 dy=0 dh=150 dv=0
PairPos2: "'kern' Horizontal Kerning in Arabic lookup 0 subtable" afii57507 dx=0 dy=0 dh=0 dv=0 dx=0 dy=0 dh=150 dv=0
EndChar

StartChar: afii59759
Encoding: 3663 3663 276
Width: 1233
GlyphClass: 2
Flags: W
LayerCount: 2
Fore
SplineSet
616 983 m 0,0,1
 823 983 823 983 969.5 836.5 c 128,-1,2
 1116 690 1116 690 1116 483 c 0,3,4
 1116 277 1116 277 969.5 130.5 c 128,-1,5
 823 -16 823 -16 616 -16 c 0,6,7
 410 -16 410 -16 263.5 130.5 c 128,-1,8
 117 277 117 277 117 483 c 0,9,10
 117 690 117 690 263.5 836.5 c 128,-1,11
 410 983 410 983 616 983 c 0,0,1
616 147 m 0,12,13
 758 147 758 147 849 242 c 128,-1,14
 940 337 940 337 940 483 c 256,15,16
 940 629 940 629 849 724 c 128,-1,17
 758 819 758 819 616 819 c 0,18,19
 475 819 475 819 384 724 c 128,-1,20
 293 629 293 629 293 483 c 256,21,22
 293 337 293 337 384 242 c 128,-1,23
 475 147 475 147 616 147 c 0,12,13
616 598 m 0,24,25
 664 598 664 598 697.5 565 c 128,-1,26
 731 532 731 532 731 485 c 256,27,28
 731 438 731 438 697.5 404.5 c 128,-1,29
 664 371 664 371 616 371 c 0,30,31
 569 371 569 371 535.5 404.5 c 128,-1,32
 502 438 502 438 502 485 c 256,33,34
 502 532 502 532 535.5 565 c 128,-1,35
 569 598 569 598 616 598 c 0,24,25
EndSplineSet
EndChar

StartChar: afii59760
Encoding: 3664 3664 277
Width: 1233
GlyphClass: 2
Flags: W
LayerCount: 2
Fore
SplineSet
616 924 m 0,0,1
 834 924 834 924 975 794.5 c 128,-1,2
 1116 665 1116 665 1116 453 c 0,3,4
 1116 242 1116 242 975 113 c 128,-1,5
 834 -16 834 -16 616 -16 c 0,6,7
 399 -16 399 -16 258 113 c 128,-1,8
 117 242 117 242 117 453 c 0,9,10
 117 665 117 665 258 794.5 c 128,-1,11
 399 924 399 924 616 924 c 0,0,1
616 150 m 0,12,13
 765 150 765 150 852.5 231 c 128,-1,14
 940 312 940 312 940 453 c 256,15,16
 940 594 940 594 852 677 c 128,-1,17
 764 760 764 760 616 760 c 0,18,19
 469 760 469 760 381 677 c 128,-1,20
 293 594 293 594 293 453 c 0,21,22
 293 310 293 310 381.5 230 c 128,-1,23
 470 150 470 150 616 150 c 0,12,13
EndSplineSet
EndChar

StartChar: glyph279
Encoding: 65559 -1 279
Width: 0
GlyphClass: 2
Flags: W
LayerCount: 2
Fore
SplineSet
36 1831 m 1,0,-1
 36 863 l 1,1,-1
 -36 863 l 1,2,-1
 -36 1831 l 1,3,-1
 36 1831 l 1,0,-1
36 543 m 1,4,-1
 36 -423 l 1,5,-1
 -36 -423 l 1,6,-1
 -36 543 l 1,7,-1
 36 543 l 1,4,-1
EndSplineSet
EndChar

StartChar: glyph280
Encoding: 65560 -1 280
Width: 0
GlyphClass: 2
Flags: W
LayerCount: 2
Fore
SplineSet
-234 -423 m 1,0,-1
 -234 -352 l 1,1,-1
 -36 -352 l 1,2,-1
 -36 1760 l 1,3,-1
 -234 1760 l 1,4,-1
 -234 1831 l 1,5,-1
 234 1831 l 1,6,-1
 234 1760 l 1,7,-1
 36 1760 l 1,8,-1
 36 -352 l 1,9,-1
 234 -352 l 1,10,-1
 234 -423 l 1,11,-1
 -234 -423 l 1,0,-1
EndSplineSet
EndChar

StartChar: glyph281
Encoding: 65561 -1 281
Width: 0
GlyphClass: 2
Flags: W
LayerCount: 2
Fore
SplineSet
224 1646 m 1,0,-1
 36 1504 l 1,1,-1
 36 -423 l 1,2,-1
 -36 -423 l 1,3,-1
 -36 1831 l 1,4,-1
 224 1646 l 1,0,-1
EndSplineSet
EndChar

StartChar: glyph282
Encoding: 65562 -1 282
Width: 0
GlyphClass: 2
Flags: W
LayerCount: 2
Fore
SplineSet
36 1831 m 1,0,-1
 36 -423 l 1,1,-1
 -36 -423 l 1,2,-1
 -36 1504 l 1,3,-1
 -224 1646 l 1,4,-1
 36 1831 l 1,0,-1
EndSplineSet
EndChar

StartChar: glyph283
Encoding: 65563 -1 283
Width: 0
GlyphClass: 2
Flags: W
LayerCount: 2
Fore
SplineSet
36 1831 m 1,0,-1
 36 -352 l 1,1,-1
 234 -352 l 1,2,-1
 234 -423 l 1,3,-1
 -36 -423 l 1,4,-1
 -36 1831 l 1,5,-1
 36 1831 l 1,0,-1
EndSplineSet
EndChar

StartChar: glyph284
Encoding: 65564 -1 284
Width: 0
GlyphClass: 2
Flags: W
LayerCount: 2
Fore
SplineSet
224 1646 m 1,0,-1
 36 1504 l 1,1,-1
 36 -423 l 1,2,-1
 -36 -423 l 1,3,-1
 -36 1504 l 1,4,-1
 -224 1641 l 1,5,-1
 0 1831 l 1,6,-1
 224 1646 l 1,0,-1
EndSplineSet
EndChar

StartChar: uni0670
Encoding: 1648 1648 297
Width: 0
GlyphClass: 4
Flags: W
AnchorPoint: "Anchor-2" 0 0 mark 0
AnchorPoint: "Anchor-0" 0 0 mark 0
LayerCount: 2
Fore
SplineSet
53 351 m 2,0,1
 53 229 53 229 42 146 c 128,-1,2
 31 63 31 63 10 14 c 0,3,4
 6 5 6 5 1 2 c 128,-1,5
 -4 -1 -4 -1 -8 -1 c 0,6,7
 -14 -1 -14 -1 -18 5 c 2,8,-1
 -22 16 l 2,9,10
 -24 24 -24 24 -25.5 32 c 128,-1,11
 -27 40 -27 40 -35 65 c 1,12,13
 -45 132 -45 132 -52 206 c 128,-1,14
 -59 280 -59 280 -59 368 c 2,15,-1
 -59 370 l 1,16,-1
 45 470 l 1,17,18
 53 470 53 470 53 450 c 2,19,-1
 53 351 l 2,0,1
EndSplineSet
EndChar

StartChar: glyph298
Encoding: 65565 -1 298
Width: 666
GlyphClass: 2
Flags: W
LayerCount: 2
Fore
SplineSet
319 1513 m 1,0,1
 366 1548 366 1548 408 1555 c 128,-1,2
 450 1562 450 1562 482.5 1545.5 c 128,-1,3
 515 1529 515 1529 534 1490.5 c 128,-1,4
 553 1452 553 1452 554 1397 c 2,5,-1
 552 1277 l 1,6,-1
 69 1277 l 1,7,-1
 69 1365 l 1,8,-1
 151 1365 l 1,9,-1
 319 1513 l 1,0,1
272 1365 m 1,10,-1
 464 1365 l 1,11,-1
 464 1410 l 2,12,13
 462 1453 462 1453 434.5 1465 c 128,-1,14
 407 1477 407 1477 362 1444 c 1,15,-1
 272 1365 l 1,10,-1
EndSplineSet
EndChar

StartChar: glyph299
Encoding: 65566 -1 299
Width: 1295
GlyphClass: 2
Flags: W
LayerCount: 2
Fore
SplineSet
1251 299 m 0,0,1
 1262 139 1262 139 1230 -3 c 128,-1,2
 1198 -145 1198 -145 1130 -268 c 1,3,4
 1044 -412 1044 -412 927.5 -487.5 c 128,-1,5
 811 -563 811 -563 651 -569 c 0,6,7
 541 -575 541 -575 450.5 -547.5 c 128,-1,8
 360 -520 360 -520 293.5 -460.5 c 128,-1,9
 227 -401 227 -401 189.5 -314 c 128,-1,10
 152 -227 152 -227 145 -115 c 0,11,12
 137 6 137 6 162 186 c 0,13,14
 199 428 199 428 266 432 c 0,15,16
 293 432 293 432 295 385 c 0,17,18
 295 379 295 379 294 366.5 c 128,-1,19
 293 354 293 354 291 336 c 0,20,21
 276 289 276 289 279.5 177.5 c 128,-1,22
 283 66 283 66 317.5 3.5 c 128,-1,23
 352 -59 352 -59 418 -100 c 0,24,25
 475 -139 475 -139 546.5 -155.5 c 128,-1,26
 618 -172 618 -172 696 -168 c 0,27,28
 752 -164 752 -164 815.5 -150.5 c 128,-1,29
 879 -137 879 -137 944 -109 c 0,30,31
 1128 -37 1128 -37 1122 45 c 0,32,33
 1120 66 1120 66 1102.5 72 c 128,-1,34
 1085 78 1085 78 1047 76 c 0,35,36
 1036 76 1036 76 1015.5 74 c 128,-1,37
 995 72 995 72 972.5 70 c 128,-1,38
 950 68 950 68 928.5 67 c 128,-1,39
 907 66 907 66 893 66 c 0,40,41
 825 61 825 61 781 73.5 c 128,-1,42
 737 86 737 86 709 119 c 0,43,44
 655 176 655 176 649 315 c 0,45,46
 616 891 616 891 918 909 c 0,47,48
 1006 913 1006 913 1070.5 860 c 128,-1,49
 1135 807 1135 807 1188 686 c 0,50,51
 1217 614 1217 614 1231 516 c 128,-1,52
 1245 418 1245 418 1251 299 c 0,0,1
1114 489 m 0,53,54
 1110 518 1110 518 1085.5 544.5 c 128,-1,55
 1061 571 1061 571 1008 594 c 1,56,57
 958 610 958 610 918.5 619.5 c 128,-1,58
 879 629 879 629 848 627 c 0,59,60
 723 621 723 621 733 543 c 1,61,62
 733 487 733 487 831.5 458.5 c 128,-1,63
 930 430 930 430 969 432 c 0,64,65
 1118 444 1118 444 1114 489 c 0,53,54
EndSplineSet
EndChar

StartChar: uni06DD
Encoding: 1757 1757 388
Width: 2300
GlyphClass: 2
Flags: W
LayerCount: 2
Fore
SplineSet
2250 715 m 256,0,1
 2250 469 2250 469 2146 249 c 0,2,3
 2046 35 2046 35 1867 -119 c 1,4,5
 1870 -133 1870 -133 1870 -148 c 0,6,7
 1870 -203 1870 -203 1831 -241.5 c 128,-1,8
 1792 -280 1792 -280 1737 -280 c 0,9,10
 1697 -280 1697 -280 1664 -258 c 1,11,12
 1424 -385 1424 -385 1149 -385 c 0,13,14
 876 -385 876 -385 636 -258 c 1,15,16
 603 -280 603 -280 563 -280 c 0,17,18
 508 -280 508 -280 469 -241.5 c 128,-1,19
 430 -203 430 -203 430 -148 c 0,20,21
 430 -133 430 -133 433 -119 c 1,22,23
 254 35 254 35 154 249 c 0,24,25
 50 469 50 469 50 715 c 256,26,27
 50 961 50 961 154 1181 c 0,28,29
 254 1394 254 1394 433 1548 c 1,30,31
 430 1562 430 1562 430 1577 c 0,32,33
 430 1632 430 1632 469 1670.5 c 128,-1,34
 508 1709 508 1709 563 1709 c 0,35,36
 603 1709 603 1709 636 1687 c 1,37,38
 876 1814 876 1814 1151 1814 c 0,39,40
 1424 1814 1424 1814 1664 1687 c 1,41,42
 1697 1709 1697 1709 1737 1709 c 0,43,44
 1792 1709 1792 1709 1831 1670.5 c 128,-1,45
 1870 1632 1870 1632 1870 1577 c 0,46,47
 1870 1562 1870 1562 1867 1548 c 1,48,49
 2046 1394 2046 1394 2146 1181 c 0,50,51
 2250 961 2250 961 2250 715 c 256,0,1
1816 1576 m 0,52,53
 1816 1609 1816 1609 1793 1632 c 128,-1,54
 1770 1655 1770 1655 1738 1655 c 256,55,56
 1706 1655 1706 1655 1682.5 1631.5 c 128,-1,57
 1659 1608 1659 1608 1659 1576 c 256,58,59
 1659 1544 1659 1544 1682 1521 c 128,-1,60
 1705 1498 1705 1498 1738 1498 c 0,61,62
 1770 1498 1770 1498 1793 1521 c 128,-1,63
 1816 1544 1816 1544 1816 1576 c 0,52,53
1602 1595 m 1,64,65
 1390 1704 1390 1704 1151 1704 c 0,66,67
 910 1704 910 1704 698 1595 c 1,68,-1
 1602 1595 l 1,64,65
641 1576 m 256,69,70
 641 1608 641 1608 617.5 1631.5 c 128,-1,71
 594 1655 594 1655 562 1655 c 256,72,73
 530 1655 530 1655 507 1632 c 128,-1,74
 484 1609 484 1609 484 1576 c 0,75,76
 484 1544 484 1544 507 1521 c 128,-1,77
 530 1498 530 1498 562 1498 c 0,78,79
 595 1498 595 1498 618 1521 c 128,-1,80
 641 1544 641 1544 641 1576 c 256,69,70
2140 714 m 0,81,82
 2140 933 2140 933 2048 1131 c 0,83,84
 1960 1321 1960 1321 1801 1460 c 1,85,86
 1772 1444 1772 1444 1737 1444 c 0,87,88
 1681 1444 1681 1444 1642 1485 c 1,89,-1
 658 1485 l 1,90,91
 619 1444 619 1444 563 1444 c 0,92,93
 528 1444 528 1444 499 1460 c 1,94,95
 340 1321 340 1321 252 1131 c 0,96,97
 160 933 160 933 160 714 c 0,98,99
 160 265 160 265 499 -31 c 1,100,101
 528 -15 528 -15 563 -15 c 0,102,103
 619 -15 619 -15 658 -56 c 1,104,-1
 1642 -56 l 1,105,106
 1681 -15 1681 -15 1737 -15 c 0,107,108
 1772 -15 1772 -15 1801 -31 c 1,109,110
 2140 265 2140 265 2140 714 c 0,81,82
1816 -147 m 0,111,112
 1816 -115 1816 -115 1793 -92 c 128,-1,113
 1770 -69 1770 -69 1738 -69 c 0,114,115
 1705 -69 1705 -69 1682 -92 c 128,-1,116
 1659 -115 1659 -115 1659 -147 c 256,117,118
 1659 -179 1659 -179 1682.5 -202.5 c 128,-1,119
 1706 -226 1706 -226 1738 -226 c 256,120,121
 1770 -226 1770 -226 1793 -203 c 128,-1,122
 1816 -180 1816 -180 1816 -147 c 0,111,112
1602 -166 m 1,123,-1
 698 -166 l 1,124,125
 910 -275 910 -275 1151 -275 c 0,126,127
 1390 -275 1390 -275 1602 -166 c 1,123,-1
641 -147 m 256,128,129
 641 -115 641 -115 618 -92 c 128,-1,130
 595 -69 595 -69 562 -69 c 0,131,132
 530 -69 530 -69 507 -92 c 128,-1,133
 484 -115 484 -115 484 -147 c 0,134,135
 484 -180 484 -180 507 -203 c 128,-1,136
 530 -226 530 -226 562 -226 c 256,137,138
 594 -226 594 -226 617.5 -202.5 c 128,-1,139
 641 -179 641 -179 641 -147 c 256,128,129
EndSplineSet
EndChar

StartChar: uni06DE
Encoding: 1758 1758 389
Width: 2221
GlyphClass: 2
Flags: W
LayerCount: 2
Fore
SplineSet
2171 750 m 1,0,-1
 1861 439 l 1,1,-1
 1861 0 l 1,2,-1
 1421 0 l 1,3,-1
 1111 -311 l 1,4,-1
 800 0 l 1,5,-1
 361 0 l 1,6,-1
 361 439 l 1,7,-1
 50 750 l 1,8,-1
 361 1061 l 1,9,-1
 361 1500 l 1,10,-1
 800 1500 l 1,11,-1
 1111 1811 l 1,12,-1
 1421 1500 l 1,13,-1
 1861 1500 l 1,14,-1
 1861 1061 l 1,15,-1
 2171 750 l 1,0,-1
436 364 m 1,16,-1
 436 75 l 1,17,-1
 725 75 l 1,18,-1
 436 364 l 1,16,-1
725 1425 m 1,19,-1
 436 1425 l 1,20,-1
 436 1136 l 1,21,-1
 725 1425 l 1,19,-1
1786 1136 m 1,22,-1
 1786 1425 l 1,23,-1
 1496 1425 l 1,24,-1
 1786 1136 l 1,22,-1
1786 75 m 1,25,-1
 1786 364 l 1,26,-1
 1496 75 l 1,27,-1
 1786 75 l 1,25,-1
906 0 m 1,28,-1
 1111 -205 l 1,29,-1
 1315 0 l 1,30,-1
 906 0 l 1,28,-1
361 955 m 1,31,-1
 156 750 l 1,32,-1
 361 545 l 1,33,-1
 361 955 l 1,31,-1
1315 1500 m 1,34,-1
 1111 1705 l 1,35,-1
 906 1500 l 1,36,-1
 1315 1500 l 1,34,-1
1786 1030 m 1,37,-1
 1390 1425 l 1,38,-1
 831 1425 l 1,39,-1
 436 1030 l 1,40,-1
 436 470 l 1,41,-1
 831 75 l 1,42,-1
 1390 75 l 1,43,-1
 1786 470 l 1,44,-1
 1786 1030 l 1,37,-1
2065 750 m 1,45,-1
 1861 955 l 1,46,-1
 1861 545 l 1,47,-1
 2065 750 l 1,45,-1
1328 750 m 256,48,49
 1328 660 1328 660 1264.5 596 c 128,-1,50
 1201 532 1201 532 1111 532 c 256,51,52
 1021 532 1021 532 957 596 c 128,-1,53
 893 660 893 660 893 750 c 256,54,55
 893 840 893 840 957 903.5 c 128,-1,56
 1021 967 1021 967 1111 967 c 256,57,58
 1201 967 1201 967 1264.5 903.5 c 128,-1,59
 1328 840 1328 840 1328 750 c 256,48,49
1253 750 m 256,60,61
 1253 809 1253 809 1211 850.5 c 128,-1,62
 1169 892 1169 892 1110 892 c 256,63,64
 1051 892 1051 892 1009 850.5 c 128,-1,65
 967 809 967 809 967 750 c 256,66,67
 967 691 967 691 1009 649 c 128,-1,68
 1051 607 1051 607 1110 607 c 256,69,70
 1169 607 1169 607 1211 649 c 128,-1,71
 1253 691 1253 691 1253 750 c 256,60,61
EndSplineSet
EndChar

StartChar: uni06DF
Encoding: 1759 1759 390
Width: 0
GlyphClass: 2
Flags: W
LayerCount: 2
Fore
SplineSet
75 1429 m 256,0,1
 75 1398 75 1398 53 1376 c 128,-1,2
 31 1354 31 1354 0 1354 c 256,3,4
 -31 1354 -31 1354 -53 1376 c 128,-1,5
 -75 1398 -75 1398 -75 1429 c 256,6,7
 -75 1460 -75 1460 -53 1482 c 128,-1,8
 -31 1504 -31 1504 0 1504 c 256,9,10
 31 1504 31 1504 53 1482 c 128,-1,11
 75 1460 75 1460 75 1429 c 256,0,1
EndSplineSet
EndChar

StartChar: uni06E9
Encoding: 1769 1769 391
Width: 1229
GlyphClass: 2
Flags: W
LayerCount: 2
Fore
SplineSet
1179 0 m 1,0,-1
 50 0 l 1,1,-1
 278 261 l 1,2,-1
 278 849 l 1,3,-1
 50 1108 l 1,4,-1
 614 1676 l 1,5,-1
 1179 1108 l 1,6,-1
 951 849 l 1,7,-1
 951 261 l 1,8,-1
 1179 0 l 1,0,-1
1101 1108 m 1,9,-1
 614 1598 l 1,10,-1
 128 1108 l 1,11,-1
 338 871 l 1,12,-1
 338 239 l 1,13,-1
 178 56 l 1,14,-1
 1051 56 l 1,15,-1
 891 239 l 1,16,-1
 891 871 l 1,17,-1
 1101 1108 l 1,9,-1
995 1108 m 1,18,-1
 845 937 l 1,19,-1
 845 131 l 1,20,-1
 384 131 l 1,21,-1
 384 937 l 1,22,-1
 234 1108 l 1,23,-1
 614 1489 l 1,24,-1
 995 1108 l 1,18,-1
922 1108 m 1,25,-1
 614 1416 l 1,26,-1
 307 1108 l 1,27,-1
 433 968 l 1,28,-1
 433 186 l 1,29,-1
 796 186 l 1,30,-1
 796 968 l 1,31,-1
 922 1108 l 1,25,-1
833 1108 m 1,32,-1
 745 1011 l 1,33,-1
 745 267 l 1,34,-1
 484 267 l 1,35,-1
 484 1011 l 1,36,-1
 396 1108 l 1,37,-1
 614 1331 l 1,38,-1
 833 1108 l 1,32,-1
780 1108 m 1,39,-1
 614 1278 l 1,40,-1
 449 1108 l 1,41,-1
 523 1027 l 1,42,-1
 523 309 l 1,43,-1
 705 309 l 1,44,-1
 705 1027 l 1,45,-1
 780 1108 l 1,39,-1
EndSplineSet
EndChar

StartChar: uni06EB
Encoding: 1771 1771 393
Width: 0
GlyphClass: 2
Flags: W
LayerCount: 2
Fore
SplineSet
168 1522 m 1,0,-1
 -1 1354 l 1,1,-1
 -168 1521 l 1,2,-1
 1 1689 l 1,3,-1
 168 1522 l 1,0,-1
104 1522 m 1,4,-1
 0 1626 l 1,5,-1
 -104 1521 l 1,6,-1
 0 1417 l 1,7,-1
 104 1522 l 1,4,-1
EndSplineSet
EndChar

StartChar: comma
Encoding: 44 44 402
Width: 560
Flags: W
LayerCount: 2
Fore
SplineSet
239 -229 m 1,0,1
 327 -167 327 -167 368 -116.5 c 128,-1,2
 409 -66 409 -66 409 -21 c 0,3,4
 409 -9 409 -9 401 1 c 128,-1,5
 393 11 393 11 380 11 c 2,6,-1
 369 11 l 1,7,-1
 350 8 l 1,8,-1
 338 8 l 2,9,10
 330 8 330 8 321 9.5 c 128,-1,11
 312 11 312 11 302.5 15 c 128,-1,12
 293 19 293 19 284.5 24 c 128,-1,13
 276 29 276 29 269 34 c 0,14,15
 248 50 248 50 238 74 c 128,-1,16
 228 98 228 98 228 129 c 0,17,18
 228 188 228 188 263 222.5 c 128,-1,19
 298 257 298 257 358 257 c 0,20,21
 392 257 392 257 420.5 244 c 128,-1,22
 449 231 449 231 470 207.5 c 128,-1,23
 491 184 491 184 502 150.5 c 128,-1,24
 513 117 513 117 513 77 c 0,25,26
 513 27 513 27 498 -18 c 128,-1,27
 483 -63 483 -63 452 -104 c 128,-1,28
 421 -145 421 -145 372 -185 c 128,-1,29
 323 -225 323 -225 255 -263 c 1,30,-1
 239 -229 l 1,0,1
EndSplineSet
EndChar

StartChar: afii57407
Encoding: 1567 1567 403
Width: 938
GlyphClass: 2
Flags: W
LayerCount: 2
Fore
SplineSet
809 1180 m 0,0,1
 809 1157 809 1157 805 1128.5 c 128,-1,2
 801 1100 801 1100 795 1059 c 1,3,4
 784 1030 784 1030 770 1009.5 c 128,-1,5
 756 989 756 989 729 981 c 1,6,7
 694 985 694 985 682 1004.5 c 128,-1,8
 670 1024 670 1024 662 1053 c 1,9,10
 672 1069 672 1069 678 1083.5 c 128,-1,11
 684 1098 684 1098 684 1108 c 1,12,13
 696 1124 696 1124 700.5 1138.5 c 128,-1,14
 705 1153 705 1153 705 1163 c 0,15,16
 705 1235 705 1235 670 1282 c 128,-1,17
 635 1329 635 1329 559 1329 c 0,18,19
 496 1329 496 1329 466 1300.5 c 128,-1,20
 436 1272 436 1272 436 1206 c 0,21,22
 436 1184 436 1184 460.5 1123.5 c 128,-1,23
 485 1063 485 1063 545 969 c 1,24,25
 606 883 606 883 634 808 c 128,-1,26
 662 733 662 733 662 674 c 0,27,28
 662 559 662 559 608.5 497.5 c 128,-1,29
 555 436 555 436 453 436 c 0,30,31
 410 436 410 436 342 473 c 1,32,33
 307 483 307 483 289.5 505.5 c 128,-1,34
 272 528 272 528 268 547 c 1,35,36
 274 586 274 586 315 610 c 1,37,38
 324 610 324 610 375 582 c 0,39,40
 397 567 397 567 414.5 557 c 128,-1,41
 432 547 432 547 449 547 c 0,42,43
 489 547 489 547 510.5 568.5 c 128,-1,44
 532 590 532 590 532 621 c 0,45,46
 532 674 532 674 426 762 c 1,47,48
 350 834 350 834 306 874.5 c 128,-1,49
 262 915 262 915 240 938 c 0,50,51
 141 1061 141 1061 141 1159 c 0,52,53
 141 1233 141 1233 169 1290.5 c 128,-1,54
 197 1348 197 1348 252 1395 c 0,55,56
 348 1473 348 1473 504 1473 c 0,57,58
 629 1473 629 1473 719 1393 c 0,59,60
 768 1346 768 1346 788.5 1292.5 c 128,-1,61
 809 1239 809 1239 809 1180 c 0,0,1
268 207 m 2,62,63
 268 209 268 209 317.5 252 c 128,-1,64
 367 295 367 295 453 367 c 1,65,-1
 485 367 l 2,66,67
 494 367 494 367 518.5 346.5 c 128,-1,68
 543 326 543 326 582 279 c 0,69,70
 623 227 623 227 643.5 204.5 c 128,-1,71
 664 182 664 182 668 176 c 0,72,73
 666 172 666 172 617.5 132 c 128,-1,74
 569 92 569 92 479 8 c 1,75,-1
 457 8 l 2,76,77
 440 8 440 8 402.5 50 c 128,-1,78
 365 92 365 92 268 190 c 1,79,-1
 268 207 l 2,62,63
EndSplineSet
EndChar

StartChar: afii57392
Encoding: 1776 1776 404
Width: 1116
Flags: W
LayerCount: 2
Fore
SplineSet
862 680 m 0,0,1
 860 676 860 676 823 634 c 128,-1,2
 786 592 786 592 713 514 c 0,3,4
 641 442 641 442 602 409.5 c 128,-1,5
 563 377 563 377 553 377 c 0,6,7
 545 377 545 377 507 414 c 128,-1,8
 469 451 469 451 391 524 c 0,9,10
 244 662 244 662 244 692 c 1,11,12
 248 700 248 700 252 706.5 c 128,-1,13
 256 713 256 713 258 713 c 0,14,15
 293 748 293 748 339 795 c 128,-1,16
 385 842 385 842 444 901 c 0,17,18
 465 926 465 926 483.5 947.5 c 128,-1,19
 502 969 502 969 524 987 c 2,20,-1
 553 1008 l 1,21,22
 569 1006 569 1006 713 852 c 0,23,24
 778 784 778 784 815 743 c 128,-1,25
 852 702 852 702 862 680 c 0,0,1
EndSplineSet
EndChar

StartChar: afii57393
Encoding: 1777 1777 405
Width: 778
Flags: W
LayerCount: 2
Fore
SplineSet
610 647 m 2,0,1
 610 592 610 592 604 516 c 128,-1,2
 598 440 598 440 582 342 c 0,3,4
 565 231 565 231 545.5 156.5 c 128,-1,5
 526 82 526 82 502 41 c 0,6,7
 481 -2 481 -2 446 -2 c 0,8,9
 424 -2 424 -2 417 9 c 128,-1,10
 410 20 410 20 410 41 c 2,11,-1
 410 66 l 2,12,13
 410 84 410 84 411 102.5 c 128,-1,14
 412 121 412 121 412 139 c 2,15,-1
 412 168 l 2,16,17
 412 266 412 266 395.5 377.5 c 128,-1,18
 379 489 379 489 349 602 c 128,-1,19
 319 715 319 715 276 825.5 c 128,-1,20
 233 936 233 936 182 1032 c 1,21,22
 172 1040 172 1040 170 1052.5 c 128,-1,23
 168 1065 168 1065 168 1075 c 0,24,25
 168 1083 168 1083 182.5 1117 c 128,-1,26
 197 1151 197 1151 220.5 1197 c 128,-1,27
 244 1243 244 1243 271.5 1293 c 128,-1,28
 299 1343 299 1343 326.5 1386.5 c 128,-1,29
 354 1430 354 1430 377.5 1457.5 c 128,-1,30
 401 1485 401 1485 414 1485 c 0,31,32
 426 1485 426 1485 459 1427 c 1,33,34
 492 1378 492 1378 519.5 1286 c 128,-1,35
 547 1194 547 1194 567.5 1091.5 c 128,-1,36
 588 989 588 989 599 891 c 128,-1,37
 610 793 610 793 610 731 c 2,38,-1
 610 647 l 2,0,1
EndSplineSet
EndChar

